<svg width="135" height="41" viewBox="0 0 135 41" fill="none" xmlns="http://www.w3.org/2000/svg">
<rect x="0.5" y="1" width="134" height="39" rx="6.5" fill="black"/>
<rect x="0.5" y="1" width="134" height="39" rx="6.5" stroke="#A6A6A6"/>
<path d="M81.5259 19.7013V21.9924H80.0899V23.4948H81.5259V28.5998C81.5259 30.3429 82.3145 31.0402 84.2984 31.0402C84.647 31.0402 84.9791 30.9987 85.2696 30.9489V29.4631C85.0206 29.488 84.8628 29.5046 84.5889 29.5046C83.7007 29.5046 83.3106 29.0895 83.3106 28.1432V23.4948H85.2696V21.9924H83.3106V19.7013H81.5259Z" fill="white"/>
<path d="M90.3234 31.1647C92.9631 31.1647 94.5817 29.3967 94.5817 26.4665C94.5817 23.5529 92.9548 21.7765 90.3234 21.7765C87.6838 21.7765 86.0568 23.5529 86.0568 26.4665C86.0568 29.3967 87.6755 31.1647 90.3234 31.1647ZM90.3234 29.5793C88.7712 29.5793 87.8996 28.4421 87.8996 26.4665C87.8996 24.5075 88.7712 23.362 90.3234 23.362C91.8674 23.362 92.7473 24.5075 92.7473 26.4665C92.7473 28.4338 91.8674 29.5793 90.3234 29.5793Z" fill="white"/>
<path d="M95.9666 30.9904H97.7513V25.653C97.7513 24.383 98.7059 23.528 100.059 23.528C100.374 23.528 100.906 23.5861 101.055 23.6359V21.8762C100.864 21.8263 100.524 21.8014 100.258 21.8014C99.0794 21.8014 98.075 22.4489 97.8177 23.3371H97.6849V21.9509H95.9666V30.9904Z" fill="white"/>
<path d="M105.486 23.2956C106.806 23.2956 107.669 24.217 107.711 25.6364H103.145C103.245 24.2253 104.166 23.2956 105.486 23.2956ZM107.703 28.55C107.371 29.2555 106.632 29.6457 105.553 29.6457C104.125 29.6457 103.204 28.6413 103.145 27.0558V26.9562H109.529V26.3337C109.529 23.4948 108.01 21.7765 105.495 21.7765C102.946 21.7765 101.328 23.611 101.328 26.4997C101.328 29.3884 102.913 31.1647 105.503 31.1647C107.57 31.1647 109.014 30.1686 109.421 28.55H107.703Z" fill="white"/>
<path d="M69.8223 27.6522C69.96 29.872 71.8098 31.2915 74.5629 31.2915C77.5053 31.2915 79.3464 29.8031 79.3464 27.4286C79.3464 25.5616 78.2968 24.5292 75.7502 23.9355L74.3822 23.6C72.7647 23.2214 72.1109 22.7138 72.1109 21.8277C72.1109 20.7092 73.1261 19.9779 74.6489 19.9779C76.0943 19.9779 77.0923 20.692 77.273 21.8363H79.1486C79.0367 19.7456 77.1956 18.2744 74.6747 18.2744C71.9646 18.2744 70.1579 19.7456 70.1579 21.9567C70.1579 23.7807 71.1817 24.8647 73.4272 25.3895L75.0275 25.7767C76.6707 26.1638 77.3934 26.7317 77.3934 27.6781C77.3934 28.7793 76.2578 29.5794 74.7091 29.5794C73.0487 29.5794 71.8958 28.8309 71.7323 27.6522H69.8223Z" fill="white"/>
<path d="M51.335 21.8014C50.1065 21.8014 49.044 22.4157 48.4961 23.445H48.3633V21.9509H46.6451V33.9953H48.4297V29.6208H48.5708C49.044 30.5754 50.065 31.1398 51.3516 31.1398C53.6343 31.1398 55.087 29.3386 55.087 26.4665C55.087 23.5944 53.6343 21.8014 51.335 21.8014ZM50.8287 29.5378C49.3345 29.5378 48.3965 28.3591 48.3965 26.4748C48.3965 24.5822 49.3345 23.4035 50.837 23.4035C52.3477 23.4035 53.2525 24.5573 53.2525 26.4665C53.2525 28.384 52.3477 29.5378 50.8287 29.5378Z" fill="white"/>
<path d="M61.3318 21.8014C60.1033 21.8014 59.0408 22.4157 58.4929 23.445H58.3601V21.9509H56.6419V33.9953H58.4265V29.6208H58.5676C59.0408 30.5754 60.0618 31.1398 61.3484 31.1398C63.6311 31.1398 65.0838 29.3386 65.0838 26.4665C65.0838 23.5944 63.6311 21.8014 61.3318 21.8014ZM60.8255 29.5378C59.3313 29.5378 58.3933 28.3591 58.3933 26.4748C58.3933 24.5822 59.3313 23.4035 60.8338 23.4035C62.3445 23.4035 63.2493 24.5573 63.2493 26.4665C63.2493 28.384 62.3445 29.5378 60.8255 29.5378Z" fill="white"/>
<path d="M43.4431 30.9904H45.4907L41.0083 18.5755H38.9348L34.4524 30.9904H36.4312L37.5755 27.6953H42.3074L43.4431 30.9904ZM39.8726 20.8297H40.0189L41.817 26.0778H38.0659L39.8726 20.8297Z" fill="white"/>
<path d="M35.6514 9.21069V15.1997H37.8137C39.5984 15.1997 40.6318 14.0999 40.6318 12.1865C40.6318 10.3022 39.5901 9.21069 37.8137 9.21069H35.6514ZM36.5811 10.0574H37.71C38.9509 10.0574 39.6855 10.8459 39.6855 12.199C39.6855 13.5728 38.9634 14.353 37.71 14.353H36.5811V10.0574Z" fill="white"/>
<path d="M43.7969 15.2869C45.1167 15.2869 45.9261 14.4028 45.9261 12.9377C45.9261 11.481 45.1126 10.5928 43.7969 10.5928C42.4771 10.5928 41.6636 11.481 41.6636 12.9377C41.6636 14.4028 42.4729 15.2869 43.7969 15.2869ZM43.7969 14.4941C43.0208 14.4941 42.585 13.9255 42.585 12.9377C42.585 11.9583 43.0208 11.3855 43.7969 11.3855C44.5689 11.3855 45.0088 11.9583 45.0088 12.9377C45.0088 13.9214 44.5689 14.4941 43.7969 14.4941Z" fill="white"/>
<path d="M52.8182 10.6799H51.9259L51.1207 14.1289H51.0501L50.1205 10.6799H49.2655L48.3358 14.1289H48.2694L47.4601 10.6799H46.5553L47.8004 15.1997H48.7176L49.6473 11.8711H49.7179L50.6517 15.1997H51.5772L52.8182 10.6799Z" fill="white"/>
<path d="M53.8458 15.1997H54.7382V12.5559C54.7382 11.8503 55.1574 11.4104 55.8173 11.4104C56.4772 11.4104 56.7926 11.7715 56.7926 12.4978V15.1997H57.685V12.2737C57.685 11.1987 57.1288 10.5928 56.1203 10.5928C55.4396 10.5928 54.9914 10.8958 54.7714 11.3979H54.705V10.6799H53.8458V15.1997Z" fill="white"/>
<path d="M59.0903 15.1997H59.9826V8.91602H59.0903V15.1997Z" fill="white"/>
<path d="M63.3386 15.2869C64.6584 15.2869 65.4678 14.4028 65.4678 12.9377C65.4678 11.481 64.6543 10.5928 63.3386 10.5928C62.0188 10.5928 61.2053 11.481 61.2053 12.9377C61.2053 14.4028 62.0146 15.2869 63.3386 15.2869ZM63.3386 14.4941C62.5625 14.4941 62.1267 13.9255 62.1267 12.9377C62.1267 11.9583 62.5625 11.3855 63.3386 11.3855C64.1106 11.3855 64.5505 11.9583 64.5505 12.9377C64.5505 13.9214 64.1106 14.4941 63.3386 14.4941Z" fill="white"/>
<path d="M68.1265 14.5232C67.6409 14.5232 67.2881 14.2866 67.2881 13.8799C67.2881 13.4814 67.5704 13.2698 68.1929 13.2283L69.2969 13.1577V13.5354C69.2969 14.0957 68.7989 14.5232 68.1265 14.5232ZM67.8982 15.2744C68.4917 15.2744 68.9856 15.0171 69.2554 14.5647H69.326V15.1997H70.1851V12.1118C70.1851 11.1572 69.5459 10.5928 68.4129 10.5928C67.3877 10.5928 66.6573 11.0908 66.566 11.8669H67.4292C67.5289 11.5474 67.8733 11.3647 68.3714 11.3647C68.9815 11.3647 69.2969 11.6345 69.2969 12.1118V12.502L68.0726 12.5725C66.9976 12.6389 66.3916 13.1079 66.3916 13.9214C66.3916 14.7473 67.0267 15.2744 67.8982 15.2744Z" fill="white"/>
<path d="M73.2132 15.2744C73.8358 15.2744 74.3629 14.9797 74.6327 14.4858H74.7032V15.1997H75.5582V8.91602H74.6659V11.3979H74.5995C74.3546 10.8999 73.8316 10.6052 73.2132 10.6052C72.0719 10.6052 71.3373 11.51 71.3373 12.9377C71.3373 14.3696 72.0636 15.2744 73.2132 15.2744ZM73.4664 11.4062C74.2135 11.4062 74.6825 11.9998 74.6825 12.9419C74.6825 13.8882 74.2176 14.4734 73.4664 14.4734C72.711 14.4734 72.2586 13.8965 72.2586 12.9377C72.2586 11.9873 72.7152 11.4062 73.4664 11.4062Z" fill="white"/>
<path d="M81.3447 15.2869C82.6645 15.2869 83.4738 14.4028 83.4738 12.9377C83.4738 11.481 82.6604 10.5928 81.3447 10.5928C80.0249 10.5928 79.2114 11.481 79.2114 12.9377C79.2114 14.4028 80.0207 15.2869 81.3447 15.2869ZM81.3447 14.4941C80.5686 14.4941 80.1328 13.9255 80.1328 12.9377C80.1328 11.9583 80.5686 11.3855 81.3447 11.3855C82.1166 11.3855 82.5566 11.9583 82.5566 12.9377C82.5566 13.9214 82.1166 14.4941 81.3447 14.4941Z" fill="white"/>
<path d="M84.655 15.1997H85.5474V12.5559C85.5474 11.8503 85.9666 11.4104 86.6265 11.4104C87.2864 11.4104 87.6018 11.7715 87.6018 12.4978V15.1997H88.4941V12.2737C88.4941 11.1987 87.938 10.5928 86.9294 10.5928C86.2488 10.5928 85.8005 10.8958 85.5806 11.3979H85.5142V10.6799H84.655V15.1997Z" fill="white"/>
<path d="M92.6039 9.55518V10.7007H91.8858V11.4519H92.6039V14.0044C92.6039 14.876 92.9981 15.2246 93.9901 15.2246C94.1644 15.2246 94.3304 15.2039 94.4757 15.179V14.436C94.3512 14.4485 94.2723 14.4568 94.1353 14.4568C93.6913 14.4568 93.4962 14.2493 93.4962 13.7761V11.4519H94.4757V10.7007H93.4962V9.55518H92.6039Z" fill="white"/>
<path d="M95.6735 15.1997H96.5658V12.5601C96.5658 11.8752 96.9726 11.4146 97.703 11.4146C98.3339 11.4146 98.6701 11.7798 98.6701 12.502V15.1997H99.5624V12.282C99.5624 11.207 98.9689 10.5969 98.006 10.5969C97.3253 10.5969 96.848 10.8999 96.6281 11.4062H96.5575V8.91602H95.6735V15.1997Z" fill="white"/>
<path d="M102.781 11.3523C103.441 11.3523 103.873 11.813 103.894 12.5227H101.611C101.661 11.8171 102.122 11.3523 102.781 11.3523ZM103.89 13.9795C103.724 14.3323 103.354 14.5273 102.815 14.5273C102.101 14.5273 101.64 14.0251 101.611 13.2324V13.1826H104.803V12.8713C104.803 11.4519 104.043 10.5928 102.786 10.5928C101.511 10.5928 100.702 11.51 100.702 12.9543C100.702 14.3987 101.495 15.2869 102.79 15.2869C103.823 15.2869 104.545 14.7888 104.749 13.9795H103.89Z" fill="white"/>
<path d="M24.769 20.8011C24.7907 19.1201 25.6934 17.5295 27.1256 16.649C26.2221 15.3587 24.7088 14.5406 23.1344 14.4913C21.4552 14.3151 19.8272 15.4962 18.9715 15.4962C18.0992 15.4962 16.7817 14.5088 15.363 14.538C13.5137 14.5978 11.7898 15.6491 10.8901 17.2659C8.95607 20.6143 10.3987 25.5354 12.2513 28.242C13.1782 29.5673 14.2615 31.0478 15.6789 30.9953C17.066 30.9377 17.584 30.1108 19.2583 30.1108C20.9171 30.1108 21.4031 30.9953 22.8493 30.9619C24.3377 30.9377 25.2754 29.6306 26.1698 28.2927C26.8358 27.3484 27.3483 26.3047 27.6882 25.2002C25.9391 24.4604 24.771 22.7002 24.769 20.8011Z" fill="white"/>
<path d="M22.0373 12.7113C22.8489 11.7371 23.2487 10.4849 23.1518 9.2207C21.912 9.35092 20.7668 9.94348 19.9443 10.8803C19.14 11.7956 18.7214 13.0258 18.8006 14.2417C20.0408 14.2545 21.2601 13.678 22.0373 12.7113Z" fill="white"/>
</svg>
