<svg width="24" height="24" viewBox="0 0 24 24" fill="none" xmlns="http://www.w3.org/2000/svg">
<path d="M18.45 12.7501C17.325 11.4001 15.9 10.4626 14.325 9.9751C15.9 9.1501 16.95 7.5001 16.95 5.5876C16.95 2.8501 14.7375 0.600098 11.9625 0.600098C9.18751 0.600098 7.01251 2.8876 7.01251 5.6251C7.01251 7.5001 8.06251 9.1501 9.63751 10.0126C8.06251 10.5001 6.67501 11.4376 5.51251 12.7876C3.86251 14.7376 2.92501 17.4376 2.88751 20.4001C2.88751 20.7376 3.07501 21.0376 3.33751 21.1501C4.35001 21.6751 8.02501 23.3251 11.9625 23.3251C16.2375 23.3251 19.65 21.6376 20.625 21.1126C20.8875 20.9626 21.075 20.6626 21.075 20.3626C21.0375 17.4376 20.1 14.7376 18.45 12.7501ZM12 2.3626C13.8 2.3626 15.3 3.8251 15.3 5.6626C15.3 7.5001 13.8375 8.9626 12 8.9626C10.1625 8.9626 8.70001 7.5001 8.70001 5.6626C8.70001 3.8251 10.2 2.3626 12 2.3626ZM12 21.6751C8.88751 21.6751 5.85001 20.4751 4.61251 19.8751C4.76251 17.5126 5.51251 15.4126 6.82501 13.8376C8.17501 12.2251 10.0125 11.3251 12 11.3251C13.9875 11.3251 15.825 12.2251 17.175 13.8376C18.4875 15.3751 19.275 17.5126 19.3875 19.8751C18.225 20.4751 15.375 21.6751 12 21.6751Z" fill="#304761" fill-opacity="0.6"/>
</svg>
