<svg width="364" height="182" viewBox="0 0 364 182" fill="none" xmlns="http://www.w3.org/2000/svg">
<g filter="url(#filter0_b_0_596)">
<path d="M0 4C0 1.79086 1.79086 0 4 0H332C349.673 0 364 14.3269 364 32V178C364 180.209 362.209 182 360 182H32C14.3269 182 0 167.673 0 150V4Z" fill="#898989" fill-opacity="0.1"/>
<path d="M0.5 4C0.5 2.067 2.067 0.5 4 0.5H332C349.397 0.5 363.5 14.603 363.5 32V178C363.5 179.933 361.933 181.5 360 181.5H32C14.603 181.5 0.5 167.397 0.5 150V4Z" stroke="url(#paint0_linear_0_596)"/>
<path d="M85.4477 82V78.112C85.4477 75.744 85.8317 73.808 86.5997 72.304C87.3997 70.768 88.5357 69.52 90.0077 68.56C91.4797 67.568 93.2717 66.752 95.3837 66.112L98.4557 65.152C99.7037 64.736 100.76 64.24 101.624 63.664C102.488 63.088 103.16 62.384 103.64 61.552C104.12 60.688 104.36 59.68 104.36 58.528V58.336C104.36 56.608 103.768 55.248 102.584 54.256C101.4 53.232 99.8157 52.72 97.8317 52.72C95.8477 52.72 94.2317 53.264 92.9837 54.352C91.7357 55.408 91.1117 56.976 91.1117 59.056V59.872H85.5437V59.152C85.5437 56.72 86.0877 54.656 87.1757 52.96C88.2637 51.264 89.7357 49.968 91.5917 49.072C93.4477 48.176 95.5277 47.728 97.8317 47.728C100.136 47.728 102.2 48.176 104.024 49.072C105.88 49.936 107.32 51.152 108.344 52.72C109.4 54.288 109.928 56.128 109.928 58.24V58.72C109.928 60.864 109.496 62.672 108.632 64.144C107.768 65.616 106.568 66.832 105.032 67.792C103.528 68.72 101.816 69.488 99.8957 70.096L96.9197 71.008C95.4797 71.456 94.3277 71.936 93.4637 72.448C92.6317 72.96 92.0397 73.552 91.6877 74.224C91.3357 74.864 91.1597 75.68 91.1597 76.672V77.008H109.64V82H85.4477ZM126.185 82.672C122.249 82.672 119.097 81.568 116.729 79.36C114.361 77.152 113.177 73.824 113.177 69.376V61.024C113.177 56.672 114.361 53.376 116.729 51.136C119.097 48.864 122.249 47.728 126.185 47.728C130.153 47.728 133.305 48.864 135.641 51.136C138.009 53.376 139.193 56.672 139.193 61.024V69.376C139.193 73.824 138.009 77.152 135.641 79.36C133.305 81.568 130.153 82.672 126.185 82.672ZM126.185 77.68C128.713 77.68 130.569 76.976 131.753 75.568C132.969 74.16 133.577 72.16 133.577 69.568V60.784C133.577 58.16 132.921 56.16 131.609 54.784C130.297 53.408 128.489 52.72 126.185 52.72C123.817 52.72 121.993 53.424 120.713 54.832C119.433 56.24 118.793 58.224 118.793 60.784V69.568C118.793 72.224 119.401 74.24 120.617 75.616C121.865 76.992 123.721 77.68 126.185 77.68ZM152.801 75.232V67.696H145.361V62.704H152.801V55.168H157.985V62.704H165.425V67.696H157.985V75.232H152.801Z" fill="white"/>
<path d="M180.713 82L186.473 61H192.743L198.503 82H194.783L193.523 77.2H185.693L184.433 82H180.713ZM186.533 73.9H192.683L189.863 63.25H189.353L186.533 73.9ZM201.501 82L199.191 67.18H202.611L204.201 79.69H204.711L206.961 67.18H212.481L214.731 79.69H215.241L216.831 67.18H220.251L217.941 82H212.211L209.991 69.49H209.481L207.231 82H201.501ZM227.215 82.42C226.175 82.42 225.235 82.24 224.395 81.88C223.555 81.5 222.885 80.96 222.385 80.26C221.905 79.56 221.665 78.7 221.665 77.68C221.665 76.68 221.905 75.84 222.385 75.16C222.885 74.48 223.565 73.97 224.425 73.63C225.285 73.27 226.265 73.09 227.365 73.09H231.655V72.19C231.655 71.41 231.415 70.78 230.935 70.3C230.455 69.8 229.705 69.55 228.685 69.55C227.685 69.55 226.925 69.79 226.405 70.27C225.905 70.73 225.575 71.33 225.415 72.07L222.235 71.02C222.475 70.24 222.855 69.53 223.375 68.89C223.915 68.25 224.625 67.74 225.505 67.36C226.385 66.96 227.465 66.76 228.745 66.76C230.685 66.76 232.205 67.25 233.305 68.23C234.425 69.19 234.985 70.59 234.985 72.43V78.25C234.985 78.85 235.265 79.15 235.825 79.15H237.085V82H234.655C233.935 82 233.345 81.82 232.885 81.46C232.425 81.1 232.195 80.61 232.195 79.99V79.93H231.685C231.565 80.21 231.355 80.55 231.055 80.95C230.755 81.35 230.295 81.7 229.675 82C229.075 82.28 228.255 82.42 227.215 82.42ZM227.785 79.6C228.925 79.6 229.855 79.28 230.575 78.64C231.295 77.98 231.655 77.1 231.655 76V75.7H227.575C226.835 75.7 226.235 75.86 225.775 76.18C225.315 76.5 225.085 76.97 225.085 77.59C225.085 78.19 225.325 78.68 225.805 79.06C226.285 79.42 226.945 79.6 227.785 79.6ZM238.889 82V67.18H242.279V68.89H242.789C243.009 68.27 243.379 67.82 243.899 67.54C244.419 67.26 245.039 67.12 245.759 67.12H247.559V70.18H245.699C244.699 70.18 243.889 70.45 243.269 70.99C242.649 71.51 242.339 72.32 242.339 73.42V82H238.889ZM255.09 82.42C253.89 82.42 252.77 82.13 251.73 81.55C250.69 80.95 249.86 80.08 249.24 78.94C248.62 77.8 248.31 76.43 248.31 74.83V74.35C248.31 72.75 248.62 71.38 249.24 70.24C249.86 69.1 250.68 68.24 251.7 67.66C252.74 67.06 253.87 66.76 255.09 66.76C256.01 66.76 256.79 66.87 257.43 67.09C258.07 67.31 258.58 67.59 258.96 67.93C259.36 68.27 259.67 68.64 259.89 69.04H260.4V61H263.82V82H260.46V80.05H259.95C259.59 80.65 259.04 81.2 258.3 81.7C257.56 82.18 256.49 82.42 255.09 82.42ZM256.11 79.42C257.35 79.42 258.38 79.02 259.2 78.22C260.02 77.4 260.43 76.24 260.43 74.74V74.44C260.43 72.92 260.02 71.76 259.2 70.96C258.4 70.16 257.37 69.76 256.11 69.76C254.87 69.76 253.83 70.16 252.99 70.96C252.17 71.76 251.76 72.92 251.76 74.44V74.74C251.76 76.24 252.17 77.4 252.99 78.22C253.83 79.02 254.87 79.42 256.11 79.42ZM273.261 82.42C271.341 82.42 269.761 82 268.521 81.16C267.281 80.32 266.531 79.09 266.271 77.47L269.451 76.66C269.591 77.42 269.841 78.02 270.201 78.46C270.561 78.9 271.001 79.21 271.521 79.39C272.061 79.57 272.641 79.66 273.261 79.66C274.201 79.66 274.901 79.49 275.361 79.15C275.841 78.81 276.081 78.38 276.081 77.86C276.081 77.32 275.851 76.92 275.391 76.66C274.951 76.4 274.271 76.18 273.351 76L272.421 75.85C271.401 75.65 270.471 75.38 269.631 75.04C268.791 74.68 268.111 74.2 267.591 73.6C267.091 72.98 266.841 72.2 266.841 71.26C266.841 69.82 267.371 68.71 268.431 67.93C269.511 67.15 270.921 66.76 272.661 66.76C274.321 66.76 275.691 67.13 276.771 67.87C277.851 68.61 278.551 69.6 278.871 70.84L275.691 71.8C275.531 70.96 275.181 70.37 274.641 70.03C274.101 69.67 273.441 69.49 272.661 69.49C271.861 69.49 271.241 69.63 270.801 69.91C270.381 70.19 270.171 70.59 270.171 71.11C270.171 71.63 270.391 72.02 270.831 72.28C271.271 72.54 271.861 72.73 272.601 72.85L273.531 73.03C274.631 73.23 275.621 73.49 276.501 73.81C277.401 74.13 278.111 74.59 278.631 75.19C279.151 75.79 279.411 76.6 279.411 77.62C279.411 79.16 278.851 80.35 277.731 81.19C276.631 82.01 275.141 82.42 273.261 82.42Z" fill="#F1F1F1"/>
<path d="M35.3615 125.203H39.8879C40.8605 125.203 41.6897 125.35 42.3752 125.643C43.0607 125.936 43.5852 126.369 43.9484 126.943C44.3176 127.512 44.5022 128.215 44.5022 129.053C44.5022 129.691 44.385 130.254 44.1506 130.74C43.9162 131.227 43.5852 131.637 43.1574 131.971C42.7297 132.299 42.2199 132.554 41.6281 132.735L40.9602 133.061H36.8908L36.8732 131.312H39.923C40.4504 131.312 40.8898 131.218 41.2414 131.03C41.593 130.843 41.8566 130.588 42.0324 130.266C42.2141 129.938 42.3049 129.568 42.3049 129.158C42.3049 128.713 42.217 128.326 42.0412 127.998C41.8713 127.664 41.6076 127.409 41.2502 127.233C40.8928 127.052 40.4387 126.961 39.8879 126.961H37.5676V138H35.3615V125.203ZM42.6652 138L39.6594 132.252L41.9709 132.243L45.0207 137.886V138H42.6652ZM50.2309 138.176C49.5277 138.176 48.892 138.062 48.3236 137.833C47.7611 137.599 47.2807 137.273 46.8822 136.857C46.4897 136.441 46.1879 135.952 45.977 135.39C45.766 134.827 45.6606 134.221 45.6606 133.57V133.219C45.6606 132.475 45.7689 131.801 45.9857 131.197C46.2025 130.594 46.5043 130.078 46.891 129.65C47.2777 129.217 47.7348 128.886 48.2621 128.657C48.7895 128.429 49.3607 128.314 49.976 128.314C50.6557 128.314 51.2504 128.429 51.7602 128.657C52.2699 128.886 52.6918 129.208 53.0258 129.624C53.3656 130.034 53.6176 130.523 53.7816 131.092C53.9516 131.66 54.0365 132.287 54.0365 132.973V133.878H46.6889V132.357H51.9447V132.19C51.933 131.81 51.8568 131.452 51.7162 131.118C51.5814 130.784 51.3734 130.515 51.0922 130.31C50.8109 130.104 50.4359 130.002 49.9672 130.002C49.6156 130.002 49.3022 130.078 49.0268 130.23C48.7572 130.377 48.5316 130.591 48.35 130.872C48.1684 131.153 48.0277 131.493 47.9281 131.892C47.8344 132.284 47.7875 132.727 47.7875 133.219V133.57C47.7875 133.986 47.8432 134.373 47.9545 134.73C48.0717 135.082 48.2416 135.39 48.4643 135.653C48.6869 135.917 48.9564 136.125 49.2729 136.277C49.5893 136.424 49.9496 136.497 50.3539 136.497C50.8637 136.497 51.3178 136.395 51.7162 136.189C52.1147 135.984 52.4604 135.694 52.7533 135.319L53.8695 136.4C53.6645 136.699 53.3979 136.986 53.0697 137.262C52.7416 137.531 52.3402 137.751 51.8656 137.921C51.3969 138.091 50.852 138.176 50.2309 138.176ZM59.1236 136.488C59.4693 136.488 59.7799 136.421 60.0553 136.286C60.3365 136.146 60.5621 135.952 60.732 135.706C60.9078 135.46 61.0045 135.176 61.0221 134.854H63.0172C63.0055 135.469 62.8238 136.028 62.4723 136.532C62.1207 137.036 61.6549 137.438 61.0748 137.736C60.4947 138.029 59.8531 138.176 59.15 138.176C58.4234 138.176 57.7906 138.053 57.2516 137.807C56.7125 137.555 56.2643 137.209 55.9068 136.77C55.5494 136.33 55.2799 135.823 55.0982 135.249C54.9225 134.675 54.8346 134.06 54.8346 133.403V133.096C54.8346 132.439 54.9225 131.824 55.0982 131.25C55.2799 130.67 55.5494 130.16 55.9068 129.721C56.2643 129.281 56.7125 128.938 57.2516 128.692C57.7906 128.44 58.4205 128.314 59.1412 128.314C59.9029 128.314 60.5709 128.467 61.1451 128.771C61.7193 129.07 62.1705 129.489 62.4986 130.028C62.8326 130.562 63.0055 131.183 63.0172 131.892H61.0221C61.0045 131.54 60.9166 131.224 60.7584 130.942C60.6061 130.655 60.3893 130.427 60.108 130.257C59.8326 130.087 59.5016 130.002 59.1148 130.002C58.6871 130.002 58.3326 130.09 58.0514 130.266C57.7701 130.436 57.5504 130.67 57.3922 130.969C57.234 131.262 57.1197 131.593 57.0494 131.962C56.985 132.325 56.9527 132.703 56.9527 133.096V133.403C56.9527 133.796 56.985 134.177 57.0494 134.546C57.1139 134.915 57.2252 135.246 57.3834 135.539C57.5475 135.826 57.7701 136.058 58.0514 136.233C58.3326 136.403 58.69 136.488 59.1236 136.488ZM63.7889 133.351V133.148C63.7889 132.463 63.8885 131.827 64.0877 131.241C64.2869 130.649 64.574 130.137 64.949 129.703C65.3299 129.264 65.7928 128.924 66.3377 128.684C66.8885 128.438 67.5096 128.314 68.201 128.314C68.8982 128.314 69.5193 128.438 70.0643 128.684C70.615 128.924 71.0809 129.264 71.4617 129.703C71.8426 130.137 72.1326 130.649 72.3318 131.241C72.5311 131.827 72.6307 132.463 72.6307 133.148V133.351C72.6307 134.036 72.5311 134.672 72.3318 135.258C72.1326 135.844 71.8426 136.356 71.4617 136.796C71.0809 137.229 70.618 137.569 70.073 137.815C69.5281 138.056 68.91 138.176 68.2186 138.176C67.5213 138.176 66.8973 138.056 66.3465 137.815C65.8016 137.569 65.3387 137.229 64.9578 136.796C64.577 136.356 64.2869 135.844 64.0877 135.258C63.8885 134.672 63.7889 134.036 63.7889 133.351ZM65.907 133.148V133.351C65.907 133.778 65.951 134.183 66.0389 134.563C66.1268 134.944 66.2645 135.278 66.452 135.565C66.6395 135.853 66.8797 136.078 67.1727 136.242C67.4656 136.406 67.8143 136.488 68.2186 136.488C68.6111 136.488 68.951 136.406 69.2381 136.242C69.5311 136.078 69.7713 135.853 69.9588 135.565C70.1463 135.278 70.284 134.944 70.3719 134.563C70.4656 134.183 70.5125 133.778 70.5125 133.351V133.148C70.5125 132.727 70.4656 132.328 70.3719 131.953C70.284 131.572 70.1434 131.235 69.95 130.942C69.7625 130.649 69.5223 130.421 69.2293 130.257C68.9422 130.087 68.5994 130.002 68.201 130.002C67.8025 130.002 67.4568 130.087 67.1639 130.257C66.8768 130.421 66.6395 130.649 66.452 130.942C66.2645 131.235 66.1268 131.572 66.0389 131.953C65.951 132.328 65.907 132.727 65.907 133.148ZM80.0469 128.49H81.9717V137.736C81.9717 138.592 81.79 139.318 81.4268 139.916C81.0635 140.514 80.5566 140.968 79.9063 141.278C79.2559 141.595 78.5029 141.753 77.6475 141.753C77.2842 141.753 76.8799 141.7 76.4346 141.595C75.9951 141.489 75.5674 141.319 75.1514 141.085C74.7412 140.856 74.3984 140.555 74.1231 140.18L75.1162 138.932C75.4561 139.336 75.8311 139.632 76.2412 139.819C76.6514 140.007 77.082 140.101 77.5332 140.101C78.0195 140.101 78.4326 140.01 78.7725 139.828C79.1182 139.652 79.3848 139.392 79.5723 139.046C79.7598 138.7 79.8535 138.278 79.8535 137.78V130.644L80.0469 128.49ZM73.5869 133.351V133.166C73.5869 132.445 73.6748 131.789 73.8506 131.197C74.0264 130.6 74.2783 130.087 74.6064 129.659C74.9346 129.226 75.333 128.895 75.8018 128.666C76.2705 128.432 76.8008 128.314 77.3926 128.314C78.0078 128.314 78.5322 128.426 78.9658 128.648C79.4053 128.871 79.7715 129.19 80.0645 129.606C80.3574 130.017 80.5859 130.509 80.75 131.083C80.9199 131.651 81.0459 132.284 81.1279 132.981V133.57C81.0518 134.25 80.9229 134.871 80.7412 135.434C80.5596 135.996 80.3193 136.482 80.0205 136.893C79.7217 137.303 79.3525 137.619 78.9131 137.842C78.4795 138.064 77.9668 138.176 77.375 138.176C76.7949 138.176 76.2705 138.056 75.8018 137.815C75.3389 137.575 74.9404 137.238 74.6064 136.805C74.2783 136.371 74.0264 135.861 73.8506 135.275C73.6748 134.684 73.5869 134.042 73.5869 133.351ZM75.7051 133.166V133.351C75.7051 133.784 75.7461 134.188 75.8281 134.563C75.916 134.938 76.0479 135.27 76.2236 135.557C76.4053 135.838 76.6338 136.061 76.9092 136.225C77.1904 136.383 77.5215 136.462 77.9023 136.462C78.4004 136.462 78.8076 136.356 79.124 136.146C79.4463 135.935 79.6924 135.65 79.8623 135.293C80.0381 134.93 80.1611 134.525 80.2314 134.08V132.489C80.1963 132.144 80.1231 131.821 80.0117 131.522C79.9063 131.224 79.7627 130.963 79.5811 130.74C79.3994 130.512 79.1709 130.336 78.8955 130.213C78.6201 130.084 78.2949 130.02 77.9199 130.02C77.5391 130.02 77.208 130.102 76.9268 130.266C76.6455 130.43 76.4141 130.655 76.2324 130.942C76.0566 131.229 75.9248 131.563 75.8369 131.944C75.749 132.325 75.7051 132.732 75.7051 133.166ZM85.8195 130.521V138H83.7014V128.49H85.6965L85.8195 130.521ZM85.4416 132.894L84.7561 132.885C84.7619 132.211 84.8557 131.593 85.0373 131.03C85.2248 130.468 85.4826 129.984 85.8107 129.58C86.1447 129.176 86.5432 128.865 87.0061 128.648C87.4689 128.426 87.9846 128.314 88.5529 128.314C89.01 128.314 89.423 128.379 89.7922 128.508C90.1672 128.631 90.4865 128.833 90.7502 129.114C91.0197 129.396 91.2248 129.762 91.3654 130.213C91.5061 130.658 91.5764 131.206 91.5764 131.856V138H89.4494V131.848C89.4494 131.391 89.382 131.03 89.2473 130.767C89.1184 130.497 88.9279 130.307 88.676 130.195C88.4299 130.078 88.1223 130.02 87.7531 130.02C87.3898 130.02 87.0647 130.096 86.7775 130.248C86.4904 130.4 86.2473 130.608 86.048 130.872C85.8547 131.136 85.7053 131.44 85.5998 131.786C85.4943 132.132 85.4416 132.501 85.4416 132.894ZM95.5561 128.49V138H93.4291V128.49H95.5561ZM93.2885 125.994C93.2885 125.672 93.3939 125.405 93.6049 125.194C93.8217 124.978 94.1205 124.869 94.5014 124.869C94.8764 124.869 95.1723 124.978 95.3891 125.194C95.6059 125.405 95.7143 125.672 95.7143 125.994C95.7143 126.311 95.6059 126.574 95.3891 126.785C95.1723 126.996 94.8764 127.102 94.5014 127.102C94.1205 127.102 93.8217 126.996 93.6049 126.785C93.3939 126.574 93.2885 126.311 93.2885 125.994ZM104.783 136.312V138H97.6988V136.312H104.783ZM104.589 129.809L98.4195 138H97.0484V136.638L103.183 128.49H104.589V129.809ZM103.772 128.49V130.178H97.1539V128.49H103.772ZM108.297 128.49V138H106.17V128.49H108.297ZM106.029 125.994C106.029 125.672 106.135 125.405 106.346 125.194C106.562 124.978 106.861 124.869 107.242 124.869C107.617 124.869 107.913 124.978 108.13 125.194C108.346 125.405 108.455 125.672 108.455 125.994C108.455 126.311 108.346 126.574 108.13 126.785C107.913 126.996 107.617 127.102 107.242 127.102C106.861 127.102 106.562 126.996 106.346 126.785C106.135 126.574 106.029 126.311 106.029 125.994ZM112.268 130.521V138H110.149V128.49H112.145L112.268 130.521ZM111.89 132.894L111.204 132.885C111.21 132.211 111.304 131.593 111.485 131.03C111.673 130.468 111.931 129.984 112.259 129.58C112.593 129.176 112.991 128.865 113.454 128.648C113.917 128.426 114.433 128.314 115.001 128.314C115.458 128.314 115.871 128.379 116.24 128.508C116.615 128.631 116.935 128.833 117.198 129.114C117.468 129.396 117.673 129.762 117.813 130.213C117.954 130.658 118.024 131.206 118.024 131.856V138H115.897V131.848C115.897 131.391 115.83 131.03 115.695 130.767C115.566 130.497 115.376 130.307 115.124 130.195C114.878 130.078 114.57 130.02 114.201 130.02C113.838 130.02 113.513 130.096 113.226 130.248C112.938 130.4 112.695 130.608 112.496 130.872C112.303 131.136 112.153 131.44 112.048 131.786C111.942 132.132 111.89 132.501 111.89 132.894ZM125.827 128.49H127.752V137.736C127.752 138.592 127.571 139.318 127.207 139.916C126.844 140.514 126.337 140.968 125.687 141.278C125.036 141.595 124.283 141.753 123.428 141.753C123.065 141.753 122.66 141.7 122.215 141.595C121.776 141.489 121.348 141.319 120.932 141.085C120.522 140.856 120.179 140.555 119.904 140.18L120.897 138.932C121.237 139.336 121.612 139.632 122.022 139.819C122.432 140.007 122.863 140.101 123.314 140.101C123.8 140.101 124.213 140.01 124.553 139.828C124.899 139.652 125.165 139.392 125.353 139.046C125.54 138.7 125.634 138.278 125.634 137.78V130.644L125.827 128.49ZM119.367 133.351V133.166C119.367 132.445 119.455 131.789 119.631 131.197C119.807 130.6 120.059 130.087 120.387 129.659C120.715 129.226 121.113 128.895 121.582 128.666C122.051 128.432 122.581 128.314 123.173 128.314C123.788 128.314 124.313 128.426 124.746 128.648C125.186 128.871 125.552 129.19 125.845 129.606C126.138 130.017 126.366 130.509 126.53 131.083C126.7 131.651 126.826 132.284 126.908 132.981V133.57C126.832 134.25 126.703 134.871 126.522 135.434C126.34 135.996 126.1 136.482 125.801 136.893C125.502 137.303 125.133 137.619 124.694 137.842C124.26 138.064 123.747 138.176 123.155 138.176C122.575 138.176 122.051 138.056 121.582 137.815C121.119 137.575 120.721 137.238 120.387 136.805C120.059 136.371 119.807 135.861 119.631 135.275C119.455 134.684 119.367 134.042 119.367 133.351ZM121.486 133.166V133.351C121.486 133.784 121.527 134.188 121.609 134.563C121.696 134.938 121.828 135.27 122.004 135.557C122.186 135.838 122.414 136.061 122.69 136.225C122.971 136.383 123.302 136.462 123.683 136.462C124.181 136.462 124.588 136.356 124.904 136.146C125.227 135.935 125.473 135.65 125.643 135.293C125.819 134.93 125.942 134.525 126.012 134.08V132.489C125.977 132.144 125.904 131.821 125.792 131.522C125.687 131.224 125.543 130.963 125.362 130.74C125.18 130.512 124.951 130.336 124.676 130.213C124.401 130.084 124.075 130.02 123.7 130.02C123.32 130.02 122.988 130.102 122.707 130.266C122.426 130.43 122.195 130.655 122.013 130.942C121.837 131.229 121.705 131.563 121.617 131.944C121.529 132.325 121.486 132.732 121.486 133.166ZM133.128 133.351V133.148C133.128 132.463 133.227 131.827 133.426 131.241C133.626 130.649 133.913 130.137 134.288 129.703C134.669 129.264 135.131 128.924 135.676 128.684C136.227 128.438 136.848 128.314 137.54 128.314C138.237 128.314 138.858 128.438 139.403 128.684C139.954 128.924 140.42 129.264 140.8 129.703C141.181 130.137 141.471 130.649 141.671 131.241C141.87 131.827 141.969 132.463 141.969 133.148V133.351C141.969 134.036 141.87 134.672 141.671 135.258C141.471 135.844 141.181 136.356 140.8 136.796C140.42 137.229 139.957 137.569 139.412 137.815C138.867 138.056 138.249 138.176 137.557 138.176C136.86 138.176 136.236 138.056 135.685 137.815C135.14 137.569 134.677 137.229 134.296 136.796C133.916 136.356 133.626 135.844 133.426 135.258C133.227 134.672 133.128 134.036 133.128 133.351ZM135.246 133.148V133.351C135.246 133.778 135.29 134.183 135.378 134.563C135.465 134.944 135.603 135.278 135.791 135.565C135.978 135.853 136.218 136.078 136.511 136.242C136.804 136.406 137.153 136.488 137.557 136.488C137.95 136.488 138.29 136.406 138.577 136.242C138.87 136.078 139.11 135.853 139.297 135.565C139.485 135.278 139.623 134.944 139.711 134.563C139.804 134.183 139.851 133.778 139.851 133.351V133.148C139.851 132.727 139.804 132.328 139.711 131.953C139.623 131.572 139.482 131.235 139.289 130.942C139.101 130.649 138.861 130.421 138.568 130.257C138.281 130.087 137.938 130.002 137.54 130.002C137.141 130.002 136.796 130.087 136.503 130.257C136.215 130.421 135.978 130.649 135.791 130.942C135.603 131.235 135.465 131.572 135.378 131.953C135.29 132.328 135.246 132.727 135.246 133.148ZM149.016 135.759V128.49H151.143V138H149.139L149.016 135.759ZM149.315 133.781L150.027 133.764C150.027 134.402 149.957 134.991 149.816 135.53C149.676 136.063 149.459 136.529 149.166 136.928C148.873 137.32 148.498 137.628 148.041 137.851C147.584 138.067 147.036 138.176 146.397 138.176C145.934 138.176 145.51 138.108 145.123 137.974C144.736 137.839 144.402 137.631 144.121 137.35C143.846 137.068 143.632 136.702 143.479 136.251C143.327 135.8 143.251 135.261 143.251 134.634V128.49H145.369V134.651C145.369 134.997 145.41 135.287 145.492 135.521C145.574 135.75 145.685 135.935 145.826 136.075C145.967 136.216 146.131 136.315 146.318 136.374C146.506 136.433 146.705 136.462 146.916 136.462C147.519 136.462 147.994 136.345 148.34 136.11C148.691 135.87 148.94 135.548 149.087 135.144C149.239 134.739 149.315 134.285 149.315 133.781ZM154.991 130.301V138H152.873V128.49H154.895L154.991 130.301ZM157.9 128.429L157.883 130.397C157.754 130.374 157.613 130.356 157.461 130.345C157.314 130.333 157.168 130.327 157.021 130.327C156.658 130.327 156.339 130.38 156.063 130.485C155.788 130.585 155.557 130.731 155.369 130.925C155.188 131.112 155.047 131.341 154.947 131.61C154.848 131.88 154.789 132.182 154.771 132.516L154.288 132.551C154.288 131.953 154.347 131.399 154.464 130.89C154.581 130.38 154.757 129.932 154.991 129.545C155.231 129.158 155.53 128.856 155.888 128.64C156.251 128.423 156.67 128.314 157.145 128.314C157.273 128.314 157.411 128.326 157.558 128.35C157.71 128.373 157.824 128.399 157.9 128.429ZM167.002 138.176C166.299 138.176 165.663 138.062 165.095 137.833C164.533 137.599 164.052 137.273 163.654 136.857C163.261 136.441 162.959 135.952 162.748 135.39C162.538 134.827 162.432 134.221 162.432 133.57V133.219C162.432 132.475 162.54 131.801 162.757 131.197C162.974 130.594 163.276 130.078 163.663 129.65C164.049 129.217 164.506 128.886 165.034 128.657C165.561 128.429 166.132 128.314 166.747 128.314C167.427 128.314 168.022 128.429 168.532 128.657C169.041 128.886 169.463 129.208 169.797 129.624C170.137 130.034 170.389 130.523 170.553 131.092C170.723 131.66 170.808 132.287 170.808 132.973V133.878H163.46V132.357H168.716V132.19C168.704 131.81 168.628 131.452 168.488 131.118C168.353 130.784 168.145 130.515 167.864 130.31C167.582 130.104 167.207 130.002 166.739 130.002C166.387 130.002 166.074 130.078 165.798 130.23C165.529 130.377 165.303 130.591 165.121 130.872C164.94 131.153 164.799 131.493 164.7 131.892C164.606 132.284 164.559 132.727 164.559 133.219V133.57C164.559 133.986 164.615 134.373 164.726 134.73C164.843 135.082 165.013 135.39 165.236 135.653C165.458 135.917 165.728 136.125 166.044 136.277C166.361 136.424 166.721 136.497 167.125 136.497C167.635 136.497 168.089 136.395 168.488 136.189C168.886 135.984 169.232 135.694 169.525 135.319L170.641 136.4C170.436 136.699 170.169 136.986 169.841 137.262C169.513 137.531 169.112 137.751 168.637 137.921C168.168 138.091 167.623 138.176 167.002 138.176ZM173.628 128.49L175.438 131.646L177.284 128.49H179.613L176.73 133.157L179.727 138H177.398L175.464 134.713L173.531 138H171.193L174.181 133.157L171.307 128.49H173.628ZM184.322 136.488C184.668 136.488 184.978 136.421 185.254 136.286C185.535 136.146 185.761 135.952 185.93 135.706C186.106 135.46 186.203 135.176 186.221 134.854H188.216C188.204 135.469 188.022 136.028 187.671 136.532C187.319 137.036 186.853 137.438 186.273 137.736C185.693 138.029 185.052 138.176 184.348 138.176C183.622 138.176 182.989 138.053 182.45 137.807C181.911 137.555 181.463 137.209 181.105 136.77C180.748 136.33 180.478 135.823 180.297 135.249C180.121 134.675 180.033 134.06 180.033 133.403V133.096C180.033 132.439 180.121 131.824 180.297 131.25C180.478 130.67 180.748 130.16 181.105 129.721C181.463 129.281 181.911 128.938 182.45 128.692C182.989 128.44 183.619 128.314 184.34 128.314C185.101 128.314 185.769 128.467 186.344 128.771C186.918 129.07 187.369 129.489 187.697 130.028C188.031 130.562 188.204 131.183 188.216 131.892H186.221C186.203 131.54 186.115 131.224 185.957 130.942C185.804 130.655 185.588 130.427 185.306 130.257C185.031 130.087 184.7 130.002 184.313 130.002C183.886 130.002 183.531 130.09 183.25 130.266C182.969 130.436 182.749 130.67 182.591 130.969C182.432 131.262 182.318 131.593 182.248 131.962C182.183 132.325 182.151 132.703 182.151 133.096V133.403C182.151 133.796 182.183 134.177 182.248 134.546C182.312 134.915 182.424 135.246 182.582 135.539C182.746 135.826 182.969 136.058 183.25 136.233C183.531 136.403 183.888 136.488 184.322 136.488ZM193.584 138.176C192.881 138.176 192.245 138.062 191.677 137.833C191.114 137.599 190.634 137.273 190.235 136.857C189.843 136.441 189.541 135.952 189.33 135.39C189.119 134.827 189.014 134.221 189.014 133.57V133.219C189.014 132.475 189.122 131.801 189.339 131.197C189.556 130.594 189.857 130.078 190.244 129.65C190.631 129.217 191.088 128.886 191.615 128.657C192.143 128.429 192.714 128.314 193.329 128.314C194.009 128.314 194.604 128.429 195.113 128.657C195.623 128.886 196.045 129.208 196.379 129.624C196.719 130.034 196.971 130.523 197.135 131.092C197.305 131.66 197.39 132.287 197.39 132.973V133.878H190.042V132.357H195.298V132.19C195.286 131.81 195.21 131.452 195.069 131.118C194.935 130.784 194.727 130.515 194.445 130.31C194.164 130.104 193.789 130.002 193.32 130.002C192.969 130.002 192.655 130.078 192.38 130.23C192.11 130.377 191.885 130.591 191.703 130.872C191.521 131.153 191.381 131.493 191.281 131.892C191.188 132.284 191.141 132.727 191.141 133.219V133.57C191.141 133.986 191.196 134.373 191.308 134.73C191.425 135.082 191.595 135.39 191.817 135.653C192.04 135.917 192.31 136.125 192.626 136.277C192.942 136.424 193.303 136.497 193.707 136.497C194.217 136.497 194.671 136.395 195.069 136.189C195.468 135.984 195.813 135.694 196.106 135.319L197.223 136.4C197.018 136.699 196.751 136.986 196.423 137.262C196.095 137.531 195.693 137.751 195.219 137.921C194.75 138.091 194.205 138.176 193.584 138.176ZM200.86 124.5V138H198.733V124.5H200.86ZM204.997 124.5V138H202.871V124.5H204.997ZM211.06 138.176C210.357 138.176 209.721 138.062 209.153 137.833C208.59 137.599 208.11 137.273 207.712 136.857C207.319 136.441 207.017 135.952 206.806 135.39C206.595 134.827 206.49 134.221 206.49 133.57V133.219C206.49 132.475 206.598 131.801 206.815 131.197C207.032 130.594 207.334 130.078 207.72 129.65C208.107 129.217 208.564 128.886 209.091 128.657C209.619 128.429 210.19 128.314 210.805 128.314C211.485 128.314 212.08 128.429 212.589 128.657C213.099 128.886 213.521 129.208 213.855 129.624C214.195 130.034 214.447 130.523 214.611 131.092C214.781 131.66 214.866 132.287 214.866 132.973V133.878H207.518V132.357H212.774V132.19C212.762 131.81 212.686 131.452 212.546 131.118C212.411 130.784 212.203 130.515 211.921 130.31C211.64 130.104 211.265 130.002 210.796 130.002C210.445 130.002 210.131 130.078 209.856 130.23C209.587 130.377 209.361 130.591 209.179 130.872C208.998 131.153 208.857 131.493 208.757 131.892C208.664 132.284 208.617 132.727 208.617 133.219V133.57C208.617 133.986 208.672 134.373 208.784 134.73C208.901 135.082 209.071 135.39 209.294 135.653C209.516 135.917 209.786 136.125 210.102 136.277C210.419 136.424 210.779 136.497 211.183 136.497C211.693 136.497 212.147 136.395 212.546 136.189C212.944 135.984 213.29 135.694 213.583 135.319L214.699 136.4C214.494 136.699 214.227 136.986 213.899 137.262C213.571 137.531 213.17 137.751 212.695 137.921C212.226 138.091 211.681 138.176 211.06 138.176ZM218.169 130.521V138H216.051V128.49H218.046L218.169 130.521ZM217.791 132.894L217.105 132.885C217.111 132.211 217.205 131.593 217.387 131.03C217.574 130.468 217.832 129.984 218.16 129.58C218.494 129.176 218.892 128.865 219.355 128.648C219.818 128.426 220.334 128.314 220.902 128.314C221.359 128.314 221.772 128.379 222.141 128.508C222.516 128.631 222.836 128.833 223.099 129.114C223.369 129.396 223.574 129.762 223.715 130.213C223.855 130.658 223.926 131.206 223.926 131.856V138H221.799V131.848C221.799 131.391 221.731 131.03 221.596 130.767C221.468 130.497 221.277 130.307 221.025 130.195C220.779 130.078 220.471 130.02 220.102 130.02C219.739 130.02 219.414 130.096 219.127 130.248C218.84 130.4 218.596 130.608 218.397 130.872C218.204 131.136 218.054 131.44 217.949 131.786C217.844 132.132 217.791 132.501 217.791 132.894ZM229.522 136.488C229.868 136.488 230.179 136.421 230.454 136.286C230.735 136.146 230.961 135.952 231.131 135.706C231.307 135.46 231.403 135.176 231.421 134.854H233.416C233.404 135.469 233.223 136.028 232.871 136.532C232.52 137.036 232.054 137.438 231.474 137.736C230.894 138.029 230.252 138.176 229.549 138.176C228.822 138.176 228.189 138.053 227.65 137.807C227.111 137.555 226.663 137.209 226.306 136.77C225.948 136.33 225.679 135.823 225.497 135.249C225.321 134.675 225.233 134.06 225.233 133.403V133.096C225.233 132.439 225.321 131.824 225.497 131.25C225.679 130.67 225.948 130.16 226.306 129.721C226.663 129.281 227.111 128.938 227.65 128.692C228.189 128.44 228.819 128.314 229.54 128.314C230.302 128.314 230.97 128.467 231.544 128.771C232.118 129.07 232.569 129.489 232.897 130.028C233.231 130.562 233.404 131.183 233.416 131.892H231.421C231.403 131.54 231.315 131.224 231.157 130.942C231.005 130.655 230.788 130.427 230.507 130.257C230.231 130.087 229.9 130.002 229.514 130.002C229.086 130.002 228.731 130.09 228.45 130.266C228.169 130.436 227.949 130.67 227.791 130.969C227.633 131.262 227.519 131.593 227.448 131.962C227.384 132.325 227.352 132.703 227.352 133.096V133.403C227.352 133.796 227.384 134.177 227.448 134.546C227.513 134.915 227.624 135.246 227.782 135.539C227.946 135.826 228.169 136.058 228.45 136.233C228.731 136.403 229.089 136.488 229.522 136.488ZM238.784 138.176C238.081 138.176 237.446 138.062 236.877 137.833C236.315 137.599 235.834 137.273 235.436 136.857C235.043 136.441 234.741 135.952 234.53 135.39C234.32 134.827 234.214 134.221 234.214 133.57V133.219C234.214 132.475 234.322 131.801 234.539 131.197C234.756 130.594 235.058 130.078 235.445 129.65C235.831 129.217 236.288 128.886 236.816 128.657C237.343 128.429 237.914 128.314 238.529 128.314C239.209 128.314 239.804 128.429 240.314 128.657C240.823 128.886 241.245 129.208 241.579 129.624C241.919 130.034 242.171 130.523 242.335 131.092C242.505 131.66 242.59 132.287 242.59 132.973V133.878H235.242V132.357H240.498V132.19C240.487 131.81 240.41 131.452 240.27 131.118C240.135 130.784 239.927 130.515 239.646 130.31C239.364 130.104 238.989 130.002 238.521 130.002C238.169 130.002 237.856 130.078 237.58 130.23C237.311 130.377 237.085 130.591 236.904 130.872C236.722 131.153 236.581 131.493 236.482 131.892C236.388 132.284 236.341 132.727 236.341 133.219V133.57C236.341 133.986 236.397 134.373 236.508 134.73C236.625 135.082 236.795 135.39 237.018 135.653C237.24 135.917 237.51 136.125 237.826 136.277C238.143 136.424 238.503 136.497 238.907 136.497C239.417 136.497 239.871 136.395 240.27 136.189C240.668 135.984 241.014 135.694 241.307 135.319L242.423 136.4C242.218 136.699 241.951 136.986 241.623 137.262C241.295 137.531 240.894 137.751 240.419 137.921C239.95 138.091 239.405 138.176 238.784 138.176ZM250.092 128.49V138H247.965V128.49H250.092ZM247.825 125.994C247.825 125.672 247.93 125.405 248.141 125.194C248.358 124.978 248.657 124.869 249.038 124.869C249.413 124.869 249.709 124.978 249.925 125.194C250.142 125.405 250.251 125.672 250.251 125.994C250.251 126.311 250.142 126.574 249.925 126.785C249.709 126.996 249.413 127.102 249.038 127.102C248.657 127.102 248.358 126.996 248.141 126.785C247.93 126.574 247.825 126.311 247.825 125.994ZM254.063 130.521V138H251.945V128.49H253.94L254.063 130.521ZM253.685 132.894L253 132.885C253.006 132.211 253.099 131.593 253.281 131.03C253.469 130.468 253.726 129.984 254.054 129.58C254.388 129.176 254.787 128.865 255.25 128.648C255.713 128.426 256.228 128.314 256.797 128.314C257.254 128.314 257.667 128.379 258.036 128.508C258.411 128.631 258.73 128.833 258.994 129.114C259.263 129.396 259.469 129.762 259.609 130.213C259.75 130.658 259.82 131.206 259.82 131.856V138H257.693V131.848C257.693 131.391 257.626 131.03 257.491 130.767C257.362 130.497 257.172 130.307 256.92 130.195C256.674 130.078 256.366 130.02 255.997 130.02C255.634 130.02 255.308 130.096 255.021 130.248C254.734 130.4 254.491 130.608 254.292 130.872C254.098 131.136 253.949 131.44 253.844 131.786C253.738 132.132 253.685 132.501 253.685 132.894ZM265.573 124.5H267.692V135.97L267.489 138H265.573V124.5ZM273.897 133.157V133.342C273.897 134.045 273.818 134.692 273.659 135.284C273.507 135.87 273.273 136.38 272.956 136.813C272.646 137.247 272.259 137.584 271.796 137.824C271.339 138.059 270.809 138.176 270.205 138.176C269.613 138.176 269.098 138.064 268.658 137.842C268.219 137.619 267.85 137.303 267.551 136.893C267.258 136.482 267.021 135.993 266.839 135.425C266.657 134.856 266.529 134.229 266.452 133.544V132.955C266.529 132.264 266.657 131.637 266.839 131.074C267.021 130.506 267.258 130.017 267.551 129.606C267.85 129.19 268.216 128.871 268.65 128.648C269.089 128.426 269.602 128.314 270.188 128.314C270.797 128.314 271.333 128.432 271.796 128.666C272.265 128.9 272.654 129.234 272.965 129.668C273.276 130.096 273.507 130.605 273.659 131.197C273.818 131.789 273.897 132.442 273.897 133.157ZM271.779 133.342V133.157C271.779 132.729 271.743 132.328 271.673 131.953C271.603 131.572 271.486 131.238 271.321 130.951C271.163 130.664 270.946 130.438 270.671 130.274C270.402 130.104 270.065 130.02 269.66 130.02C269.285 130.02 268.963 130.084 268.694 130.213C268.424 130.342 268.198 130.518 268.017 130.74C267.835 130.963 267.692 131.221 267.586 131.514C267.487 131.807 267.419 132.123 267.384 132.463V134.054C267.437 134.493 267.548 134.897 267.718 135.267C267.894 135.63 268.14 135.923 268.456 136.146C268.773 136.362 269.18 136.471 269.678 136.471C270.071 136.471 270.402 136.392 270.671 136.233C270.941 136.075 271.154 135.855 271.313 135.574C271.477 135.287 271.594 134.953 271.664 134.572C271.74 134.191 271.779 133.781 271.779 133.342ZM280.601 136.093V131.558C280.601 131.218 280.539 130.925 280.416 130.679C280.293 130.433 280.106 130.242 279.854 130.107C279.608 129.973 279.297 129.905 278.922 129.905C278.577 129.905 278.278 129.964 278.026 130.081C277.774 130.198 277.578 130.356 277.437 130.556C277.296 130.755 277.226 130.98 277.226 131.232H275.117C275.117 130.857 275.207 130.494 275.389 130.143C275.571 129.791 275.834 129.478 276.18 129.202C276.526 128.927 276.939 128.71 277.419 128.552C277.9 128.394 278.439 128.314 279.037 128.314C279.751 128.314 280.384 128.435 280.935 128.675C281.492 128.915 281.928 129.278 282.245 129.765C282.567 130.245 282.728 130.849 282.728 131.575V135.803C282.728 136.236 282.757 136.626 282.816 136.972C282.88 137.312 282.971 137.607 283.088 137.859V138H280.917C280.818 137.771 280.739 137.481 280.68 137.13C280.627 136.772 280.601 136.427 280.601 136.093ZM280.909 132.217L280.926 133.526H279.406C279.013 133.526 278.667 133.564 278.369 133.641C278.07 133.711 277.821 133.816 277.621 133.957C277.422 134.098 277.273 134.268 277.173 134.467C277.074 134.666 277.024 134.892 277.024 135.144C277.024 135.396 277.082 135.627 277.2 135.838C277.317 136.043 277.487 136.204 277.709 136.321C277.938 136.438 278.213 136.497 278.536 136.497C278.969 136.497 279.347 136.409 279.669 136.233C279.997 136.052 280.255 135.832 280.443 135.574C280.63 135.311 280.73 135.062 280.742 134.827L281.427 135.768C281.357 136.008 281.237 136.266 281.067 136.541C280.897 136.816 280.674 137.08 280.399 137.332C280.129 137.578 279.804 137.78 279.423 137.938C279.048 138.097 278.615 138.176 278.122 138.176C277.501 138.176 276.948 138.053 276.461 137.807C275.975 137.555 275.594 137.218 275.319 136.796C275.043 136.368 274.906 135.885 274.906 135.346C274.906 134.842 274.999 134.396 275.187 134.01C275.38 133.617 275.662 133.289 276.031 133.025C276.406 132.762 276.863 132.562 277.402 132.428C277.941 132.287 278.556 132.217 279.247 132.217H280.909ZM286.593 130.521V138H284.475V128.49H286.47L286.593 130.521ZM286.215 132.894L285.53 132.885C285.536 132.211 285.63 131.593 285.811 131.03C285.999 130.468 286.256 129.984 286.585 129.58C286.919 129.176 287.317 128.865 287.78 128.648C288.243 128.426 288.758 128.314 289.327 128.314C289.784 128.314 290.197 128.379 290.566 128.508C290.941 128.631 291.26 128.833 291.524 129.114C291.794 129.396 291.999 129.762 292.139 130.213C292.28 130.658 292.35 131.206 292.35 131.856V138H290.223V131.848C290.223 131.391 290.156 131.03 290.021 130.767C289.892 130.497 289.702 130.307 289.45 130.195C289.204 130.078 288.896 130.02 288.527 130.02C288.164 130.02 287.838 130.096 287.551 130.248C287.264 130.4 287.021 130.608 286.822 130.872C286.629 131.136 286.479 131.44 286.374 131.786C286.268 132.132 286.215 132.501 286.215 132.894ZM296.198 124.5V138H294.071V124.5H296.198ZM302.104 128.49L297.965 133.078L295.697 135.398L295.143 133.605L296.857 131.487L299.547 128.49H302.104ZM300.004 138L296.919 133.535L298.255 132.05L302.456 138H300.004ZM305.267 128.49V138H303.14V128.49H305.267ZM302.999 125.994C302.999 125.672 303.104 125.405 303.315 125.194C303.532 124.978 303.831 124.869 304.212 124.869C304.587 124.869 304.883 124.978 305.1 125.194C305.316 125.405 305.425 125.672 305.425 125.994C305.425 126.311 305.316 126.574 305.1 126.785C304.883 126.996 304.587 127.102 304.212 127.102C303.831 127.102 303.532 126.996 303.315 126.785C303.104 126.574 302.999 126.311 302.999 125.994ZM309.237 130.521V138H307.119V128.49H309.114L309.237 130.521ZM308.86 132.894L308.174 132.885C308.18 132.211 308.274 131.593 308.455 131.03C308.643 130.468 308.901 129.984 309.229 129.58C309.563 129.176 309.961 128.865 310.424 128.648C310.887 128.426 311.403 128.314 311.971 128.314C312.428 128.314 312.841 128.379 313.21 128.508C313.585 128.631 313.904 128.833 314.168 129.114C314.438 129.396 314.643 129.762 314.783 130.213C314.924 130.658 314.994 131.206 314.994 131.856V138H312.867V131.848C312.867 131.391 312.8 131.03 312.665 130.767C312.536 130.497 312.346 130.307 312.094 130.195C311.848 130.078 311.54 130.02 311.171 130.02C310.808 130.02 310.483 130.096 310.195 130.248C309.908 130.4 309.665 130.608 309.466 130.872C309.273 131.136 309.123 131.44 309.018 131.786C308.912 132.132 308.86 132.501 308.86 132.894ZM322.797 128.49H324.722V137.736C324.722 138.592 324.54 139.318 324.177 139.916C323.814 140.514 323.307 140.968 322.657 141.278C322.006 141.595 321.253 141.753 320.398 141.753C320.035 141.753 319.63 141.7 319.185 141.595C318.745 141.489 318.318 141.319 317.902 141.085C317.492 140.856 317.149 140.555 316.873 140.18L317.867 138.932C318.206 139.336 318.581 139.632 318.992 139.819C319.402 140.007 319.832 140.101 320.284 140.101C320.77 140.101 321.183 140.01 321.523 139.828C321.869 139.652 322.135 139.392 322.323 139.046C322.51 138.7 322.604 138.278 322.604 137.78V130.644L322.797 128.49ZM316.337 133.351V133.166C316.337 132.445 316.425 131.789 316.601 131.197C316.777 130.6 317.029 130.087 317.357 129.659C317.685 129.226 318.083 128.895 318.552 128.666C319.021 128.432 319.551 128.314 320.143 128.314C320.758 128.314 321.283 128.426 321.716 128.648C322.156 128.871 322.522 129.19 322.815 129.606C323.108 130.017 323.336 130.509 323.5 131.083C323.67 131.651 323.796 132.284 323.878 132.981V133.57C323.802 134.25 323.673 134.871 323.492 135.434C323.31 135.996 323.07 136.482 322.771 136.893C322.472 137.303 322.103 137.619 321.663 137.842C321.23 138.064 320.717 138.176 320.125 138.176C319.545 138.176 319.021 138.056 318.552 137.815C318.089 137.575 317.691 137.238 317.357 136.805C317.029 136.371 316.777 135.861 316.601 135.275C316.425 134.684 316.337 134.042 316.337 133.351ZM318.455 133.166V133.351C318.455 133.784 318.496 134.188 318.578 134.563C318.666 134.938 318.798 135.27 318.974 135.557C319.156 135.838 319.384 136.061 319.66 136.225C319.941 136.383 320.272 136.462 320.653 136.462C321.151 136.462 321.558 136.356 321.874 136.146C322.197 135.935 322.443 135.65 322.613 135.293C322.788 134.93 322.911 134.525 322.982 134.08V132.489C322.947 132.144 322.873 131.821 322.762 131.522C322.657 131.224 322.513 130.963 322.331 130.74C322.15 130.512 321.921 130.336 321.646 130.213C321.37 130.084 321.045 130.02 320.67 130.02C320.289 130.02 319.958 130.102 319.677 130.266C319.396 130.43 319.164 130.655 318.983 130.942C318.807 131.229 318.675 131.563 318.587 131.944C318.499 132.325 318.455 132.732 318.455 133.166ZM326.557 136.945C326.557 136.617 326.669 136.342 326.891 136.119C327.114 135.891 327.416 135.776 327.797 135.776C328.183 135.776 328.485 135.891 328.702 136.119C328.924 136.342 329.036 136.617 329.036 136.945C329.036 137.273 328.924 137.549 328.702 137.771C328.485 137.994 328.183 138.105 327.797 138.105C327.416 138.105 327.114 137.994 326.891 137.771C326.669 137.549 326.557 137.273 326.557 136.945Z" fill="#F1F1F1"/>
</g>
<defs>
<filter id="filter0_b_0_596" x="-5" y="-5" width="374" height="192" filterUnits="userSpaceOnUse" color-interpolation-filters="sRGB">
<feFlood flood-opacity="0" result="BackgroundImageFix"/>
<feGaussianBlur in="BackgroundImageFix" stdDeviation="2.5"/>
<feComposite in2="SourceAlpha" operator="in" result="effect1_backgroundBlur_0_596"/>
<feBlend mode="normal" in="SourceGraphic" in2="effect1_backgroundBlur_0_596" result="shape"/>
</filter>
<linearGradient id="paint0_linear_0_596" x1="441.627" y1="210.426" x2="117.773" y2="-145.343" gradientUnits="userSpaceOnUse">
<stop offset="0.109465" stop-color="white" stop-opacity="0.8"/>
<stop offset="1" stop-color="#00A650"/>
</linearGradient>
</defs>
</svg>
