<svg width="364" height="182" viewBox="0 0 364 182" fill="none" xmlns="http://www.w3.org/2000/svg">
<g filter="url(#filter0_b_0_593)">
<path d="M0 4C0 1.79086 1.79086 0 4 0H332C349.673 0 364 14.3269 364 32V178C364 180.209 362.209 182 360 182H32C14.3269 182 0 167.673 0 150V4Z" fill="#898989" fill-opacity="0.1"/>
<path d="M0.5 4C0.5 2.067 2.067 0.5 4 0.5H332C349.397 0.5 363.5 14.603 363.5 32V178C363.5 179.933 361.933 181.5 360 181.5H32C14.603 181.5 0.5 167.397 0.5 150V4Z" stroke="url(#paint0_linear_0_593)"/>
<path d="M62.9334 82.672C60.4374 82.672 58.2774 82.256 56.4534 81.424C54.6614 80.56 53.2694 79.36 52.2774 77.824C51.2854 76.256 50.7894 74.416 50.7894 72.304H56.4534C56.4534 73.776 56.9654 75.04 57.9894 76.096C59.0454 77.152 60.6934 77.68 62.9334 77.68C65.2054 77.68 66.9494 77.088 68.1654 75.904C69.4134 74.688 70.0374 73.024 70.0374 70.912V67.168H69.2214C68.6454 67.904 67.7814 68.592 66.6294 69.232C65.4774 69.84 63.7814 70.144 61.5414 70.144C59.5894 70.144 57.7814 69.728 56.1174 68.896C54.4534 68.064 53.1094 66.848 52.0854 65.248C51.0934 63.648 50.5974 61.728 50.5974 59.488V58.912C50.5974 56.64 51.1254 54.672 52.1814 53.008C53.2374 51.344 54.7094 50.048 56.5974 49.12C58.4854 48.192 60.6774 47.728 63.1734 47.728C65.6694 47.728 67.8454 48.208 69.7014 49.168C71.5894 50.096 73.0454 51.408 74.0694 53.104C75.0934 54.8 75.6054 56.768 75.6054 59.008V70.576C75.6054 73.232 75.0614 75.456 73.9734 77.248C72.9174 79.04 71.4294 80.4 69.5094 81.328C67.6214 82.224 65.4294 82.672 62.9334 82.672ZM63.0774 65.68C64.5174 65.68 65.7494 65.424 66.7734 64.912C67.7974 64.368 68.5974 63.632 69.1734 62.704C69.7494 61.744 70.0374 60.624 70.0374 59.344V58.96C70.0374 57.04 69.4134 55.52 68.1654 54.4C66.9174 53.28 65.2214 52.72 63.0774 52.72C60.9654 52.72 59.2854 53.28 58.0374 54.4C56.7894 55.52 56.1654 57.04 56.1654 58.96V59.344C56.1654 60.624 56.4534 61.744 57.0294 62.704C57.6054 63.632 58.4054 64.368 59.4294 64.912C60.4854 65.424 61.7014 65.68 63.0774 65.68ZM91.5024 82.672C88.9104 82.672 86.6704 82.208 84.7824 81.28C82.9264 80.352 81.4864 79.04 80.4624 77.344C79.4384 75.648 78.9264 73.68 78.9264 71.44V70.96H84.5904V71.392C84.5904 73.216 85.1664 74.72 86.3184 75.904C87.5024 77.088 89.1984 77.68 91.4064 77.68C93.6144 77.68 95.3264 77.072 96.5424 75.856C97.7584 74.64 98.3664 73.04 98.3664 71.056V70.624C98.3664 68.672 97.7584 67.12 96.5424 65.968C95.3584 64.816 93.8544 64.24 92.0304 64.24C91.0064 64.24 90.1584 64.384 89.4864 64.672C88.8464 64.96 88.3184 65.328 87.9024 65.776C87.4864 66.192 87.1504 66.624 86.8944 67.072H79.9824V48.4H102.686V53.488H85.5504V62.512H86.3664C86.7184 62.032 87.1664 61.584 87.7104 61.168C88.2864 60.72 89.0224 60.352 89.9184 60.064C90.8464 59.744 91.9504 59.584 93.2304 59.584C95.2144 59.584 97.0064 60.016 98.6064 60.88C100.238 61.712 101.534 62.944 102.494 64.576C103.454 66.208 103.934 68.208 103.934 70.576V71.104C103.934 73.44 103.438 75.472 102.446 77.2C101.454 78.928 100.03 80.272 98.1744 81.232C96.3184 82.192 94.0944 82.672 91.5024 82.672ZM111.5 82.624L108.092 79.936L134.156 47.776L137.516 50.464L111.5 82.624ZM131.996 82.528C129.596 82.528 127.708 81.872 126.332 80.56C124.956 79.248 124.268 77.456 124.268 75.184V74.848C124.268 72.576 124.956 70.784 126.332 69.472C127.708 68.16 129.596 67.504 131.996 67.504C134.364 67.504 136.236 68.16 137.612 69.472C139.02 70.784 139.724 72.576 139.724 74.848V75.184C139.724 77.456 139.036 79.248 137.66 80.56C136.284 81.872 134.396 82.528 131.996 82.528ZM131.996 78.88C133.02 78.88 133.82 78.56 134.396 77.92C135.004 77.248 135.308 76.4 135.308 75.376V74.656C135.308 73.6 135.004 72.752 134.396 72.112C133.82 71.472 133.02 71.152 131.996 71.152C130.972 71.152 130.156 71.472 129.548 72.112C128.972 72.752 128.684 73.6 128.684 74.656V75.376C128.684 76.4 128.972 77.248 129.548 77.92C130.156 78.56 130.972 78.88 131.996 78.88ZM113.612 62.896C111.212 62.896 109.324 62.24 107.948 60.928C106.572 59.616 105.884 57.84 105.884 55.6V55.264C105.884 52.96 106.572 51.152 107.948 49.84C109.324 48.528 111.212 47.872 113.612 47.872C115.98 47.872 117.868 48.528 119.276 49.84C120.684 51.152 121.388 52.96 121.388 55.264V55.6C121.388 57.84 120.7 59.616 119.324 60.928C117.948 62.24 116.044 62.896 113.612 62.896ZM113.612 59.248C114.668 59.248 115.484 58.928 116.06 58.288C116.668 57.648 116.972 56.8 116.972 55.744V55.024C116.972 54 116.668 53.168 116.06 52.528C115.484 51.856 114.668 51.52 113.612 51.52C112.588 51.52 111.772 51.856 111.164 52.528C110.588 53.168 110.3 54 110.3 55.024V55.744C110.3 56.8 110.588 57.648 111.164 58.288C111.772 58.928 112.588 59.248 113.612 59.248Z" fill="white"/>
<path d="M159.393 82.42C157.793 82.42 156.373 82.14 155.133 81.58C153.913 81 152.953 80.17 152.253 79.09C151.553 78.01 151.203 76.69 151.203 75.13V74.35H154.773V75.13C154.773 76.51 155.193 77.54 156.033 78.22C156.873 78.9 157.993 79.24 159.393 79.24C160.813 79.24 161.883 78.95 162.603 78.37C163.323 77.79 163.683 77.04 163.683 76.12C163.683 75.5 163.513 75 163.173 74.62C162.833 74.22 162.333 73.9 161.673 73.66C161.033 73.42 160.253 73.19 159.333 72.97L158.433 72.79C157.053 72.47 155.853 72.07 154.833 71.59C153.833 71.09 153.063 70.45 152.523 69.67C151.983 68.89 151.713 67.87 151.713 66.61C151.713 65.35 152.013 64.27 152.613 63.37C153.213 62.47 154.063 61.78 155.163 61.3C156.263 60.82 157.553 60.58 159.033 60.58C160.513 60.58 161.833 60.83 162.993 61.33C164.153 61.83 165.063 62.58 165.723 63.58C166.403 64.58 166.743 65.83 166.743 67.33V68.32H163.173V67.33C163.173 66.47 163.003 65.78 162.663 65.26C162.323 64.74 161.843 64.36 161.223 64.12C160.603 63.88 159.873 63.76 159.033 63.76C157.793 63.76 156.853 64 156.213 64.48C155.573 64.96 155.253 65.64 155.253 66.52C155.253 67.08 155.393 67.56 155.673 67.96C155.973 68.34 156.403 68.66 156.963 68.92C157.543 69.16 158.263 69.37 159.123 69.55L160.023 69.76C161.463 70.08 162.723 70.49 163.803 70.99C164.883 71.47 165.723 72.11 166.323 72.91C166.943 73.71 167.253 74.75 167.253 76.03C167.253 77.29 166.923 78.4 166.263 79.36C165.623 80.32 164.713 81.07 163.533 81.61C162.373 82.15 160.993 82.42 159.393 82.42ZM174.075 82.42C173.035 82.42 172.095 82.24 171.255 81.88C170.415 81.5 169.745 80.96 169.245 80.26C168.765 79.56 168.525 78.7 168.525 77.68C168.525 76.68 168.765 75.84 169.245 75.16C169.745 74.48 170.425 73.97 171.285 73.63C172.145 73.27 173.125 73.09 174.225 73.09H178.515V72.19C178.515 71.41 178.275 70.78 177.795 70.3C177.315 69.8 176.565 69.55 175.545 69.55C174.545 69.55 173.785 69.79 173.265 70.27C172.765 70.73 172.435 71.33 172.275 72.07L169.095 71.02C169.335 70.24 169.715 69.53 170.235 68.89C170.775 68.25 171.485 67.74 172.365 67.36C173.245 66.96 174.325 66.76 175.605 66.76C177.545 66.76 179.065 67.25 180.165 68.23C181.285 69.19 181.845 70.59 181.845 72.43V78.25C181.845 78.85 182.125 79.15 182.685 79.15H183.945V82H181.515C180.795 82 180.205 81.82 179.745 81.46C179.285 81.1 179.055 80.61 179.055 79.99V79.93H178.545C178.425 80.21 178.215 80.55 177.915 80.95C177.615 81.35 177.155 81.7 176.535 82C175.935 82.28 175.115 82.42 174.075 82.42ZM174.645 79.6C175.785 79.6 176.715 79.28 177.435 78.64C178.155 77.98 178.515 77.1 178.515 76V75.7H174.435C173.695 75.7 173.095 75.86 172.635 76.18C172.175 76.5 171.945 76.97 171.945 77.59C171.945 78.19 172.185 78.68 172.665 79.06C173.145 79.42 173.805 79.6 174.645 79.6ZM190.335 82C189.375 82 188.605 81.72 188.025 81.16C187.465 80.58 187.185 79.8 187.185 78.82V70.03H183.315V67.18H187.185V62.41H190.635V67.18H194.895V70.03H190.635V78.25C190.635 78.85 190.915 79.15 191.475 79.15H194.445V82H190.335ZM197.355 82V67.18H200.805V82H197.355ZM199.065 65.29C198.445 65.29 197.905 65.09 197.445 64.69C197.005 64.27 196.785 63.72 196.785 63.04C196.785 62.36 197.005 61.82 197.445 61.42C197.905 61 198.445 60.79 199.065 60.79C199.725 60.79 200.265 61 200.685 61.42C201.125 61.82 201.345 62.36 201.345 63.04C201.345 63.72 201.125 64.27 200.685 64.69C200.265 65.09 199.725 65.29 199.065 65.29ZM210.248 82.42C208.328 82.42 206.748 82 205.508 81.16C204.268 80.32 203.518 79.09 203.258 77.47L206.438 76.66C206.578 77.42 206.828 78.02 207.188 78.46C207.548 78.9 207.988 79.21 208.508 79.39C209.048 79.57 209.628 79.66 210.248 79.66C211.188 79.66 211.888 79.49 212.348 79.15C212.828 78.81 213.068 78.38 213.068 77.86C213.068 77.32 212.838 76.92 212.378 76.66C211.938 76.4 211.258 76.18 210.338 76L209.408 75.85C208.388 75.65 207.458 75.38 206.618 75.04C205.778 74.68 205.098 74.2 204.578 73.6C204.078 72.98 203.828 72.2 203.828 71.26C203.828 69.82 204.358 68.71 205.418 67.93C206.498 67.15 207.908 66.76 209.648 66.76C211.308 66.76 212.678 67.13 213.758 67.87C214.838 68.61 215.538 69.6 215.858 70.84L212.678 71.8C212.518 70.96 212.168 70.37 211.628 70.03C211.088 69.67 210.428 69.49 209.648 69.49C208.848 69.49 208.228 69.63 207.788 69.91C207.368 70.19 207.158 70.59 207.158 71.11C207.158 71.63 207.378 72.02 207.818 72.28C208.258 72.54 208.848 72.73 209.588 72.85L210.518 73.03C211.618 73.23 212.608 73.49 213.488 73.81C214.388 74.13 215.098 74.59 215.618 75.19C216.138 75.79 216.398 76.6 216.398 77.62C216.398 79.16 215.838 80.35 214.718 81.19C213.618 82.01 212.128 82.42 210.248 82.42ZM221.126 82V70.03H217.166V67.18H221.126V64.18C221.126 63.2 221.406 62.43 221.966 61.87C222.546 61.29 223.306 61 224.246 61H228.086V63.85H225.386C224.826 63.85 224.546 64.15 224.546 64.75V67.18H228.626V70.03H224.546V82H221.126ZM234.948 82.42C233.908 82.42 232.968 82.24 232.128 81.88C231.288 81.5 230.618 80.96 230.118 80.26C229.638 79.56 229.398 78.7 229.398 77.68C229.398 76.68 229.638 75.84 230.118 75.16C230.618 74.48 231.298 73.97 232.158 73.63C233.018 73.27 233.998 73.09 235.098 73.09H239.388V72.19C239.388 71.41 239.148 70.78 238.668 70.3C238.188 69.8 237.438 69.55 236.418 69.55C235.418 69.55 234.658 69.79 234.138 70.27C233.638 70.73 233.308 71.33 233.148 72.07L229.968 71.02C230.208 70.24 230.588 69.53 231.108 68.89C231.648 68.25 232.358 67.74 233.238 67.36C234.118 66.96 235.198 66.76 236.478 66.76C238.418 66.76 239.938 67.25 241.038 68.23C242.158 69.19 242.718 70.59 242.718 72.43V78.25C242.718 78.85 242.998 79.15 243.558 79.15H244.818V82H242.388C241.668 82 241.078 81.82 240.618 81.46C240.158 81.1 239.928 80.61 239.928 79.99V79.93H239.418C239.298 80.21 239.088 80.55 238.788 80.95C238.488 81.35 238.028 81.7 237.408 82C236.808 82.28 235.988 82.42 234.948 82.42ZM235.518 79.6C236.658 79.6 237.588 79.28 238.308 78.64C239.028 77.98 239.388 77.1 239.388 76V75.7H235.308C234.568 75.7 233.968 75.86 233.508 76.18C233.048 76.5 232.818 76.97 232.818 77.59C232.818 78.19 233.058 78.68 233.538 79.06C234.018 79.42 234.678 79.6 235.518 79.6ZM253.23 82.42C251.79 82.42 250.49 82.12 249.33 81.52C248.17 80.92 247.25 80.05 246.57 78.91C245.91 77.77 245.58 76.4 245.58 74.8V74.38C245.58 72.78 245.91 71.41 246.57 70.27C247.25 69.13 248.17 68.26 249.33 67.66C250.49 67.06 251.79 66.76 253.23 66.76C254.65 66.76 255.86 67.01 256.86 67.51C257.88 68.01 258.7 68.7 259.32 69.58C259.94 70.44 260.34 71.41 260.52 72.49L257.19 73.18C257.11 72.56 256.92 72 256.62 71.5C256.32 70.98 255.89 70.57 255.33 70.27C254.79 69.97 254.12 69.82 253.32 69.82C252.5 69.82 251.76 70 251.1 70.36C250.46 70.7 249.95 71.22 249.57 71.92C249.21 72.62 249.03 73.46 249.03 74.44V74.74C249.03 75.72 249.21 76.56 249.57 77.26C249.95 77.94 250.46 78.46 251.1 78.82C251.76 79.18 252.5 79.36 253.32 79.36C254.54 79.36 255.46 79.05 256.08 78.43C256.72 77.79 257.12 76.97 257.28 75.97L260.61 76.75C260.37 77.79 259.94 78.74 259.32 79.6C258.7 80.46 257.88 81.15 256.86 81.67C255.86 82.17 254.65 82.42 253.23 82.42ZM268.058 82C267.098 82 266.328 81.72 265.748 81.16C265.188 80.58 264.908 79.8 264.908 78.82V70.03H261.038V67.18H264.908V62.41H268.358V67.18H272.618V70.03H268.358V78.25C268.358 78.85 268.638 79.15 269.198 79.15H272.168V82H268.058ZM275.079 82V67.18H278.529V82H275.079ZM276.789 65.29C276.169 65.29 275.629 65.09 275.169 64.69C274.729 64.27 274.509 63.72 274.509 63.04C274.509 62.36 274.729 61.82 275.169 61.42C275.629 61 276.169 60.79 276.789 60.79C277.449 60.79 277.989 61 278.409 61.42C278.849 61.82 279.069 62.36 279.069 63.04C279.069 63.72 278.849 64.27 278.409 64.69C277.989 65.09 277.449 65.29 276.789 65.29ZM288.871 82.42C287.391 82.42 286.061 82.12 284.881 81.52C283.721 80.9 282.801 80.03 282.121 78.91C281.461 77.77 281.131 76.41 281.131 74.83V74.35C281.131 72.77 281.461 71.41 282.121 70.27C282.801 69.13 283.721 68.26 284.881 67.66C286.061 67.06 287.391 66.76 288.871 66.76C290.351 66.76 291.671 67.06 292.831 67.66C293.991 68.26 294.901 69.13 295.561 70.27C296.241 71.41 296.581 72.77 296.581 74.35V74.83C296.581 76.41 296.241 77.77 295.561 78.91C294.901 80.03 293.991 80.9 292.831 81.52C291.671 82.12 290.351 82.42 288.871 82.42ZM288.871 79.36C290.131 79.36 291.161 78.96 291.961 78.16C292.761 77.34 293.161 76.2 293.161 74.74V74.44C293.161 72.98 292.761 71.85 291.961 71.05C291.161 70.23 290.131 69.82 288.871 69.82C287.611 69.82 286.581 70.23 285.781 71.05C284.981 71.85 284.581 72.98 284.581 74.44V74.74C284.581 76.2 284.981 77.34 285.781 78.16C286.581 78.96 287.611 79.36 288.871 79.36ZM299.2 82V67.18H302.59V69.25H303.1C303.36 68.69 303.83 68.16 304.51 67.66C305.19 67.16 306.22 66.91 307.6 66.91C308.74 66.91 309.75 67.17 310.63 67.69C311.51 68.21 312.19 68.93 312.67 69.85C313.17 70.77 313.42 71.86 313.42 73.12V82H309.97V73.39C309.97 72.19 309.67 71.3 309.07 70.72C308.49 70.12 307.66 69.82 306.58 69.82C305.36 69.82 304.4 70.23 303.7 71.05C303 71.85 302.65 73 302.65 74.5V82H299.2Z" fill="#F1F1F1"/>
<path d="M72.0172 125.203H76.5436C77.5162 125.203 78.3453 125.35 79.0309 125.643C79.7164 125.936 80.2408 126.369 80.6041 126.943C80.9732 127.512 81.1578 128.215 81.1578 129.053C81.1578 129.691 81.0406 130.254 80.8063 130.74C80.5719 131.227 80.2408 131.637 79.8131 131.971C79.3854 132.299 78.8756 132.554 78.2838 132.735L77.6158 133.061H73.5465L73.5289 131.312H76.5787C77.1061 131.312 77.5455 131.218 77.8971 131.03C78.2486 130.843 78.5123 130.588 78.6881 130.266C78.8697 129.938 78.9605 129.568 78.9605 129.158C78.9605 128.713 78.8727 128.326 78.6969 127.998C78.527 127.664 78.2633 127.409 77.9059 127.233C77.5484 127.052 77.0943 126.961 76.5436 126.961H74.2232V138H72.0172V125.203ZM79.3209 138L76.315 132.252L78.6266 132.243L81.6764 137.886V138H79.3209ZM88.0555 136.093V131.558C88.0555 131.218 87.9939 130.925 87.8709 130.679C87.7479 130.433 87.5604 130.242 87.3084 130.107C87.0623 129.973 86.7518 129.905 86.3768 129.905C86.0311 129.905 85.7322 129.964 85.4803 130.081C85.2283 130.198 85.032 130.356 84.8914 130.556C84.7508 130.755 84.6805 130.98 84.6805 131.232H82.5711C82.5711 130.857 82.6619 130.494 82.8436 130.143C83.0252 129.791 83.2889 129.478 83.6346 129.202C83.9803 128.927 84.3934 128.71 84.8738 128.552C85.3543 128.394 85.8934 128.314 86.491 128.314C87.2059 128.314 87.8387 128.435 88.3895 128.675C88.9461 128.915 89.3826 129.278 89.699 129.765C90.0213 130.245 90.1824 130.849 90.1824 131.575V135.803C90.1824 136.236 90.2117 136.626 90.2703 136.972C90.3348 137.312 90.4256 137.607 90.5428 137.859V138H88.3719C88.2723 137.771 88.1932 137.481 88.1346 137.13C88.0818 136.772 88.0555 136.427 88.0555 136.093ZM88.3631 132.217L88.3807 133.526H86.8602C86.4676 133.526 86.1219 133.564 85.823 133.641C85.5242 133.711 85.2752 133.816 85.076 133.957C84.8768 134.098 84.7273 134.268 84.6277 134.467C84.5281 134.666 84.4783 134.892 84.4783 135.144C84.4783 135.396 84.5369 135.627 84.6541 135.838C84.7713 136.043 84.9412 136.204 85.1639 136.321C85.3924 136.438 85.6678 136.497 85.99 136.497C86.4236 136.497 86.8016 136.409 87.1238 136.233C87.452 136.052 87.7098 135.832 87.8973 135.574C88.0848 135.311 88.1844 135.062 88.1961 134.827L88.8816 135.768C88.8113 136.008 88.6912 136.266 88.5213 136.541C88.3514 136.816 88.1287 137.08 87.8533 137.332C87.5838 137.578 87.2586 137.78 86.8777 137.938C86.5027 138.097 86.0691 138.176 85.577 138.176C84.9559 138.176 84.4022 138.053 83.9158 137.807C83.4295 137.555 83.0486 137.218 82.7732 136.796C82.4979 136.368 82.3602 135.885 82.3602 135.346C82.3602 134.842 82.4539 134.396 82.6414 134.01C82.8348 133.617 83.116 133.289 83.4852 133.025C83.8602 132.762 84.3172 132.562 84.8563 132.428C85.3953 132.287 86.0105 132.217 86.702 132.217H88.3631ZM96.3066 128.49V130.037H90.9453V128.49H96.3066ZM92.4922 126.161H94.6104V135.372C94.6104 135.665 94.6514 135.891 94.7334 136.049C94.8213 136.201 94.9414 136.304 95.0938 136.356C95.2461 136.409 95.4248 136.436 95.6299 136.436C95.7764 136.436 95.917 136.427 96.0518 136.409C96.1865 136.392 96.2949 136.374 96.377 136.356L96.3857 137.974C96.21 138.026 96.0049 138.073 95.7705 138.114C95.542 138.155 95.2783 138.176 94.9795 138.176C94.4932 138.176 94.0625 138.091 93.6875 137.921C93.3125 137.745 93.0195 137.461 92.8086 137.068C92.5977 136.676 92.4922 136.154 92.4922 135.504V126.161ZM101.684 138.176C100.981 138.176 100.345 138.062 99.7766 137.833C99.2141 137.599 98.7336 137.273 98.3352 136.857C97.9426 136.441 97.6408 135.952 97.4299 135.39C97.2189 134.827 97.1135 134.221 97.1135 133.57V133.219C97.1135 132.475 97.2219 131.801 97.4387 131.197C97.6555 130.594 97.9572 130.078 98.3439 129.65C98.7307 129.217 99.1877 128.886 99.715 128.657C100.242 128.429 100.814 128.314 101.429 128.314C102.109 128.314 102.703 128.429 103.213 128.657C103.723 128.886 104.145 129.208 104.479 129.624C104.819 130.034 105.071 130.523 105.235 131.092C105.404 131.66 105.489 132.287 105.489 132.973V133.878H98.1418V132.357H103.398V132.19C103.386 131.81 103.31 131.452 103.169 131.118C103.034 130.784 102.826 130.515 102.545 130.31C102.264 130.104 101.889 130.002 101.42 130.002C101.069 130.002 100.755 130.078 100.48 130.23C100.21 130.377 99.9846 130.591 99.8029 130.872C99.6213 131.153 99.4807 131.493 99.3811 131.892C99.2873 132.284 99.2404 132.727 99.2404 133.219V133.57C99.2404 133.986 99.2961 134.373 99.4074 134.73C99.5246 135.082 99.6945 135.39 99.9172 135.653C100.14 135.917 100.409 136.125 100.726 136.277C101.042 136.424 101.403 136.497 101.807 136.497C102.317 136.497 102.771 136.395 103.169 136.189C103.568 135.984 103.913 135.694 104.206 135.319L105.322 136.4C105.117 136.699 104.851 136.986 104.523 137.262C104.195 137.531 103.793 137.751 103.319 137.921C102.85 138.091 102.305 138.176 101.684 138.176ZM110.32 133.351V133.148C110.32 132.463 110.42 131.827 110.619 131.241C110.818 130.649 111.105 130.137 111.48 129.703C111.861 129.264 112.324 128.924 112.869 128.684C113.42 128.438 114.041 128.314 114.732 128.314C115.429 128.314 116.05 128.438 116.595 128.684C117.146 128.924 117.612 129.264 117.993 129.703C118.374 130.137 118.664 130.649 118.863 131.241C119.062 131.827 119.162 132.463 119.162 133.148V133.351C119.162 134.036 119.062 134.672 118.863 135.258C118.664 135.844 118.374 136.356 117.993 136.796C117.612 137.229 117.149 137.569 116.604 137.815C116.059 138.056 115.441 138.176 114.75 138.176C114.052 138.176 113.428 138.056 112.878 137.815C112.333 137.569 111.87 137.229 111.489 136.796C111.108 136.356 110.818 135.844 110.619 135.258C110.42 134.672 110.32 134.036 110.32 133.351ZM112.438 133.148V133.351C112.438 133.778 112.482 134.183 112.57 134.563C112.658 134.944 112.796 135.278 112.983 135.565C113.171 135.853 113.411 136.078 113.704 136.242C113.997 136.406 114.345 136.488 114.75 136.488C115.142 136.488 115.482 136.406 115.769 136.242C116.062 136.078 116.302 135.853 116.49 135.565C116.677 135.278 116.815 134.944 116.903 134.563C116.997 134.183 117.044 133.778 117.044 133.351V133.148C117.044 132.727 116.997 132.328 116.903 131.953C116.815 131.572 116.674 131.235 116.481 130.942C116.294 130.649 116.053 130.421 115.76 130.257C115.473 130.087 115.13 130.002 114.732 130.002C114.334 130.002 113.988 130.087 113.695 130.257C113.408 130.421 113.171 130.649 112.983 130.942C112.796 131.235 112.658 131.572 112.57 131.953C112.482 132.328 112.438 132.727 112.438 133.148ZM126.209 135.759V128.49H128.336V138H126.332L126.209 135.759ZM126.508 133.781L127.22 133.764C127.22 134.402 127.149 134.991 127.009 135.53C126.868 136.063 126.651 136.529 126.358 136.928C126.065 137.32 125.69 137.628 125.233 137.851C124.776 138.067 124.228 138.176 123.59 138.176C123.127 138.176 122.702 138.108 122.315 137.974C121.929 137.839 121.595 137.631 121.313 137.35C121.038 137.068 120.824 136.702 120.672 136.251C120.519 135.8 120.443 135.261 120.443 134.634V128.49H122.561V134.651C122.561 134.997 122.602 135.287 122.684 135.521C122.766 135.75 122.878 135.935 123.018 136.075C123.159 136.216 123.323 136.315 123.511 136.374C123.698 136.433 123.897 136.462 124.108 136.462C124.712 136.462 125.186 136.345 125.532 136.11C125.884 135.87 126.133 135.548 126.279 135.144C126.431 134.739 126.508 134.285 126.508 133.781ZM132.184 130.301V138H130.065V128.49H132.087L132.184 130.301ZM135.093 128.429L135.075 130.397C134.946 130.374 134.806 130.356 134.653 130.345C134.507 130.333 134.36 130.327 134.214 130.327C133.851 130.327 133.531 130.38 133.256 130.485C132.98 130.585 132.749 130.731 132.562 130.925C132.38 131.112 132.239 131.341 132.14 131.61C132.04 131.88 131.981 132.182 131.964 132.516L131.48 132.551C131.48 131.953 131.539 131.399 131.656 130.89C131.773 130.38 131.949 129.932 132.184 129.545C132.424 129.158 132.723 128.856 133.08 128.64C133.443 128.423 133.862 128.314 134.337 128.314C134.466 128.314 134.604 128.326 134.75 128.35C134.902 128.373 135.017 128.399 135.093 128.429ZM145.337 135.425C145.337 135.214 145.285 135.023 145.179 134.854C145.074 134.678 144.871 134.52 144.573 134.379C144.28 134.238 143.846 134.109 143.272 133.992C142.768 133.881 142.305 133.749 141.883 133.597C141.467 133.438 141.11 133.248 140.811 133.025C140.512 132.803 140.281 132.539 140.117 132.234C139.953 131.93 139.871 131.578 139.871 131.18C139.871 130.793 139.955 130.427 140.125 130.081C140.295 129.735 140.538 129.431 140.855 129.167C141.171 128.903 141.555 128.695 142.006 128.543C142.463 128.391 142.973 128.314 143.536 128.314C144.332 128.314 145.015 128.449 145.583 128.719C146.158 128.982 146.597 129.343 146.902 129.8C147.206 130.251 147.359 130.761 147.359 131.329H145.241C145.241 131.077 145.176 130.843 145.047 130.626C144.924 130.403 144.737 130.225 144.485 130.09C144.233 129.949 143.916 129.879 143.536 129.879C143.172 129.879 142.871 129.938 142.63 130.055C142.396 130.166 142.22 130.312 142.103 130.494C141.992 130.676 141.936 130.875 141.936 131.092C141.936 131.25 141.965 131.394 142.024 131.522C142.088 131.646 142.194 131.76 142.34 131.865C142.487 131.965 142.686 132.059 142.938 132.146C143.196 132.234 143.518 132.319 143.905 132.401C144.631 132.554 145.255 132.75 145.777 132.99C146.304 133.225 146.708 133.529 146.99 133.904C147.271 134.273 147.412 134.742 147.412 135.311C147.412 135.732 147.321 136.119 147.139 136.471C146.963 136.816 146.705 137.118 146.366 137.376C146.026 137.628 145.619 137.824 145.144 137.965C144.675 138.105 144.148 138.176 143.562 138.176C142.701 138.176 141.971 138.023 141.373 137.719C140.776 137.408 140.322 137.013 140.011 136.532C139.706 136.046 139.554 135.542 139.554 135.021H141.602C141.625 135.413 141.734 135.727 141.927 135.961C142.126 136.189 142.372 136.356 142.665 136.462C142.964 136.562 143.272 136.611 143.588 136.611C143.969 136.611 144.288 136.562 144.546 136.462C144.804 136.356 145 136.216 145.135 136.04C145.27 135.858 145.337 135.653 145.337 135.425ZM153.008 138.176C152.305 138.176 151.67 138.062 151.101 137.833C150.539 137.599 150.058 137.273 149.66 136.857C149.267 136.441 148.965 135.952 148.754 135.39C148.544 134.827 148.438 134.221 148.438 133.57V133.219C148.438 132.475 148.546 131.801 148.763 131.197C148.98 130.594 149.282 130.078 149.669 129.65C150.055 129.217 150.512 128.886 151.04 128.657C151.567 128.429 152.138 128.314 152.754 128.314C153.433 128.314 154.028 128.429 154.538 128.657C155.047 128.886 155.469 129.208 155.803 129.624C156.143 130.034 156.395 130.523 156.559 131.092C156.729 131.66 156.814 132.287 156.814 132.973V133.878H149.466V132.357H154.722V132.19C154.711 131.81 154.634 131.452 154.494 131.118C154.359 130.784 154.151 130.515 153.87 130.31C153.588 130.104 153.213 130.002 152.745 130.002C152.393 130.002 152.08 130.078 151.804 130.23C151.535 130.377 151.309 130.591 151.128 130.872C150.946 131.153 150.805 131.493 150.706 131.892C150.612 132.284 150.565 132.727 150.565 133.219V133.57C150.565 133.986 150.621 134.373 150.732 134.73C150.849 135.082 151.019 135.39 151.242 135.653C151.464 135.917 151.734 136.125 152.05 136.277C152.367 136.424 152.727 136.497 153.131 136.497C153.641 136.497 154.095 136.395 154.494 136.189C154.892 135.984 155.238 135.694 155.531 135.319L156.647 136.4C156.442 136.699 156.175 136.986 155.847 137.262C155.519 137.531 155.118 137.751 154.643 137.921C154.174 138.091 153.629 138.176 153.008 138.176ZM160.143 130.301V138H158.025V128.49H160.047L160.143 130.301ZM163.053 128.429L163.035 130.397C162.906 130.374 162.765 130.356 162.613 130.345C162.467 130.333 162.32 130.327 162.174 130.327C161.81 130.327 161.491 130.38 161.216 130.485C160.94 130.585 160.709 130.731 160.521 130.925C160.34 131.112 160.199 131.341 160.099 131.61C160 131.88 159.941 132.182 159.924 132.516L159.44 132.551C159.44 131.953 159.499 131.399 159.616 130.89C159.733 130.38 159.909 129.932 160.143 129.545C160.384 129.158 160.682 128.856 161.04 128.64C161.403 128.423 161.822 128.314 162.297 128.314C162.426 128.314 162.563 128.326 162.71 128.35C162.862 128.373 162.976 128.399 163.053 128.429ZM167.182 136.321L169.511 128.49H171.708L168.403 138H167.032L167.182 136.321ZM165.397 128.49L167.771 136.356L167.885 138H166.514L163.191 128.49H165.397ZM174.835 128.49V138H172.708V128.49H174.835ZM172.568 125.994C172.568 125.672 172.673 125.405 172.884 125.194C173.101 124.978 173.4 124.869 173.78 124.869C174.155 124.869 174.451 124.978 174.668 125.194C174.885 125.405 174.993 125.672 174.993 125.994C174.993 126.311 174.885 126.574 174.668 126.785C174.451 126.996 174.155 127.102 173.78 127.102C173.4 127.102 173.101 126.996 172.884 126.785C172.673 126.574 172.568 126.311 172.568 125.994ZM180.59 136.488C180.936 136.488 181.246 136.421 181.522 136.286C181.803 136.146 182.029 135.952 182.199 135.706C182.374 135.46 182.471 135.176 182.489 134.854H184.484C184.472 135.469 184.29 136.028 183.939 136.532C183.587 137.036 183.121 137.438 182.541 137.736C181.961 138.029 181.32 138.176 180.617 138.176C179.89 138.176 179.257 138.053 178.718 137.807C178.179 137.555 177.731 137.209 177.373 136.77C177.016 136.33 176.746 135.823 176.565 135.249C176.389 134.675 176.301 134.06 176.301 133.403V133.096C176.301 132.439 176.389 131.824 176.565 131.25C176.746 130.67 177.016 130.16 177.373 129.721C177.731 129.281 178.179 128.938 178.718 128.692C179.257 128.44 179.887 128.314 180.608 128.314C181.37 128.314 182.037 128.467 182.612 128.771C183.186 129.07 183.637 129.489 183.965 130.028C184.299 130.562 184.472 131.183 184.484 131.892H182.489C182.471 131.54 182.383 131.224 182.225 130.942C182.073 130.655 181.856 130.427 181.575 130.257C181.299 130.087 180.968 130.002 180.581 130.002C180.154 130.002 179.799 130.09 179.518 130.266C179.237 130.436 179.017 130.67 178.859 130.969C178.701 131.262 178.586 131.593 178.516 131.962C178.452 132.325 178.419 132.703 178.419 133.096V133.403C178.419 133.796 178.452 134.177 178.516 134.546C178.58 134.915 178.692 135.246 178.85 135.539C179.014 135.826 179.237 136.058 179.518 136.233C179.799 136.403 180.157 136.488 180.59 136.488ZM189.852 138.176C189.149 138.176 188.513 138.062 187.945 137.833C187.382 137.599 186.902 137.273 186.504 136.857C186.111 136.441 185.809 135.952 185.598 135.39C185.387 134.827 185.282 134.221 185.282 133.57V133.219C185.282 132.475 185.39 131.801 185.607 131.197C185.824 130.594 186.126 130.078 186.512 129.65C186.899 129.217 187.356 128.886 187.883 128.657C188.411 128.429 188.982 128.314 189.597 128.314C190.277 128.314 190.872 128.429 191.381 128.657C191.891 128.886 192.313 129.208 192.647 129.624C192.987 130.034 193.239 130.523 193.403 131.092C193.573 131.66 193.658 132.287 193.658 132.973V133.878H186.31V132.357H191.566V132.19C191.554 131.81 191.478 131.452 191.338 131.118C191.203 130.784 190.995 130.515 190.713 130.31C190.432 130.104 190.057 130.002 189.588 130.002C189.237 130.002 188.923 130.078 188.648 130.23C188.379 130.377 188.153 130.591 187.971 130.872C187.79 131.153 187.649 131.493 187.549 131.892C187.456 132.284 187.409 132.727 187.409 133.219V133.57C187.409 133.986 187.464 134.373 187.576 134.73C187.693 135.082 187.863 135.39 188.086 135.653C188.308 135.917 188.578 136.125 188.894 136.277C189.211 136.424 189.571 136.497 189.975 136.497C190.485 136.497 190.939 136.395 191.338 136.189C191.736 135.984 192.082 135.694 192.375 135.319L193.491 136.4C193.286 136.699 193.019 136.986 192.691 137.262C192.363 137.531 191.962 137.751 191.487 137.921C191.018 138.091 190.473 138.176 189.852 138.176ZM204.254 136.093V131.558C204.254 131.218 204.192 130.925 204.069 130.679C203.946 130.433 203.759 130.242 203.507 130.107C203.261 129.973 202.95 129.905 202.575 129.905C202.229 129.905 201.931 129.964 201.679 130.081C201.427 130.198 201.23 130.356 201.09 130.556C200.949 130.755 200.879 130.98 200.879 131.232H198.77C198.77 130.857 198.86 130.494 199.042 130.143C199.224 129.791 199.487 129.478 199.833 129.202C200.179 128.927 200.592 128.71 201.072 128.552C201.553 128.394 202.092 128.314 202.689 128.314C203.404 128.314 204.037 128.435 204.588 128.675C205.145 128.915 205.581 129.278 205.897 129.765C206.22 130.245 206.381 130.849 206.381 131.575V135.803C206.381 136.236 206.41 136.626 206.469 136.972C206.533 137.312 206.624 137.607 206.741 137.859V138H204.57C204.471 137.771 204.392 137.481 204.333 137.13C204.28 136.772 204.254 136.427 204.254 136.093ZM204.562 132.217L204.579 133.526H203.059C202.666 133.526 202.32 133.564 202.021 133.641C201.723 133.711 201.474 133.816 201.274 133.957C201.075 134.098 200.926 134.268 200.826 134.467C200.727 134.666 200.677 134.892 200.677 135.144C200.677 135.396 200.735 135.627 200.853 135.838C200.97 136.043 201.14 136.204 201.362 136.321C201.591 136.438 201.866 136.497 202.188 136.497C202.622 136.497 203 136.409 203.322 136.233C203.65 136.052 203.908 135.832 204.096 135.574C204.283 135.311 204.383 135.062 204.395 134.827L205.08 135.768C205.01 136.008 204.89 136.266 204.72 136.541C204.55 136.816 204.327 137.08 204.052 137.332C203.782 137.578 203.457 137.78 203.076 137.938C202.701 138.097 202.268 138.176 201.775 138.176C201.154 138.176 200.601 138.053 200.114 137.807C199.628 137.555 199.247 137.218 198.972 136.796C198.696 136.368 198.559 135.885 198.559 135.346C198.559 134.842 198.652 134.396 198.84 134.01C199.033 133.617 199.314 133.289 199.684 133.025C200.059 132.762 200.516 132.562 201.055 132.428C201.594 132.287 202.209 132.217 202.9 132.217H204.562ZM213.481 135.425C213.481 135.214 213.428 135.023 213.322 134.854C213.217 134.678 213.015 134.52 212.716 134.379C212.423 134.238 211.989 134.109 211.415 133.992C210.911 133.881 210.448 133.749 210.027 133.597C209.611 133.438 209.253 133.248 208.954 133.025C208.655 132.803 208.424 132.539 208.26 132.234C208.096 131.93 208.014 131.578 208.014 131.18C208.014 130.793 208.099 130.427 208.269 130.081C208.439 129.735 208.682 129.431 208.998 129.167C209.315 128.903 209.698 128.695 210.15 128.543C210.607 128.391 211.116 128.314 211.679 128.314C212.476 128.314 213.158 128.449 213.727 128.719C214.301 128.982 214.74 129.343 215.045 129.8C215.35 130.251 215.502 130.761 215.502 131.329H213.384C213.384 131.077 213.32 130.843 213.191 130.626C213.068 130.403 212.88 130.225 212.628 130.09C212.376 129.949 212.06 129.879 211.679 129.879C211.316 129.879 211.014 129.938 210.774 130.055C210.539 130.166 210.363 130.312 210.246 130.494C210.135 130.676 210.079 130.875 210.079 131.092C210.079 131.25 210.109 131.394 210.167 131.522C210.232 131.646 210.337 131.76 210.484 131.865C210.63 131.965 210.829 132.059 211.081 132.146C211.339 132.234 211.661 132.319 212.048 132.401C212.775 132.554 213.399 132.75 213.92 132.99C214.447 133.225 214.852 133.529 215.133 133.904C215.414 134.273 215.555 134.742 215.555 135.311C215.555 135.732 215.464 136.119 215.282 136.471C215.107 136.816 214.849 137.118 214.509 137.376C214.169 137.628 213.762 137.824 213.287 137.965C212.819 138.105 212.291 138.176 211.705 138.176C210.844 138.176 210.114 138.023 209.517 137.719C208.919 137.408 208.465 137.013 208.154 136.532C207.85 136.046 207.697 135.542 207.697 135.021H209.745C209.769 135.413 209.877 135.727 210.07 135.961C210.27 136.189 210.516 136.356 210.809 136.462C211.108 136.562 211.415 136.611 211.732 136.611C212.112 136.611 212.432 136.562 212.69 136.462C212.947 136.356 213.144 136.216 213.279 136.04C213.413 135.858 213.481 135.653 213.481 135.425ZM225.184 138.176C224.481 138.176 223.845 138.062 223.277 137.833C222.714 137.599 222.234 137.273 221.836 136.857C221.443 136.441 221.141 135.952 220.93 135.39C220.719 134.827 220.614 134.221 220.614 133.57V133.219C220.614 132.475 220.722 131.801 220.939 131.197C221.156 130.594 221.458 130.078 221.844 129.65C222.231 129.217 222.688 128.886 223.215 128.657C223.743 128.429 224.314 128.314 224.929 128.314C225.609 128.314 226.204 128.429 226.713 128.657C227.223 128.886 227.645 129.208 227.979 129.624C228.319 130.034 228.571 130.523 228.735 131.092C228.905 131.66 228.99 132.287 228.99 132.973V133.878H221.642V132.357H226.898V132.19C226.886 131.81 226.81 131.452 226.67 131.118C226.535 130.784 226.327 130.515 226.046 130.31C225.764 130.104 225.389 130.002 224.921 130.002C224.569 130.002 224.255 130.078 223.98 130.23C223.711 130.377 223.485 130.591 223.303 130.872C223.122 131.153 222.981 131.493 222.881 131.892C222.788 132.284 222.741 132.727 222.741 133.219V133.57C222.741 133.986 222.796 134.373 222.908 134.73C223.025 135.082 223.195 135.39 223.418 135.653C223.64 135.917 223.91 136.125 224.226 136.277C224.543 136.424 224.903 136.497 225.307 136.497C225.817 136.497 226.271 136.395 226.67 136.189C227.068 135.984 227.414 135.694 227.707 135.319L228.823 136.4C228.618 136.699 228.351 136.986 228.023 137.262C227.695 137.531 227.294 137.751 226.819 137.921C226.35 138.091 225.805 138.176 225.184 138.176ZM231.809 128.49L233.62 131.646L235.466 128.49H237.795L234.912 133.157L237.909 138H235.58L233.646 134.713L231.713 138H229.375L232.363 133.157L229.489 128.49H231.809ZM242.504 136.488C242.85 136.488 243.16 136.421 243.436 136.286C243.717 136.146 243.942 135.952 244.112 135.706C244.288 135.46 244.385 135.176 244.402 134.854H246.397C246.386 135.469 246.204 136.028 245.853 136.532C245.501 137.036 245.035 137.438 244.455 137.736C243.875 138.029 243.233 138.176 242.53 138.176C241.804 138.176 241.171 138.053 240.632 137.807C240.093 137.555 239.645 137.209 239.287 136.77C238.93 136.33 238.66 135.823 238.479 135.249C238.303 134.675 238.215 134.06 238.215 133.403V133.096C238.215 132.439 238.303 131.824 238.479 131.25C238.66 130.67 238.93 130.16 239.287 129.721C239.645 129.281 240.093 128.938 240.632 128.692C241.171 128.44 241.801 128.314 242.521 128.314C243.283 128.314 243.951 128.467 244.525 128.771C245.1 129.07 245.551 129.489 245.879 130.028C246.213 130.562 246.386 131.183 246.397 131.892H244.402C244.385 131.54 244.297 131.224 244.139 130.942C243.986 130.655 243.77 130.427 243.488 130.257C243.213 130.087 242.882 130.002 242.495 130.002C242.067 130.002 241.713 130.09 241.432 130.266C241.15 130.436 240.931 130.67 240.772 130.969C240.614 131.262 240.5 131.593 240.43 131.962C240.365 132.325 240.333 132.703 240.333 133.096V133.403C240.333 133.796 240.365 134.177 240.43 134.546C240.494 134.915 240.605 135.246 240.764 135.539C240.928 135.826 241.15 136.058 241.432 136.233C241.713 136.403 242.07 136.488 242.504 136.488ZM251.766 138.176C251.063 138.176 250.427 138.062 249.859 137.833C249.296 137.599 248.816 137.273 248.417 136.857C248.025 136.441 247.723 135.952 247.512 135.39C247.301 134.827 247.195 134.221 247.195 133.57V133.219C247.195 132.475 247.304 131.801 247.521 131.197C247.737 130.594 248.039 130.078 248.426 129.65C248.813 129.217 249.27 128.886 249.797 128.657C250.324 128.429 250.896 128.314 251.511 128.314C252.191 128.314 252.785 128.429 253.295 128.657C253.805 128.886 254.227 129.208 254.561 129.624C254.901 130.034 255.153 130.523 255.317 131.092C255.487 131.66 255.571 132.287 255.571 132.973V133.878H248.224V132.357H253.48V132.19C253.468 131.81 253.392 131.452 253.251 131.118C253.116 130.784 252.908 130.515 252.627 130.31C252.346 130.104 251.971 130.002 251.502 130.002C251.151 130.002 250.837 130.078 250.562 130.23C250.292 130.377 250.067 130.591 249.885 130.872C249.703 131.153 249.563 131.493 249.463 131.892C249.369 132.284 249.322 132.727 249.322 133.219V133.57C249.322 133.986 249.378 134.373 249.489 134.73C249.607 135.082 249.777 135.39 249.999 135.653C250.222 135.917 250.491 136.125 250.808 136.277C251.124 136.424 251.485 136.497 251.889 136.497C252.399 136.497 252.853 136.395 253.251 136.189C253.65 135.984 253.995 135.694 254.288 135.319L255.404 136.4C255.199 136.699 254.933 136.986 254.605 137.262C254.277 137.531 253.875 137.751 253.401 137.921C252.932 138.091 252.387 138.176 251.766 138.176ZM259.041 124.5V138H256.914V124.5H259.041ZM263.179 124.5V138H261.052V124.5H263.179ZM269.242 138.176C268.539 138.176 267.903 138.062 267.335 137.833C266.772 137.599 266.292 137.273 265.893 136.857C265.501 136.441 265.199 135.952 264.988 135.39C264.777 134.827 264.672 134.221 264.672 133.57V133.219C264.672 132.475 264.78 131.801 264.997 131.197C265.214 130.594 265.515 130.078 265.902 129.65C266.289 129.217 266.746 128.886 267.273 128.657C267.801 128.429 268.372 128.314 268.987 128.314C269.667 128.314 270.262 128.429 270.771 128.657C271.281 128.886 271.703 129.208 272.037 129.624C272.377 130.034 272.629 130.523 272.793 131.092C272.963 131.66 273.048 132.287 273.048 132.973V133.878H265.7V132.357H270.956V132.19C270.944 131.81 270.868 131.452 270.727 131.118C270.593 130.784 270.385 130.515 270.103 130.31C269.822 130.104 269.447 130.002 268.978 130.002C268.627 130.002 268.313 130.078 268.038 130.23C267.768 130.377 267.543 130.591 267.361 130.872C267.18 131.153 267.039 131.493 266.939 131.892C266.846 132.284 266.799 132.727 266.799 133.219V133.57C266.799 133.986 266.854 134.373 266.966 134.73C267.083 135.082 267.253 135.39 267.475 135.653C267.698 135.917 267.968 136.125 268.284 136.277C268.6 136.424 268.961 136.497 269.365 136.497C269.875 136.497 270.329 136.395 270.727 136.189C271.126 135.984 271.471 135.694 271.764 135.319L272.881 136.4C272.676 136.699 272.409 136.986 272.081 137.262C271.753 137.531 271.351 137.751 270.877 137.921C270.408 138.091 269.863 138.176 269.242 138.176ZM276.351 130.521V138H274.232V128.49H276.228L276.351 130.521ZM275.973 132.894L275.287 132.885C275.293 132.211 275.387 131.593 275.568 131.03C275.756 130.468 276.014 129.984 276.342 129.58C276.676 129.176 277.074 128.865 277.537 128.648C278 128.426 278.516 128.314 279.084 128.314C279.541 128.314 279.954 128.379 280.323 128.508C280.698 128.631 281.018 128.833 281.281 129.114C281.551 129.396 281.756 129.762 281.896 130.213C282.037 130.658 282.107 131.206 282.107 131.856V138H279.98V131.848C279.98 131.391 279.913 131.03 279.778 130.767C279.649 130.497 279.459 130.307 279.207 130.195C278.961 130.078 278.653 130.02 278.284 130.02C277.921 130.02 277.596 130.096 277.309 130.248C277.021 130.4 276.778 130.608 276.579 130.872C276.386 131.136 276.236 131.44 276.131 131.786C276.025 132.132 275.973 132.501 275.973 132.894ZM288.179 128.49V130.037H282.818V128.49H288.179ZM284.364 126.161H286.483V135.372C286.483 135.665 286.524 135.891 286.606 136.049C286.694 136.201 286.814 136.304 286.966 136.356C287.118 136.409 287.297 136.436 287.502 136.436C287.649 136.436 287.789 136.427 287.924 136.409C288.059 136.392 288.167 136.374 288.249 136.356L288.258 137.974C288.082 138.026 287.877 138.073 287.643 138.114C287.414 138.155 287.151 138.176 286.852 138.176C286.365 138.176 285.935 138.091 285.56 137.921C285.185 137.745 284.892 137.461 284.681 137.068C284.47 136.676 284.364 136.154 284.364 135.504V126.161ZM289.452 136.945C289.452 136.617 289.563 136.342 289.786 136.119C290.008 135.891 290.31 135.776 290.691 135.776C291.078 135.776 291.379 135.891 291.596 136.119C291.819 136.342 291.93 136.617 291.93 136.945C291.93 137.273 291.819 137.549 291.596 137.771C291.379 137.994 291.078 138.105 290.691 138.105C290.31 138.105 290.008 137.994 289.786 137.771C289.563 137.549 289.452 137.273 289.452 136.945Z" fill="#F1F1F1"/>
</g>
<defs>
<filter id="filter0_b_0_593" x="-5" y="-5" width="374" height="192" filterUnits="userSpaceOnUse" color-interpolation-filters="sRGB">
<feFlood flood-opacity="0" result="BackgroundImageFix"/>
<feGaussianBlur in="BackgroundImageFix" stdDeviation="2.5"/>
<feComposite in2="SourceAlpha" operator="in" result="effect1_backgroundBlur_0_593"/>
<feBlend mode="normal" in="SourceGraphic" in2="effect1_backgroundBlur_0_593" result="shape"/>
</filter>
<linearGradient id="paint0_linear_0_593" x1="441.627" y1="210.426" x2="117.773" y2="-145.343" gradientUnits="userSpaceOnUse">
<stop offset="0.109465" stop-color="white" stop-opacity="0.8"/>
<stop offset="1" stop-color="#00A650"/>
</linearGradient>
</defs>
</svg>
