<svg width="364" height="182" viewBox="0 0 364 182" fill="none" xmlns="http://www.w3.org/2000/svg">
<g filter="url(#filter0_b_0_590)">
<path d="M0 4C0 1.79086 1.79086 0 4 0H332C349.673 0 364 14.3269 364 32V178C364 180.209 362.209 182 360 182H32C14.3269 182 0 167.673 0 150V4Z" fill="#898989" fill-opacity="0.1"/>
<path d="M0.5 4C0.5 2.067 2.067 0.5 4 0.5H332C349.397 0.5 363.5 14.603 363.5 32V178C363.5 179.933 361.933 181.5 360 181.5H32C14.603 181.5 0.5 167.397 0.5 150V4Z" stroke="url(#paint0_linear_0_590)"/>
<path d="M56.2129 82V52.432H55.3969L50.3569 63.424H44.4529L51.6049 48.4H61.7809V82H56.2129ZM79.461 82.672C75.525 82.672 72.373 81.568 70.005 79.36C67.637 77.152 66.453 73.824 66.453 69.376V61.024C66.453 56.672 67.637 53.376 70.005 51.136C72.373 48.864 75.525 47.728 79.461 47.728C83.429 47.728 86.581 48.864 88.917 51.136C91.285 53.376 92.469 56.672 92.469 61.024V69.376C92.469 73.824 91.285 77.152 88.917 79.36C86.581 81.568 83.429 82.672 79.461 82.672ZM79.461 77.68C81.989 77.68 83.845 76.976 85.029 75.568C86.245 74.16 86.853 72.16 86.853 69.568V60.784C86.853 58.16 86.197 56.16 84.885 54.784C83.573 53.408 81.765 52.72 79.461 52.72C77.093 52.72 75.269 53.424 73.989 54.832C72.709 56.24 72.069 58.224 72.069 60.784V69.568C72.069 72.224 72.677 74.24 73.893 75.616C75.141 76.992 76.997 77.68 79.461 77.68ZM97.1003 82V48.4H107.9L114.428 78.112H115.244L121.82 48.4H132.572V82H127.004V52.576H126.188L119.66 82H110.06L103.532 52.576H102.716V82H97.1003ZM147.017 75.232V67.696H139.577V62.704H147.017V55.168H152.201V62.704H159.641V67.696H152.201V75.232H147.017Z" fill="white"/>
<path d="M183.492 82.42C180.932 82.42 178.892 81.7 177.372 80.26C175.852 78.8 175.092 76.71 175.092 73.99V69.01C175.092 66.29 175.852 64.21 177.372 62.77C178.892 61.31 180.932 60.58 183.492 60.58C186.052 60.58 188.022 61.28 189.402 62.68C190.802 64.08 191.502 66 191.502 68.44V68.62H187.962V68.35C187.962 67.03 187.592 65.95 186.852 65.11C186.132 64.25 185.012 63.82 183.492 63.82C182.012 63.82 180.842 64.28 179.982 65.2C179.142 66.1 178.722 67.35 178.722 68.95V74.05C178.722 75.63 179.142 76.88 179.982 77.8C180.842 78.72 182.012 79.18 183.492 79.18C185.012 79.18 186.132 78.76 186.852 77.92C187.592 77.06 187.962 75.97 187.962 74.65V74.14H191.502V74.56C191.502 77 190.802 78.92 189.402 80.32C188.022 81.72 186.052 82.42 183.492 82.42ZM199.619 82.24C198.479 82.24 197.469 81.99 196.589 81.49C195.709 80.97 195.029 80.25 194.549 79.33C194.069 78.39 193.829 77.3 193.829 76.06V67.18H197.249V75.79C197.249 76.99 197.539 77.88 198.119 78.46C198.719 79.04 199.559 79.33 200.639 79.33C201.859 79.33 202.819 78.93 203.519 78.13C204.239 77.33 204.599 76.18 204.599 74.68V67.18H208.019V82H204.659V79.93H204.149C203.889 80.47 203.409 80.99 202.709 81.49C202.029 81.99 200.999 82.24 199.619 82.24ZM217.476 82.42C215.556 82.42 213.976 82 212.736 81.16C211.496 80.32 210.746 79.09 210.486 77.47L213.666 76.66C213.806 77.42 214.056 78.02 214.416 78.46C214.776 78.9 215.216 79.21 215.736 79.39C216.276 79.57 216.856 79.66 217.476 79.66C218.416 79.66 219.116 79.49 219.576 79.15C220.056 78.81 220.296 78.38 220.296 77.86C220.296 77.32 220.066 76.92 219.606 76.66C219.166 76.4 218.486 76.18 217.566 76L216.636 75.85C215.616 75.65 214.686 75.38 213.846 75.04C213.006 74.68 212.326 74.2 211.806 73.6C211.306 72.98 211.056 72.2 211.056 71.26C211.056 69.82 211.586 68.71 212.646 67.93C213.726 67.15 215.136 66.76 216.876 66.76C218.536 66.76 219.906 67.13 220.986 67.87C222.066 68.61 222.766 69.6 223.086 70.84L219.906 71.8C219.746 70.96 219.396 70.37 218.856 70.03C218.316 69.67 217.656 69.49 216.876 69.49C216.076 69.49 215.456 69.63 215.016 69.91C214.596 70.19 214.386 70.59 214.386 71.11C214.386 71.63 214.606 72.02 215.046 72.28C215.486 72.54 216.076 72.73 216.816 72.85L217.746 73.03C218.846 73.23 219.836 73.49 220.716 73.81C221.616 74.13 222.326 74.59 222.846 75.19C223.366 75.79 223.626 76.6 223.626 77.62C223.626 79.16 223.066 80.35 221.946 81.19C220.846 82.01 219.356 82.42 217.476 82.42ZM231.415 82C230.455 82 229.685 81.72 229.105 81.16C228.545 80.58 228.265 79.8 228.265 78.82V70.03H224.395V67.18H228.265V62.41H231.715V67.18H235.975V70.03H231.715V78.25C231.715 78.85 231.995 79.15 232.555 79.15H235.525V82H231.415ZM244.929 82.42C243.449 82.42 242.119 82.12 240.939 81.52C239.779 80.9 238.859 80.03 238.179 78.91C237.519 77.77 237.189 76.41 237.189 74.83V74.35C237.189 72.77 237.519 71.41 238.179 70.27C238.859 69.13 239.779 68.26 240.939 67.66C242.119 67.06 243.449 66.76 244.929 66.76C246.409 66.76 247.729 67.06 248.889 67.66C250.049 68.26 250.959 69.13 251.619 70.27C252.299 71.41 252.639 72.77 252.639 74.35V74.83C252.639 76.41 252.299 77.77 251.619 78.91C250.959 80.03 250.049 80.9 248.889 81.52C247.729 82.12 246.409 82.42 244.929 82.42ZM244.929 79.36C246.189 79.36 247.219 78.96 248.019 78.16C248.819 77.34 249.219 76.2 249.219 74.74V74.44C249.219 72.98 248.819 71.85 248.019 71.05C247.219 70.23 246.189 69.82 244.929 69.82C243.669 69.82 242.639 70.23 241.839 71.05C241.039 71.85 240.639 72.98 240.639 74.44V74.74C240.639 76.2 241.039 77.34 241.839 78.16C242.639 78.96 243.669 79.36 244.929 79.36ZM255.257 82V67.18H258.647V68.83H259.157C259.417 68.33 259.847 67.89 260.447 67.51C261.067 67.11 261.887 66.91 262.907 66.91C263.987 66.91 264.857 67.13 265.517 67.57C266.177 68.01 266.677 68.57 267.017 69.25H267.497C267.837 68.57 268.327 68.01 268.967 67.57C269.607 67.13 270.517 66.91 271.697 66.91C272.617 66.91 273.447 67.11 274.187 67.51C274.947 67.91 275.547 68.5 275.987 69.28C276.447 70.06 276.677 71.03 276.677 72.19V82H273.227V72.43C273.227 71.57 272.997 70.92 272.537 70.48C272.077 70.02 271.437 69.79 270.617 69.79C269.717 69.79 268.997 70.09 268.457 70.69C267.937 71.27 267.677 72.11 267.677 73.21V82H264.257V72.43C264.257 71.57 264.027 70.92 263.567 70.48C263.107 70.02 262.467 69.79 261.647 69.79C260.727 69.79 260.007 70.09 259.487 70.69C258.967 71.27 258.707 72.11 258.707 73.21V82H255.257ZM286.651 82.42C285.171 82.42 283.861 82.11 282.721 81.49C281.601 80.85 280.721 79.96 280.081 78.82C279.461 77.66 279.151 76.31 279.151 74.77V74.41C279.151 72.85 279.461 71.5 280.081 70.36C280.701 69.22 281.571 68.34 282.691 67.72C283.811 67.08 285.101 66.76 286.561 66.76C288.001 66.76 289.261 67.08 290.341 67.72C291.421 68.34 292.261 69.22 292.861 70.36C293.461 71.5 293.761 72.83 293.761 74.35V75.58H282.631C282.671 76.74 283.081 77.67 283.861 78.37C284.641 79.07 285.601 79.42 286.741 79.42C287.861 79.42 288.691 79.18 289.231 78.7C289.771 78.2 290.181 77.64 290.461 77.02L293.311 78.49C293.031 79.03 292.621 79.61 292.081 80.23C291.561 80.83 290.861 81.35 289.981 81.79C289.101 82.21 287.991 82.42 286.651 82.42ZM282.661 72.97H290.251C290.171 71.99 289.791 71.21 289.111 70.63C288.451 70.05 287.591 69.76 286.531 69.76C285.431 69.76 284.551 70.05 283.891 70.63C283.231 71.21 282.821 71.99 282.661 72.97ZM296.253 82V67.18H299.643V68.89H300.153C300.373 68.27 300.743 67.82 301.263 67.54C301.783 67.26 302.403 67.12 303.123 67.12H304.923V70.18H303.063C302.063 70.18 301.253 70.45 300.633 70.99C300.013 71.51 299.703 72.32 299.703 73.42V82H296.253ZM312.719 82.42C310.799 82.42 309.219 82 307.979 81.16C306.739 80.32 305.989 79.09 305.729 77.47L308.909 76.66C309.049 77.42 309.299 78.02 309.659 78.46C310.019 78.9 310.459 79.21 310.979 79.39C311.519 79.57 312.099 79.66 312.719 79.66C313.659 79.66 314.359 79.49 314.819 79.15C315.299 78.81 315.539 78.38 315.539 77.86C315.539 77.32 315.309 76.92 314.849 76.66C314.409 76.4 313.729 76.18 312.809 76L311.879 75.85C310.859 75.65 309.929 75.38 309.089 75.04C308.249 74.68 307.569 74.2 307.049 73.6C306.549 72.98 306.299 72.2 306.299 71.26C306.299 69.82 306.829 68.71 307.889 67.93C308.969 67.15 310.379 66.76 312.119 66.76C313.779 66.76 315.149 67.13 316.229 67.87C317.309 68.61 318.009 69.6 318.329 70.84L315.149 71.8C314.989 70.96 314.639 70.37 314.099 70.03C313.559 69.67 312.899 69.49 312.119 69.49C311.319 69.49 310.699 69.63 310.259 69.91C309.839 70.19 309.629 70.59 309.629 71.11C309.629 71.63 309.849 72.02 310.289 72.28C310.729 72.54 311.319 72.73 312.059 72.85L312.989 73.03C314.089 73.23 315.079 73.49 315.959 73.81C316.859 74.13 317.569 74.59 318.089 75.19C318.609 75.79 318.869 76.6 318.869 77.62C318.869 79.16 318.309 80.35 317.189 81.19C316.089 82.01 314.599 82.42 312.719 82.42Z" fill="#F1F1F1"/>
<path d="M58.1885 125.203V138H56V125.203H58.1885ZM62.2051 125.203V126.961H52.0186V125.203H62.2051ZM64.7258 130.301V138H62.6076V128.49H64.6291L64.7258 130.301ZM67.635 128.429L67.6174 130.397C67.4885 130.374 67.3479 130.356 67.1955 130.345C67.049 130.333 66.9025 130.327 66.7561 130.327C66.3928 130.327 66.0734 130.38 65.798 130.485C65.5227 130.585 65.2912 130.731 65.1037 130.925C64.9221 131.112 64.7814 131.341 64.6818 131.61C64.5822 131.88 64.5236 132.182 64.5061 132.516L64.0227 132.551C64.0227 131.953 64.0813 131.399 64.1984 130.89C64.3156 130.38 64.4914 129.932 64.7258 129.545C64.966 129.158 65.2648 128.856 65.6223 128.64C65.9855 128.423 66.4045 128.314 66.8791 128.314C67.008 128.314 67.1457 128.326 67.2922 128.35C67.4445 128.373 67.5588 128.399 67.635 128.429ZM74.2338 135.759V128.49H76.3607V138H74.3568L74.2338 135.759ZM74.5326 133.781L75.2445 133.764C75.2445 134.402 75.1742 134.991 75.0336 135.53C74.893 136.063 74.6762 136.529 74.3832 136.928C74.0902 137.32 73.7152 137.628 73.2582 137.851C72.8012 138.067 72.2533 138.176 71.6146 138.176C71.1518 138.176 70.727 138.108 70.3402 137.974C69.9535 137.839 69.6195 137.631 69.3383 137.35C69.0629 137.068 68.849 136.702 68.6967 136.251C68.5443 135.8 68.4682 135.261 68.4682 134.634V128.49H70.5863V134.651C70.5863 134.997 70.6273 135.287 70.7094 135.521C70.7914 135.75 70.9027 135.935 71.0434 136.075C71.184 136.216 71.348 136.315 71.5355 136.374C71.723 136.433 71.9223 136.462 72.1332 136.462C72.7367 136.462 73.2113 136.345 73.557 136.11C73.9086 135.87 74.1576 135.548 74.3041 135.144C74.4564 134.739 74.5326 134.285 74.5326 133.781ZM83.4166 135.425C83.4166 135.214 83.3639 135.023 83.2584 134.854C83.1529 134.678 82.9508 134.52 82.652 134.379C82.359 134.238 81.9254 134.109 81.3512 133.992C80.8473 133.881 80.3844 133.749 79.9625 133.597C79.5465 133.438 79.1891 133.248 78.8902 133.025C78.5914 132.803 78.36 132.539 78.1959 132.234C78.0318 131.93 77.9498 131.578 77.9498 131.18C77.9498 130.793 78.0348 130.427 78.2047 130.081C78.3746 129.735 78.6178 129.431 78.9342 129.167C79.2506 128.903 79.6344 128.695 80.0855 128.543C80.5426 128.391 81.0523 128.314 81.6148 128.314C82.4117 128.314 83.0943 128.449 83.6627 128.719C84.2369 128.982 84.6764 129.343 84.9811 129.8C85.2857 130.251 85.4381 130.761 85.4381 131.329H83.3199C83.3199 131.077 83.2555 130.843 83.1266 130.626C83.0035 130.403 82.816 130.225 82.5641 130.09C82.3121 129.949 81.9957 129.879 81.6148 129.879C81.2516 129.879 80.9498 129.938 80.7096 130.055C80.4752 130.166 80.2994 130.312 80.1822 130.494C80.0709 130.676 80.0152 130.875 80.0152 131.092C80.0152 131.25 80.0445 131.394 80.1031 131.522C80.1676 131.646 80.273 131.76 80.4195 131.865C80.566 131.965 80.7652 132.059 81.0172 132.146C81.275 132.234 81.5973 132.319 81.984 132.401C82.7105 132.554 83.3346 132.75 83.8561 132.99C84.3834 133.225 84.7877 133.529 85.0689 133.904C85.3502 134.273 85.4908 134.742 85.4908 135.311C85.4908 135.732 85.4 136.119 85.2184 136.471C85.0426 136.816 84.7848 137.118 84.4449 137.376C84.1051 137.628 83.6979 137.824 83.2232 137.965C82.7545 138.105 82.2271 138.176 81.6412 138.176C80.7799 138.176 80.0504 138.023 79.4527 137.719C78.8551 137.408 78.401 137.013 78.0904 136.532C77.7857 136.046 77.6334 135.542 77.6334 135.021H79.6812C79.7047 135.413 79.8131 135.727 80.0064 135.961C80.2057 136.189 80.4518 136.356 80.7447 136.462C81.0436 136.562 81.3512 136.611 81.6676 136.611C82.0484 136.611 82.3678 136.562 82.6256 136.462C82.8834 136.356 83.0797 136.216 83.2145 136.04C83.3492 135.858 83.4166 135.653 83.4166 135.425ZM91.2547 128.49V130.037H85.8934V128.49H91.2547ZM87.4402 126.161H89.5584V135.372C89.5584 135.665 89.5994 135.891 89.6814 136.049C89.7693 136.201 89.8895 136.304 90.0418 136.356C90.1941 136.409 90.3729 136.436 90.5779 136.436C90.7244 136.436 90.865 136.427 90.9998 136.409C91.1346 136.392 91.243 136.374 91.325 136.356L91.3338 137.974C91.158 138.026 90.9529 138.073 90.7186 138.114C90.49 138.155 90.2264 138.176 89.9275 138.176C89.4412 138.176 89.0105 138.091 88.6355 137.921C88.2605 137.745 87.9676 137.461 87.7566 137.068C87.5457 136.676 87.4402 136.154 87.4402 135.504V126.161ZM102.194 135.759V128.49H104.321V138H102.317L102.194 135.759ZM102.492 133.781L103.204 133.764C103.204 134.402 103.134 134.991 102.993 135.53C102.853 136.063 102.636 136.529 102.343 136.928C102.05 137.32 101.675 137.628 101.218 137.851C100.761 138.067 100.213 138.176 99.5744 138.176C99.1115 138.176 98.6867 138.108 98.3 137.974C97.9133 137.839 97.5793 137.631 97.298 137.35C97.0227 137.068 96.8088 136.702 96.6564 136.251C96.5041 135.8 96.4279 135.261 96.4279 134.634V128.49H98.5461V134.651C98.5461 134.997 98.5871 135.287 98.6691 135.521C98.7512 135.75 98.8625 135.935 99.0031 136.075C99.1437 136.216 99.3078 136.315 99.4953 136.374C99.6828 136.433 99.882 136.462 100.093 136.462C100.696 136.462 101.171 136.345 101.517 136.11C101.868 135.87 102.117 135.548 102.264 135.144C102.416 134.739 102.492 134.285 102.492 133.781ZM111.376 135.425C111.376 135.214 111.324 135.023 111.218 134.854C111.113 134.678 110.911 134.52 110.612 134.379C110.319 134.238 109.885 134.109 109.311 133.992C108.807 133.881 108.344 133.749 107.922 133.597C107.506 133.438 107.149 133.248 106.85 133.025C106.551 132.803 106.32 132.539 106.156 132.234C105.992 131.93 105.91 131.578 105.91 131.18C105.91 130.793 105.995 130.427 106.164 130.081C106.334 129.735 106.578 129.431 106.894 129.167C107.21 128.903 107.594 128.695 108.045 128.543C108.502 128.391 109.012 128.314 109.575 128.314C110.371 128.314 111.054 128.449 111.622 128.719C112.197 128.982 112.636 129.343 112.941 129.8C113.246 130.251 113.398 130.761 113.398 131.329H111.28C111.28 131.077 111.215 130.843 111.086 130.626C110.963 130.403 110.776 130.225 110.524 130.09C110.272 129.949 109.955 129.879 109.575 129.879C109.211 129.879 108.91 129.938 108.669 130.055C108.435 130.166 108.259 130.312 108.142 130.494C108.031 130.676 107.975 130.875 107.975 131.092C107.975 131.25 108.004 131.394 108.063 131.522C108.127 131.646 108.233 131.76 108.379 131.865C108.526 131.965 108.725 132.059 108.977 132.146C109.235 132.234 109.557 132.319 109.944 132.401C110.67 132.554 111.294 132.75 111.816 132.99C112.343 133.225 112.747 133.529 113.029 133.904C113.31 134.273 113.451 134.742 113.451 135.311C113.451 135.732 113.36 136.119 113.178 136.471C113.002 136.816 112.745 137.118 112.405 137.376C112.065 137.628 111.658 137.824 111.183 137.965C110.714 138.105 110.187 138.176 109.601 138.176C108.74 138.176 108.01 138.023 107.412 137.719C106.815 137.408 106.361 137.013 106.05 136.532C105.746 136.046 105.593 135.542 105.593 135.021H107.641C107.664 135.413 107.773 135.727 107.966 135.961C108.165 136.189 108.412 136.356 108.704 136.462C109.003 136.562 109.311 136.611 109.627 136.611C110.008 136.611 110.328 136.562 110.585 136.462C110.843 136.356 111.039 136.216 111.174 136.04C111.309 135.858 111.376 135.653 111.376 135.425ZM121.471 135.891L123.669 128.49H125.022L124.653 130.705L122.438 138H121.225L121.471 135.891ZM120.179 128.49L121.893 135.926L122.034 138H120.68L118.105 128.49H120.179ZM127.079 135.838L128.74 128.49H130.805L128.239 138H126.886L127.079 135.838ZM125.251 128.49L127.422 135.803L127.694 138H126.481L124.24 130.696L123.871 128.49H125.251ZM134.064 128.49V138H131.938V128.49H134.064ZM131.797 125.994C131.797 125.672 131.902 125.405 132.113 125.194C132.33 124.978 132.629 124.869 133.01 124.869C133.385 124.869 133.681 124.978 133.897 125.194C134.114 125.405 134.223 125.672 134.223 125.994C134.223 126.311 134.114 126.574 133.897 126.785C133.681 126.996 133.385 127.102 133.01 127.102C132.629 127.102 132.33 126.996 132.113 126.785C131.902 126.574 131.797 126.311 131.797 125.994ZM140.294 128.49V130.037H134.933V128.49H140.294ZM136.48 126.161H138.598V135.372C138.598 135.665 138.639 135.891 138.721 136.049C138.809 136.201 138.929 136.304 139.081 136.356C139.234 136.409 139.412 136.436 139.617 136.436C139.764 136.436 139.904 136.427 140.039 136.409C140.174 136.392 140.282 136.374 140.364 136.356L140.373 137.974C140.197 138.026 139.992 138.073 139.758 138.114C139.529 138.155 139.266 138.176 138.967 138.176C138.481 138.176 138.05 138.091 137.675 137.921C137.3 137.745 137.007 137.461 136.796 137.068C136.585 136.676 136.48 136.154 136.48 135.504V126.161ZM143.571 124.5V138H141.461V124.5H143.571ZM143.202 132.894L142.516 132.885C142.522 132.229 142.613 131.622 142.788 131.065C142.97 130.509 143.222 130.025 143.544 129.615C143.872 129.199 144.265 128.88 144.722 128.657C145.179 128.429 145.686 128.314 146.243 128.314C146.711 128.314 147.133 128.379 147.508 128.508C147.889 128.637 148.217 128.845 148.493 129.132C148.768 129.413 148.976 129.782 149.117 130.239C149.263 130.69 149.336 131.241 149.336 131.892V138H147.209V131.874C147.209 131.417 147.142 131.054 147.007 130.784C146.878 130.515 146.688 130.321 146.436 130.204C146.184 130.081 145.876 130.02 145.513 130.02C145.132 130.02 144.795 130.096 144.502 130.248C144.215 130.4 143.975 130.608 143.782 130.872C143.588 131.136 143.442 131.44 143.342 131.786C143.248 132.132 143.202 132.501 143.202 132.894ZM159.423 128.49V130.037H154.061V128.49H159.423ZM155.608 126.161H157.726V135.372C157.726 135.665 157.767 135.891 157.849 136.049C157.937 136.201 158.057 136.304 158.21 136.356C158.362 136.409 158.541 136.436 158.746 136.436C158.892 136.436 159.033 136.427 159.168 136.409C159.303 136.392 159.411 136.374 159.493 136.356L159.502 137.974C159.326 138.026 159.121 138.073 158.887 138.114C158.658 138.155 158.394 138.176 158.096 138.176C157.609 138.176 157.179 138.091 156.804 137.921C156.429 137.745 156.136 137.461 155.925 137.068C155.714 136.676 155.608 136.154 155.608 135.504V126.161ZM162.699 124.5V138H160.59V124.5H162.699ZM162.33 132.894L161.645 132.885C161.65 132.229 161.741 131.622 161.917 131.065C162.099 130.509 162.351 130.025 162.673 129.615C163.001 129.199 163.394 128.88 163.851 128.657C164.308 128.429 164.814 128.314 165.371 128.314C165.84 128.314 166.262 128.379 166.637 128.508C167.018 128.637 167.346 128.845 167.621 129.132C167.896 129.413 168.104 129.782 168.245 130.239C168.392 130.69 168.465 131.241 168.465 131.892V138H166.338V131.874C166.338 131.417 166.271 131.054 166.136 130.784C166.007 130.515 165.816 130.321 165.564 130.204C165.312 130.081 165.005 130.02 164.642 130.02C164.261 130.02 163.924 130.096 163.631 130.248C163.344 130.4 163.104 130.608 162.91 130.872C162.717 131.136 162.57 131.44 162.471 131.786C162.377 132.132 162.33 132.501 162.33 132.894ZM174.352 138.176C173.649 138.176 173.013 138.062 172.445 137.833C171.882 137.599 171.402 137.273 171.003 136.857C170.611 136.441 170.309 135.952 170.098 135.39C169.887 134.827 169.781 134.221 169.781 133.57V133.219C169.781 132.475 169.89 131.801 170.107 131.197C170.323 130.594 170.625 130.078 171.012 129.65C171.399 129.217 171.856 128.886 172.383 128.657C172.91 128.429 173.482 128.314 174.097 128.314C174.777 128.314 175.371 128.429 175.881 128.657C176.391 128.886 176.813 129.208 177.147 129.624C177.487 130.034 177.738 130.523 177.903 131.092C178.072 131.66 178.157 132.287 178.157 132.973V133.878H170.81V132.357H176.066V132.19C176.054 131.81 175.978 131.452 175.837 131.118C175.702 130.784 175.494 130.515 175.213 130.31C174.932 130.104 174.557 130.002 174.088 130.002C173.737 130.002 173.423 130.078 173.148 130.23C172.878 130.377 172.653 130.591 172.471 130.872C172.289 131.153 172.149 131.493 172.049 131.892C171.955 132.284 171.908 132.727 171.908 133.219V133.57C171.908 133.986 171.964 134.373 172.075 134.73C172.193 135.082 172.363 135.39 172.585 135.653C172.808 135.917 173.077 136.125 173.394 136.277C173.71 136.424 174.071 136.497 174.475 136.497C174.985 136.497 175.439 136.395 175.837 136.189C176.236 135.984 176.581 135.694 176.874 135.319L177.99 136.4C177.785 136.699 177.519 136.986 177.191 137.262C176.863 137.531 176.461 137.751 175.987 137.921C175.518 138.091 174.973 138.176 174.352 138.176ZM181.627 128.49V138H179.5V128.49H181.627ZM179.36 125.994C179.36 125.672 179.465 125.405 179.676 125.194C179.893 124.978 180.192 124.869 180.573 124.869C180.948 124.869 181.244 124.978 181.46 125.194C181.677 125.405 181.786 125.672 181.786 125.994C181.786 126.311 181.677 126.574 181.46 126.785C181.244 126.996 180.948 127.102 180.573 127.102C180.192 127.102 179.893 126.996 179.676 126.785C179.465 126.574 179.36 126.311 179.36 125.994ZM185.625 130.301V138H183.506V128.49H185.528L185.625 130.301ZM188.534 128.429L188.516 130.397C188.387 130.374 188.247 130.356 188.094 130.345C187.948 130.333 187.801 130.327 187.655 130.327C187.292 130.327 186.972 130.38 186.697 130.485C186.421 130.585 186.19 130.731 186.003 130.925C185.821 131.112 185.68 131.341 185.581 131.61C185.481 131.88 185.422 132.182 185.405 132.516L184.921 132.551C184.921 131.953 184.98 131.399 185.097 130.89C185.214 130.38 185.39 129.932 185.625 129.545C185.865 129.158 186.164 128.856 186.521 128.64C186.884 128.423 187.303 128.314 187.778 128.314C187.907 128.314 188.045 128.326 188.191 128.35C188.343 128.373 188.458 128.399 188.534 128.429ZM196.168 138H194.041V127.875C194.041 127.107 194.193 126.46 194.498 125.933C194.809 125.405 195.251 125.004 195.825 124.729C196.405 124.453 197.094 124.315 197.891 124.315C198.359 124.315 198.811 124.365 199.244 124.465C199.684 124.564 200.138 124.69 200.606 124.843L200.281 126.565C199.982 126.466 199.651 126.372 199.288 126.284C198.925 126.19 198.506 126.144 198.031 126.144C197.393 126.144 196.921 126.29 196.616 126.583C196.317 126.87 196.168 127.301 196.168 127.875V138ZM198.075 128.49V130.037H192.582V128.49H198.075ZM201.608 128.49V138H199.49V128.49H201.608ZM205.623 130.521V138H203.505V128.49H205.5L205.623 130.521ZM205.245 132.894L204.56 132.885C204.566 132.211 204.659 131.593 204.841 131.03C205.029 130.468 205.286 129.984 205.614 129.58C205.948 129.176 206.347 128.865 206.81 128.648C207.273 128.426 207.788 128.314 208.357 128.314C208.814 128.314 209.227 128.379 209.596 128.508C209.971 128.631 210.29 128.833 210.554 129.114C210.823 129.396 211.029 129.762 211.169 130.213C211.31 130.658 211.38 131.206 211.38 131.856V138H209.253V131.848C209.253 131.391 209.186 131.03 209.051 130.767C208.922 130.497 208.732 130.307 208.48 130.195C208.234 130.078 207.926 130.02 207.557 130.02C207.194 130.02 206.868 130.096 206.581 130.248C206.294 130.4 206.051 130.608 205.852 130.872C205.658 131.136 205.509 131.44 205.404 131.786C205.298 132.132 205.245 132.501 205.245 132.894ZM218.454 136.093V131.558C218.454 131.218 218.392 130.925 218.269 130.679C218.146 130.433 217.958 130.242 217.706 130.107C217.46 129.973 217.15 129.905 216.775 129.905C216.429 129.905 216.13 129.964 215.878 130.081C215.626 130.198 215.43 130.356 215.289 130.556C215.149 130.755 215.079 130.98 215.079 131.232H212.969C212.969 130.857 213.06 130.494 213.242 130.143C213.423 129.791 213.687 129.478 214.033 129.202C214.378 128.927 214.791 128.71 215.272 128.552C215.752 128.394 216.291 128.314 216.889 128.314C217.604 128.314 218.237 128.435 218.788 128.675C219.344 128.915 219.781 129.278 220.097 129.765C220.419 130.245 220.58 130.849 220.58 131.575V135.803C220.58 136.236 220.61 136.626 220.668 136.972C220.733 137.312 220.824 137.607 220.941 137.859V138H218.77C218.67 137.771 218.591 137.481 218.533 137.13C218.48 136.772 218.454 136.427 218.454 136.093ZM218.761 132.217L218.779 133.526H217.258C216.866 133.526 216.52 133.564 216.221 133.641C215.922 133.711 215.673 133.816 215.474 133.957C215.275 134.098 215.125 134.268 215.026 134.467C214.926 134.666 214.876 134.892 214.876 135.144C214.876 135.396 214.935 135.627 215.052 135.838C215.169 136.043 215.339 136.204 215.562 136.321C215.79 136.438 216.066 136.497 216.388 136.497C216.822 136.497 217.2 136.409 217.522 136.233C217.85 136.052 218.108 135.832 218.295 135.574C218.483 135.311 218.582 135.062 218.594 134.827L219.28 135.768C219.209 136.008 219.089 136.266 218.919 136.541C218.749 136.816 218.527 137.08 218.251 137.332C217.982 137.578 217.657 137.78 217.276 137.938C216.901 138.097 216.467 138.176 215.975 138.176C215.354 138.176 214.8 138.053 214.314 137.807C213.828 137.555 213.447 137.218 213.171 136.796C212.896 136.368 212.758 135.885 212.758 135.346C212.758 134.842 212.852 134.396 213.039 134.01C213.233 133.617 213.514 133.289 213.883 133.025C214.258 132.762 214.715 132.562 215.254 132.428C215.793 132.287 216.409 132.217 217.1 132.217H218.761ZM224.446 130.521V138H222.328V128.49H224.323L224.446 130.521ZM224.068 132.894L223.382 132.885C223.388 132.211 223.482 131.593 223.664 131.03C223.851 130.468 224.109 129.984 224.437 129.58C224.771 129.176 225.17 128.865 225.632 128.648C226.095 128.426 226.611 128.314 227.179 128.314C227.636 128.314 228.049 128.379 228.419 128.508C228.794 128.631 229.113 128.833 229.377 129.114C229.646 129.396 229.851 129.762 229.992 130.213C230.132 130.658 230.203 131.206 230.203 131.856V138H228.076V131.848C228.076 131.391 228.008 131.03 227.874 130.767C227.745 130.497 227.554 130.307 227.302 130.195C227.056 130.078 226.749 130.02 226.379 130.02C226.016 130.02 225.691 130.096 225.404 130.248C225.117 130.4 224.874 130.608 224.674 130.872C224.481 131.136 224.332 131.44 224.226 131.786C224.121 132.132 224.068 132.501 224.068 132.894ZM235.8 136.488C236.145 136.488 236.456 136.421 236.731 136.286C237.012 136.146 237.238 135.952 237.408 135.706C237.584 135.46 237.68 135.176 237.698 134.854H239.693C239.681 135.469 239.5 136.028 239.148 136.532C238.797 137.036 238.331 137.438 237.751 137.736C237.171 138.029 236.529 138.176 235.826 138.176C235.099 138.176 234.467 138.053 233.928 137.807C233.388 137.555 232.94 137.209 232.583 136.77C232.225 136.33 231.956 135.823 231.774 135.249C231.598 134.675 231.511 134.06 231.511 133.403V133.096C231.511 132.439 231.598 131.824 231.774 131.25C231.956 130.67 232.225 130.16 232.583 129.721C232.94 129.281 233.388 128.938 233.928 128.692C234.467 128.44 235.096 128.314 235.817 128.314C236.579 128.314 237.247 128.467 237.821 128.771C238.395 129.07 238.846 129.489 239.175 130.028C239.509 130.562 239.681 131.183 239.693 131.892H237.698C237.68 131.54 237.593 131.224 237.434 130.942C237.282 130.655 237.065 130.427 236.784 130.257C236.509 130.087 236.178 130.002 235.791 130.002C235.363 130.002 235.009 130.09 234.727 130.266C234.446 130.436 234.226 130.67 234.068 130.969C233.91 131.262 233.796 131.593 233.725 131.962C233.661 132.325 233.629 132.703 233.629 133.096V133.403C233.629 133.796 233.661 134.177 233.725 134.546C233.79 134.915 233.901 135.246 234.059 135.539C234.223 135.826 234.446 136.058 234.727 136.233C235.009 136.403 235.366 136.488 235.8 136.488ZM243.137 128.49V138H241.01V128.49H243.137ZM240.869 125.994C240.869 125.672 240.975 125.405 241.186 125.194C241.402 124.978 241.701 124.869 242.082 124.869C242.457 124.869 242.753 124.978 242.97 125.194C243.187 125.405 243.295 125.672 243.295 125.994C243.295 126.311 243.187 126.574 242.97 126.785C242.753 126.996 242.457 127.102 242.082 127.102C241.701 127.102 241.402 126.996 241.186 126.785C240.975 126.574 240.869 126.311 240.869 125.994ZM250.368 136.093V131.558C250.368 131.218 250.307 130.925 250.184 130.679C250.061 130.433 249.873 130.242 249.621 130.107C249.375 129.973 249.065 129.905 248.69 129.905C248.344 129.905 248.045 129.964 247.793 130.081C247.541 130.198 247.345 130.356 247.204 130.556C247.064 130.755 246.993 130.98 246.993 131.232H244.884C244.884 130.857 244.975 130.494 245.156 130.143C245.338 129.791 245.602 129.478 245.947 129.202C246.293 128.927 246.706 128.71 247.187 128.552C247.667 128.394 248.206 128.314 248.804 128.314C249.519 128.314 250.152 128.435 250.702 128.675C251.259 128.915 251.696 129.278 252.012 129.765C252.334 130.245 252.495 130.849 252.495 131.575V135.803C252.495 136.236 252.525 136.626 252.583 136.972C252.648 137.312 252.738 137.607 252.856 137.859V138H250.685C250.585 137.771 250.506 137.481 250.447 137.13C250.395 136.772 250.368 136.427 250.368 136.093ZM250.676 132.217L250.694 133.526H249.173C248.78 133.526 248.435 133.564 248.136 133.641C247.837 133.711 247.588 133.816 247.389 133.957C247.19 134.098 247.04 134.268 246.941 134.467C246.841 134.666 246.791 134.892 246.791 135.144C246.791 135.396 246.85 135.627 246.967 135.838C247.084 136.043 247.254 136.204 247.477 136.321C247.705 136.438 247.981 136.497 248.303 136.497C248.737 136.497 249.114 136.409 249.437 136.233C249.765 136.052 250.023 135.832 250.21 135.574C250.398 135.311 250.497 135.062 250.509 134.827L251.195 135.768C251.124 136.008 251.004 136.266 250.834 136.541C250.664 136.816 250.442 137.08 250.166 137.332C249.897 137.578 249.571 137.78 249.191 137.938C248.816 138.097 248.382 138.176 247.89 138.176C247.269 138.176 246.715 138.053 246.229 137.807C245.742 137.555 245.362 137.218 245.086 136.796C244.811 136.368 244.673 135.885 244.673 135.346C244.673 134.842 244.767 134.396 244.954 134.01C245.148 133.617 245.429 133.289 245.798 133.025C246.173 132.762 246.63 132.562 247.169 132.428C247.708 132.287 248.323 132.217 249.015 132.217H250.676ZM256.528 124.5V138H254.401V124.5H256.528ZM264.531 130.521V138H262.413V128.49H264.408L264.531 130.521ZM264.153 132.894L263.468 132.885C263.473 132.211 263.567 131.593 263.749 131.03C263.936 130.468 264.194 129.984 264.522 129.58C264.856 129.176 265.255 128.865 265.718 128.648C266.18 128.426 266.696 128.314 267.264 128.314C267.721 128.314 268.135 128.379 268.504 128.508C268.879 128.631 269.198 128.833 269.462 129.114C269.731 129.396 269.936 129.762 270.077 130.213C270.218 130.658 270.288 131.206 270.288 131.856V138H268.161V131.848C268.161 131.391 268.094 131.03 267.959 130.767C267.83 130.497 267.639 130.307 267.387 130.195C267.141 130.078 266.834 130.02 266.465 130.02C266.101 130.02 265.776 130.096 265.489 130.248C265.202 130.4 264.959 130.608 264.76 130.872C264.566 131.136 264.417 131.44 264.311 131.786C264.206 132.132 264.153 132.501 264.153 132.894ZM276.192 138.176C275.489 138.176 274.854 138.062 274.285 137.833C273.723 137.599 273.242 137.273 272.844 136.857C272.451 136.441 272.149 135.952 271.938 135.39C271.728 134.827 271.622 134.221 271.622 133.57V133.219C271.622 132.475 271.73 131.801 271.947 131.197C272.164 130.594 272.466 130.078 272.853 129.65C273.239 129.217 273.696 128.886 274.224 128.657C274.751 128.429 275.322 128.314 275.938 128.314C276.617 128.314 277.212 128.429 277.722 128.657C278.231 128.886 278.653 129.208 278.987 129.624C279.327 130.034 279.579 130.523 279.743 131.092C279.913 131.66 279.998 132.287 279.998 132.973V133.878H272.65V132.357H277.906V132.19C277.895 131.81 277.818 131.452 277.678 131.118C277.543 130.784 277.335 130.515 277.054 130.31C276.772 130.104 276.397 130.002 275.929 130.002C275.577 130.002 275.264 130.078 274.988 130.23C274.719 130.377 274.493 130.591 274.312 130.872C274.13 131.153 273.989 131.493 273.89 131.892C273.796 132.284 273.749 132.727 273.749 133.219V133.57C273.749 133.986 273.805 134.373 273.916 134.73C274.033 135.082 274.203 135.39 274.426 135.653C274.648 135.917 274.918 136.125 275.234 136.277C275.551 136.424 275.911 136.497 276.315 136.497C276.825 136.497 277.279 136.395 277.678 136.189C278.076 135.984 278.422 135.694 278.715 135.319L279.831 136.4C279.626 136.699 279.359 136.986 279.031 137.262C278.703 137.531 278.302 137.751 277.827 137.921C277.358 138.091 276.813 138.176 276.192 138.176ZM285.393 138.176C284.69 138.176 284.054 138.062 283.486 137.833C282.923 137.599 282.443 137.273 282.044 136.857C281.652 136.441 281.35 135.952 281.139 135.39C280.928 134.827 280.822 134.221 280.822 133.57V133.219C280.822 132.475 280.931 131.801 281.148 131.197C281.364 130.594 281.666 130.078 282.053 129.65C282.44 129.217 282.897 128.886 283.424 128.657C283.951 128.429 284.523 128.314 285.138 128.314C285.818 128.314 286.412 128.429 286.922 128.657C287.432 128.886 287.854 129.208 288.188 129.624C288.528 130.034 288.779 130.523 288.944 131.092C289.113 131.66 289.198 132.287 289.198 132.973V133.878H281.851V132.357H287.107V132.19C287.095 131.81 287.019 131.452 286.878 131.118C286.743 130.784 286.535 130.515 286.254 130.31C285.973 130.104 285.598 130.002 285.129 130.002C284.778 130.002 284.464 130.078 284.189 130.23C283.919 130.377 283.694 130.591 283.512 130.872C283.33 131.153 283.19 131.493 283.09 131.892C282.996 132.284 282.949 132.727 282.949 133.219V133.57C282.949 133.986 283.005 134.373 283.116 134.73C283.234 135.082 283.404 135.39 283.626 135.653C283.849 135.917 284.118 136.125 284.435 136.277C284.751 136.424 285.112 136.497 285.516 136.497C286.026 136.497 286.48 136.395 286.878 136.189C287.277 135.984 287.622 135.694 287.915 135.319L289.031 136.4C288.826 136.699 288.56 136.986 288.232 137.262C287.904 137.531 287.502 137.751 287.028 137.921C286.559 138.091 286.014 138.176 285.393 138.176ZM296.202 136.031V124.5H298.329V138H296.404L296.202 136.031ZM290.014 133.351V133.166C290.014 132.445 290.099 131.789 290.269 131.197C290.439 130.6 290.685 130.087 291.007 129.659C291.329 129.226 291.722 128.895 292.185 128.666C292.648 128.432 293.169 128.314 293.749 128.314C294.324 128.314 294.828 128.426 295.261 128.648C295.695 128.871 296.064 129.19 296.369 129.606C296.673 130.017 296.916 130.509 297.098 131.083C297.28 131.651 297.409 132.284 297.485 132.981V133.57C297.409 134.25 297.28 134.871 297.098 135.434C296.916 135.996 296.673 136.482 296.369 136.893C296.064 137.303 295.692 137.619 295.252 137.842C294.819 138.064 294.312 138.176 293.732 138.176C293.158 138.176 292.639 138.056 292.176 137.815C291.719 137.575 291.329 137.238 291.007 136.805C290.685 136.371 290.439 135.861 290.269 135.275C290.099 134.684 290.014 134.042 290.014 133.351ZM292.132 133.166V133.351C292.132 133.784 292.17 134.188 292.246 134.563C292.329 134.938 292.454 135.27 292.624 135.557C292.794 135.838 293.014 136.061 293.284 136.225C293.559 136.383 293.887 136.462 294.268 136.462C294.748 136.462 295.144 136.356 295.454 136.146C295.765 135.935 296.008 135.65 296.184 135.293C296.366 134.93 296.489 134.525 296.553 134.08V132.489C296.518 132.144 296.445 131.821 296.333 131.522C296.228 131.224 296.084 130.963 295.903 130.74C295.721 130.512 295.496 130.336 295.226 130.213C294.962 130.084 294.649 130.02 294.286 130.02C293.899 130.02 293.571 130.102 293.301 130.266C293.032 130.43 292.809 130.655 292.633 130.942C292.463 131.229 292.337 131.563 292.255 131.944C292.173 132.325 292.132 132.732 292.132 133.166ZM305.428 135.425C305.428 135.214 305.376 135.023 305.27 134.854C305.165 134.678 304.962 134.52 304.664 134.379C304.371 134.238 303.937 134.109 303.363 133.992C302.859 133.881 302.396 133.749 301.974 133.597C301.558 133.438 301.201 133.248 300.902 133.025C300.603 132.803 300.372 132.539 300.208 132.234C300.044 131.93 299.962 131.578 299.962 131.18C299.962 130.793 300.046 130.427 300.216 130.081C300.386 129.735 300.629 129.431 300.946 129.167C301.262 128.903 301.646 128.695 302.097 128.543C302.554 128.391 303.064 128.314 303.627 128.314C304.423 128.314 305.106 128.449 305.674 128.719C306.249 128.982 306.688 129.343 306.993 129.8C307.297 130.251 307.45 130.761 307.45 131.329H305.332C305.332 131.077 305.267 130.843 305.138 130.626C305.015 130.403 304.828 130.225 304.576 130.09C304.324 129.949 304.007 129.879 303.627 129.879C303.263 129.879 302.962 129.938 302.721 130.055C302.487 130.166 302.311 130.312 302.194 130.494C302.083 130.676 302.027 130.875 302.027 131.092C302.027 131.25 302.056 131.394 302.115 131.522C302.179 131.646 302.285 131.76 302.431 131.865C302.578 131.965 302.777 132.059 303.029 132.146C303.287 132.234 303.609 132.319 303.996 132.401C304.722 132.554 305.346 132.75 305.868 132.99C306.395 133.225 306.799 133.529 307.081 133.904C307.362 134.273 307.503 134.742 307.503 135.311C307.503 135.732 307.412 136.119 307.23 136.471C307.054 136.816 306.796 137.118 306.457 137.376C306.117 137.628 305.71 137.824 305.235 137.965C304.766 138.105 304.239 138.176 303.653 138.176C302.792 138.176 302.062 138.023 301.464 137.719C300.867 137.408 300.413 137.013 300.102 136.532C299.797 136.046 299.645 135.542 299.645 135.021H301.693C301.716 135.413 301.825 135.727 302.018 135.961C302.217 136.189 302.463 136.356 302.756 136.462C303.055 136.562 303.363 136.611 303.679 136.611C304.06 136.611 304.379 136.562 304.637 136.462C304.895 136.356 305.091 136.216 305.226 136.04C305.361 135.858 305.428 135.653 305.428 135.425ZM308.995 136.945C308.995 136.617 309.106 136.342 309.329 136.119C309.552 135.891 309.853 135.776 310.234 135.776C310.621 135.776 310.923 135.891 311.139 136.119C311.362 136.342 311.473 136.617 311.473 136.945C311.473 137.273 311.362 137.549 311.139 137.771C310.923 137.994 310.621 138.105 310.234 138.105C309.853 138.105 309.552 137.994 309.329 137.771C309.106 137.549 308.995 137.273 308.995 136.945Z" fill="#F1F1F1"/>
</g>
<defs>
<filter id="filter0_b_0_590" x="-5" y="-5" width="374" height="192" filterUnits="userSpaceOnUse" color-interpolation-filters="sRGB">
<feFlood flood-opacity="0" result="BackgroundImageFix"/>
<feGaussianBlur in="BackgroundImageFix" stdDeviation="2.5"/>
<feComposite in2="SourceAlpha" operator="in" result="effect1_backgroundBlur_0_590"/>
<feBlend mode="normal" in="SourceGraphic" in2="effect1_backgroundBlur_0_590" result="shape"/>
</filter>
<linearGradient id="paint0_linear_0_590" x1="441.627" y1="210.426" x2="117.773" y2="-145.343" gradientUnits="userSpaceOnUse">
<stop offset="0.109465" stop-color="white" stop-opacity="0.8"/>
<stop offset="1" stop-color="#00A650"/>
</linearGradient>
</defs>
</svg>
