<svg width="80" height="80" viewBox="0 0 80 80" fill="none" xmlns="http://www.w3.org/2000/svg">
<path d="M78.3 39.6454L55.6333 30.8307C55.3795 30.7369 55.1129 30.6816 54.8427 30.6668L65.8893 19.6201C66.3876 19.1202 66.6674 18.4432 66.6674 17.7374C66.6674 17.0316 66.3876 16.3546 65.8893 15.8548L50.808 0.757418C50.3082 0.259531 49.6315 -0.0200195 48.926 -0.0200195C48.2205 -0.0200195 47.5438 0.259531 47.044 0.757418L40.432 7.37075L39.6973 6.74675C38.9021 6.03165 37.9187 5.55923 36.8635 5.38532C35.8083 5.21142 34.7253 5.34332 33.7427 5.76542C28.7859 7.5927 23.5961 8.71129 18.3267 9.08809C18.0341 8.35945 17.5279 7.73636 16.8747 7.30066C16.2215 6.86495 15.4518 6.637 14.6667 6.64675H2.66667C1.95942 6.64675 1.28115 6.9277 0.781049 7.4278C0.280952 7.9279 0 8.60617 0 9.31342L0 29.3134C0 30.0207 0.280952 30.6989 0.781049 31.199C1.28115 31.6991 1.95942 31.9801 2.66667 31.9801H12.6213C13.5072 31.9786 14.3675 31.6831 15.0673 31.1399C15.7671 30.5967 16.2668 29.8366 16.488 28.9788C17.0333 29.3787 17.5627 29.7534 18.1213 30.1001C17.9652 30.5674 17.9417 31.0688 18.0532 31.5487C18.1648 32.0286 18.4071 32.4682 18.7533 32.8188L29.3333 43.3908V46.6508C29.3333 47.358 29.6143 48.0363 30.1144 48.5364C30.6145 49.0365 31.2928 49.3174 32 49.3174V64.3574C31.5961 64.5895 31.2604 64.9237 31.0264 65.3264C30.7924 65.7291 30.6683 66.1863 30.6667 66.6521V69.6908C30.2626 69.9229 29.9267 70.2573 29.6927 70.6603C29.4587 71.0633 29.3347 71.5207 29.3333 71.9868V77.3201C29.3333 78.0273 29.6143 78.7056 30.1144 79.2057C30.6145 79.7058 31.2928 79.9868 32 79.9868H77.3333C78.0406 79.9868 78.7189 79.7058 79.219 79.2057C79.7191 78.7056 80 78.0273 80 77.3201V71.9868C79.9986 71.5207 79.8747 71.0633 79.6406 70.6603C79.4066 70.2573 79.0707 69.9229 78.6667 69.6908V66.6521C78.665 66.1863 78.541 65.7291 78.307 65.3264C78.073 64.9237 77.7372 64.5895 77.3333 64.3574V49.3174C78.0406 49.3174 78.7189 49.0365 79.219 48.5364C79.7191 48.0363 80 47.358 80 46.6508V42.1334C80.0026 41.5952 79.8414 41.0689 79.5377 40.6245C79.2341 40.1801 78.8024 39.8386 78.3 39.6454ZM61.176 20.5614C60.428 19.81 60.008 18.793 60.008 17.7328C60.008 16.6725 60.428 15.6555 61.176 14.9041L64 17.7334L61.176 20.5614ZM48.924 2.64408L51.7533 5.47475C51.0022 6.22268 49.9853 6.6426 48.9253 6.6426C47.8653 6.6426 46.8485 6.22268 46.0973 5.47475L48.924 2.64408ZM34.7813 8.22408C35.3045 7.99965 35.8811 7.93059 36.4425 8.02517C37.0038 8.11975 37.526 8.37396 37.9467 8.75742L46.584 16.0601C47.0297 16.4837 47.2895 17.0667 47.3065 17.6814C47.3235 18.2961 47.0963 18.8925 46.6747 19.3401C46.242 19.7416 45.6747 19.9666 45.0844 19.9708C44.4941 19.975 43.9237 19.7581 43.4853 19.3628C43.4853 19.3628 39.124 15.6001 38.2667 14.8388C37.5028 14.1644 36.5104 13.807 35.492 13.8395C34.4736 13.872 33.506 14.2918 32.7867 15.0134L19.8 28.0001C18.788 27.3782 17.8172 26.6919 16.8933 25.9454L18.5653 11.7441C24.1092 11.3387 29.5683 10.1537 34.7813 8.22408ZM46.0933 28.1068C45.0876 29.0784 43.7405 29.6162 42.3421 29.6043C40.9437 29.5924 39.606 29.0318 38.617 28.0431C37.6279 27.0544 37.0668 25.7169 37.0544 24.3185C37.042 22.9201 37.5793 21.5728 38.5507 20.5668C38.909 20.2176 39.317 19.9233 39.7613 19.6934C40.4111 20.253 41.064 20.8091 41.72 21.3614C42.4473 22.0194 43.3535 22.4467 44.3239 22.5891C45.2942 22.7315 46.285 22.5827 47.1707 22.1614C47.6134 23.1451 47.7475 24.2399 47.5551 25.3014C47.3628 26.3628 46.8531 27.341 46.0933 28.1068ZM12.6267 29.3161H2.66667V9.31608H14.6667C14.8544 9.3162 15.04 9.35596 15.2113 9.43276C15.3826 9.50956 15.5358 9.62168 15.6608 9.76177C15.7858 9.90186 15.8798 10.0668 15.9366 10.2457C15.9935 10.4246 16.0119 10.6135 15.9907 10.8001L13.9507 28.1334C13.9136 28.4596 13.7574 28.7607 13.5121 28.9789C13.2668 29.1971 12.9496 29.3172 12.6213 29.3161H12.6267ZM23.4667 28.1068C24.2166 28.8569 24.6378 29.8741 24.6378 30.9348C24.6378 31.9954 24.2166 33.0126 23.4667 33.7628L20.636 30.9334L23.4667 28.1068ZM31.0333 39.6441C30.6589 39.7994 30.325 40.0384 30.0573 40.3428L25.352 35.6468C26.5985 34.3951 27.2983 32.7006 27.2983 30.9341C27.2983 29.1676 26.5985 27.4731 25.352 26.2214L34.6747 16.8988C34.9131 16.6576 35.2344 16.5164 35.5732 16.5037C35.9121 16.4911 36.243 16.608 36.4987 16.8308C36.876 17.1681 37.264 17.5121 37.652 17.8548C36.3911 18.7547 35.4187 20.0014 34.8527 21.4434C34.2867 22.8854 34.1516 24.4607 34.4637 25.9781C34.7758 27.4954 35.5218 28.8895 36.6109 29.991C37.7001 31.0926 39.0857 31.8542 40.5994 32.1835C42.1131 32.5127 43.6899 32.3954 45.1382 31.8457C46.5865 31.2961 47.8441 30.3378 48.7582 29.0871C49.6724 27.8365 50.2038 26.3474 50.2879 24.8006C50.372 23.2538 50.0052 21.7158 49.232 20.3734C49.749 19.5334 50.006 18.5592 49.9707 17.5734C49.9495 16.9052 49.7928 16.2482 49.5099 15.6424C49.2271 15.0367 48.8241 14.4947 48.3253 14.0494L42.472 9.10542L44.2053 7.37208C45.4566 8.62034 47.1519 9.32135 48.9193 9.32135C50.6868 9.32135 52.3821 8.62034 53.6333 7.37208L59.2867 13.0294C58.0394 14.2812 57.3391 15.9763 57.3391 17.7434C57.3391 19.5105 58.0394 21.2056 59.2867 22.4574L49.1253 32.6201L31.0333 39.6441ZM37.3333 49.3174V63.9841H34.6667V49.3174H37.3333ZM76 69.3174H70.6667V66.6508H76V69.3174ZM69.3333 64.3548C68.9295 64.5868 68.5937 64.921 68.3597 65.3237C68.1257 65.7265 68.0016 66.1836 68 66.6494V69.3161H60V66.6494C59.9984 66.1836 59.8743 65.7265 59.6403 65.3237C59.4063 64.921 59.0705 64.5868 58.6667 64.3548V49.3174H69.3333V64.3548ZM52 66.6521H57.3333V69.3188H52V66.6521ZM56 63.9854H53.3333V49.3188H56V63.9854ZM50.6667 64.3574C50.2628 64.5895 49.927 64.9237 49.693 65.3264C49.459 65.7291 49.335 66.1863 49.3333 66.6521V69.3188H41.3333V66.6521C41.3317 66.1863 41.2077 65.7291 40.9736 65.3264C40.7396 64.9237 40.4039 64.5895 40 64.3574V49.3174H50.6667V64.3574ZM33.3333 66.6521H38.6667V69.3188H33.3333V66.6521ZM77.3333 77.3188H32V71.9854H77.3333V77.3188ZM74.6667 63.9854H72V49.3188H74.6667V63.9854ZM32 46.6521V42.1334L54.6667 33.3188L77.3333 42.1334V46.6521H32Z" fill="#05A954"/>
<path d="M57.3333 39.9827H52C51.6464 39.9827 51.3072 40.1231 51.0572 40.3732C50.8071 40.6232 50.6667 40.9624 50.6667 41.316C50.6667 41.6696 50.8071 42.0088 51.0572 42.2588C51.3072 42.5089 51.6464 42.6493 52 42.6493H57.3333C57.6869 42.6493 58.0261 42.5089 58.2761 42.2588C58.5262 42.0088 58.6667 41.6696 58.6667 41.316C58.6667 40.9624 58.5262 40.6232 58.2761 40.3732C58.0261 40.1231 57.6869 39.9827 57.3333 39.9827Z" fill="#05A954"/>
</svg>
