<svg width="80" height="80" viewBox="0 0 80 80" fill="none" xmlns="http://www.w3.org/2000/svg">
<path d="M77.9354 21.8384L69.7227 4.82503C69.5689 4.50961 69.354 4.22787 69.0904 3.99619C68.8269 3.76451 68.5199 3.58749 68.1874 3.47542C67.8548 3.36335 67.5034 3.31845 67.1533 3.34334C66.8033 3.36823 66.4617 3.46241 66.1484 3.62041L59.5073 6.99962C58.8943 7.31613 58.4287 7.85893 58.2092 8.51293C57.9896 9.16694 58.0334 9.88073 58.3313 10.503L58.5905 11.0337C57.4605 11.2695 56.2861 11.167 55.214 10.739L45.6494 6.85502C44.9367 6.61748 44.18 6.54161 43.4344 6.63294C42.6887 6.72426 41.9727 6.98047 41.3384 7.38297L21.1136 20.0758H11.3907C10.692 20.0769 10.0222 20.3549 9.52818 20.849C9.03413 21.3431 8.75609 22.0128 8.755 22.7115V41.3374C8.75609 42.0361 9.03413 42.7059 9.52818 43.2C10.0222 43.694 10.692 43.972 11.3907 43.9731H45.0518C45.7508 43.9724 46.4209 43.6945 46.9153 43.2004C47.4096 42.7063 47.6878 42.0364 47.6889 41.3374V33.7264L56.1922 32.5599C56.9584 32.4545 57.6953 32.1951 58.3586 31.7973L66.3748 27.0389C66.4871 27.4211 66.6815 27.7743 66.9443 28.0737C67.2071 28.373 67.5322 28.6115 67.8967 28.7723C68.2612 28.9331 68.6564 29.0124 69.0547 29.0048C69.453 28.9971 69.8449 28.9026 70.2029 28.7278L76.7744 25.3254C77.3863 25.0123 77.8509 24.4716 78.0683 23.8195C78.2857 23.1674 78.2371 22.456 77.9354 21.8384ZM11.3893 22.8057H13.9268C13.9865 23.1318 13.9607 23.4678 13.852 23.781C13.7433 24.0942 13.5553 24.374 13.3065 24.593C13.0576 24.8121 12.7563 24.963 12.4318 25.0311C12.1073 25.0992 11.7708 25.0821 11.4548 24.9816L11.3893 22.8057ZM13.9295 41.2447C13.3293 41.2215 12.0837 41.2829 11.4821 41.3374V39.0714C11.7947 38.9955 12.121 38.9965 12.4332 39.0742C12.7453 39.1519 13.034 39.3041 13.2745 39.5176C13.515 39.7312 13.7002 39.9999 13.8143 40.3006C13.9284 40.6014 13.9679 40.9253 13.9295 41.2447ZM39.9046 41.2447H16.6567C16.6607 41.1696 16.6839 41.096 16.6839 41.0209C16.6835 40.3599 16.5448 39.7063 16.2766 39.1022C16.0084 38.498 15.6167 37.9567 15.1268 37.513C14.6368 37.0693 14.0594 36.7331 13.4317 36.5259C12.804 36.3188 12.1399 36.2453 11.4821 36.3102V27.7469C12.1399 27.8118 12.804 27.7384 13.4317 27.5312C14.0594 27.3241 14.6368 26.9878 15.1268 26.5441C15.6167 26.1004 16.0084 25.5591 16.2766 24.955C16.5448 24.3508 16.6835 23.6972 16.6839 23.0362C16.6839 22.9585 16.6594 22.8834 16.6567 22.8043L44.9591 22.7129V24.043L39.9987 25.9666C35.786 27.3936 35.5581 34.4794 40.5485 34.6704C40.7941 34.7072 44.6153 34.1343 44.9591 34.1015V36.2979C44.2915 36.2468 43.6207 36.3388 42.9915 36.5679C42.3624 36.7969 41.7894 37.1576 41.3109 37.6259C40.8324 38.0942 40.4594 38.6593 40.2168 39.2834C39.9743 39.9075 39.8679 40.5761 39.9046 41.2447ZM45.0505 20.0772H38.9155C41.1024 19.1318 44.0041 17.6161 46.3902 19.0322L50.1241 21.1372C50.2092 21.1837 50.2793 21.2534 50.3262 21.3382C50.3732 21.4231 50.3951 21.5195 50.3894 21.6163C50.3837 21.7131 50.3506 21.8062 50.2939 21.8849C50.2373 21.9636 50.1595 22.0246 50.0695 22.0608L47.6875 22.9844C47.7206 22.617 47.6771 22.2468 47.5598 21.8972C47.4425 21.5475 47.2541 21.2259 47.0063 20.9527C46.7585 20.6796 46.4567 20.4607 46.1201 20.31C45.7835 20.1593 45.4193 20.08 45.0505 20.0772ZM42.6331 41.2447C42.5953 40.9333 42.6316 40.6175 42.7392 40.3229C42.8467 40.0284 43.0223 39.7634 43.2518 39.5496C43.4813 39.3359 43.758 39.1794 44.0594 39.093C44.3609 39.0065 44.6785 38.9926 44.9864 39.0523L45.0505 41.2447H42.6331ZM56.9671 29.4495C56.6186 29.6603 56.2311 29.7985 55.8279 29.856L40.6795 31.9338C38.6877 31.9392 39.5431 28.8642 40.9878 28.5095L51.0558 24.6051C51.6201 24.3763 52.109 23.9941 52.4672 23.5017C52.8254 23.0093 53.0386 22.4265 53.0826 21.8192C53.1266 21.212 52.9997 20.6045 52.7162 20.0656C52.4328 19.5268 52.0041 19.078 51.4788 18.7702L47.7298 16.6557C43.337 13.8413 36.1966 18.2682 33.4872 20.0758H26.2472L42.7913 9.69399C43.071 9.51197 43.3868 9.39272 43.717 9.34444C44.0471 9.29616 44.3839 9.32 44.704 9.41432L54.1881 13.2683C55.9785 13.9865 57.9581 14.0835 59.8101 13.5439L65.1757 24.5764L56.9671 29.4495ZM69.0719 26.3458L60.8251 9.39113L67.2643 6.00919L75.5179 22.9025L69.0719 26.3458Z" fill="#04803F"/>
<path d="M34.0576 32.4515C33.8869 32.3968 33.707 32.3763 33.5284 32.3912C33.3497 32.4061 33.1758 32.4562 33.0165 32.5384C32.8572 32.6207 32.7157 32.7335 32.6001 32.8705C32.4845 33.0076 32.397 33.166 32.3428 33.3369C32.0515 34.2485 31.4662 35.0378 30.6784 35.5813C29.8907 36.1247 28.945 36.3916 27.9893 36.3401C27.0337 36.2887 26.1221 35.9218 25.3973 35.2969C24.6724 34.672 24.1753 33.8244 23.9836 32.8868C23.792 31.9491 23.9166 30.9744 24.3381 30.1152C24.7596 29.256 25.4541 28.5608 26.3128 28.1385C27.1716 27.7161 28.1462 27.5905 29.084 27.7812C30.0218 27.9719 30.8699 28.4682 31.4956 29.1924C31.7368 29.4531 32.0702 29.6096 32.4249 29.6283C32.7796 29.6471 33.1277 29.5268 33.3951 29.293C33.6625 29.0592 33.8282 28.7303 33.8569 28.3762C33.8856 28.0222 33.775 27.6709 33.5487 27.397C32.5256 26.216 31.1398 25.4075 29.6082 25.0981C28.0765 24.7887 26.4855 24.9959 25.0842 25.6872C23.6829 26.3786 22.5503 27.515 21.8638 28.9187C21.1773 30.3224 20.9756 31.9141 21.2902 33.4446C21.6048 34.9752 22.418 36.3582 23.6026 37.3773C24.7871 38.3964 26.2761 38.9939 27.8365 39.0764C29.3969 39.1589 30.9406 38.7217 32.226 37.8333C33.5114 36.9448 34.466 35.6552 34.9403 34.1664C35.0505 33.8219 35.0194 33.4478 34.8539 33.1262C34.6884 32.8047 34.402 32.562 34.0576 32.4515ZM17.0006 30.6617H14.6404C14.2786 30.6617 13.9316 30.8054 13.6758 31.0612C13.4199 31.3171 13.2762 31.6641 13.2762 32.0259C13.2762 32.3877 13.4199 32.7347 13.6758 32.9905C13.9316 33.2464 14.2786 33.3901 14.6404 33.3901H17.0006C17.3624 33.3901 17.7094 33.2464 17.9652 32.9905C18.2211 32.7347 18.3648 32.3877 18.3648 32.0259C18.3648 31.6641 18.2211 31.3171 17.9652 31.0612C17.7094 30.8054 17.3624 30.6617 17.0006 30.6617ZM52.5976 48.765C51.8522 48.2486 50.9419 48.0266 50.0424 48.142C49.1429 48.2574 48.3181 48.702 47.7272 49.3899L41.2212 56.4593C40.769 55.7748 40.1019 55.2603 39.3249 54.9969L32.0958 52.6026C29.8253 51.8866 27.677 50.829 25.7249 49.4663C21.1956 46.2603 16.5163 46.8538 12.4249 51.0733C12.2038 50.6506 11.9015 50.2756 11.5353 49.9698C11.1691 49.664 10.7462 49.4335 10.2908 49.2913C9.83539 49.1491 9.35643 49.0981 8.8813 49.1413C8.40618 49.1844 7.94422 49.3208 7.52187 49.5427L4.20541 51.1934C3.26409 51.6712 2.52706 52.473 2.13 53.4511C1.73293 54.4292 1.70256 55.5179 2.04446 56.5166L3.02671 59.2587C3.15648 59.5887 3.40959 59.8551 3.73243 60.0017C4.05527 60.1482 4.42247 60.1633 4.75624 60.0438C5.09002 59.9242 5.36416 59.6795 5.52057 59.3613C5.67698 59.0431 5.70339 58.6766 5.5942 58.3393L4.61195 55.5944C4.49745 55.2246 4.51577 54.8264 4.66374 54.4687C4.81171 54.111 5.08003 53.8162 5.42231 53.6354L8.74013 51.9846C8.85911 51.9114 8.9933 51.8664 9.13238 51.8532C9.27147 51.8399 9.41174 51.8587 9.54243 51.9081C9.67312 51.9575 9.79074 52.0362 9.88626 52.1381C9.98179 52.2401 10.0527 52.3626 10.0934 52.4962L16.4644 70.2013C16.5786 70.5733 16.5584 70.9736 16.4072 71.3323C16.2561 71.6909 15.9837 71.985 15.6377 72.163L12.3363 73.8138C12.2162 73.8859 12.0815 73.9301 11.9421 73.943C11.8026 73.9559 11.6621 73.9372 11.5309 73.8883C11.3997 73.8394 11.2812 73.7616 11.1842 73.6606C11.0872 73.5596 11.0142 73.438 10.9707 73.3049L7.64192 64.0145C7.58154 63.8457 7.48852 63.6905 7.36816 63.5577C7.2478 63.4249 7.10245 63.3171 6.94043 63.2404C6.6132 63.0856 6.23789 63.0672 5.89706 63.1891C5.55623 63.311 5.27779 63.5634 5.12301 63.8906C4.96822 64.2178 4.94977 64.5931 5.0717 64.934L8.40316 74.2299C8.57999 74.7235 8.86035 75.1736 9.22543 75.5499C9.59052 75.9263 10.0319 76.2202 10.5199 76.4119C11.0079 76.6037 11.5313 76.6888 12.0549 76.6616C12.5786 76.6345 13.0903 76.4956 13.5559 76.2544L16.8519 74.605C17.5937 74.2288 18.2136 73.6497 18.6393 72.9351C19.0651 72.2205 19.2793 71.3998 19.257 70.5683C20.4766 71.204 28.5215 74.4754 29.9472 75.0825C30.735 75.4063 31.5783 75.5735 32.4301 75.575C34.8871 75.796 37.726 73.2626 39.6905 72.0403C41.7307 70.6447 43.6394 69.0661 45.393 67.3241C45.6366 67.0667 45.7704 66.7246 45.7662 66.3703C45.762 66.0159 45.6201 65.6771 45.3705 65.4256C45.1209 65.174 44.7832 65.0295 44.4289 65.0225C44.0746 65.0155 43.7315 65.1467 43.4722 65.3883C41.838 67.0102 40.0599 68.4805 38.1599 69.7811L34.6633 72.1303C34.1374 72.5083 33.5239 72.7461 32.8807 72.8212C32.2374 72.8964 31.5856 72.8065 30.9867 72.56C28.0904 71.3363 20.9364 68.4414 18.2448 67.0895L13.5136 53.9382C16.8969 49.8523 20.4753 49.0938 24.1423 51.69C27.5734 54.3707 34.2554 56.1428 38.4873 57.593C39.8147 58.0691 39.4736 60.8399 38.0807 60.6707L29.7493 59.1278C27.5286 58.7392 25.2425 59.1811 23.3265 60.3692C23.0273 60.5621 22.8153 60.8642 22.7358 61.2111C22.6563 61.5581 22.7155 61.9224 22.9008 62.2263C23.0861 62.5302 23.3829 62.7496 23.7278 62.8377C24.0726 62.9258 24.4383 62.8757 24.7467 62.698C26.0867 61.8499 27.6955 61.5335 29.2569 61.8112L37.6032 63.3569C38.1422 63.4206 38.6885 63.3727 39.2082 63.2163C39.7279 63.0599 40.2099 62.7983 40.6242 62.4477C41.0385 62.0972 41.3762 61.6651 41.6165 61.1785C41.8567 60.6918 41.9943 60.161 42.0206 59.6189L49.7381 51.233C49.8821 51.0323 50.0991 50.896 50.3424 50.8534C50.5857 50.8108 50.836 50.8653 51.0396 51.0051C51.4858 51.4426 51.7791 52.0121 51.8762 52.6294C51.9733 53.2467 51.8689 53.8788 51.5785 54.4321C50.2725 56.8986 48.7426 59.2399 47.0083 61.4265C46.7823 61.7093 46.678 62.0702 46.7181 62.4299C46.7583 62.7896 46.9397 63.1187 47.2225 63.3446C47.5052 63.5706 47.8662 63.675 48.2259 63.6348C48.5856 63.5946 48.9146 63.4132 49.1406 63.1304C51.7954 59.3802 57.7312 52.9014 52.5976 48.765Z" fill="#04803F"/>
</svg>
