<svg width="80" height="80" viewBox="0 0 80 80" fill="none" xmlns="http://www.w3.org/2000/svg">
<path d="M66.6667 14.1253V6.66667C66.662 2.98667 63.68 0.00469333 60 0H6.66667C2.98667 0.00469333 0.00469333 2.98667 0 6.66667V36C0.0103253 39.405 2.59132 42.2526 5.97871 42.598L10.9907 55.6083C12.3147 59.0437 16.1726 60.755 19.6083 59.4327L50.9066 47.376C48.744 53.025 49.3594 59.362 52.5673 64.4896L53.3333 65.7147V78.6667C53.3333 79.4034 53.93 80 54.6667 80H78.6667C79.4034 80 80 79.4034 80 78.6667V34.655C79.9878 30.0443 78.1513 25.6259 74.8917 22.365L66.6667 14.1253ZM66.6667 22.0994L70.7133 32.604C71.5063 34.666 70.4787 36.9796 68.417 37.7733L66.104 38.6667C66.4731 37.826 66.6647 36.9181 66.6667 36V22.0994ZM2.66667 36V6.66667C2.66667 4.45798 4.45798 2.66667 6.66667 2.66667H60C62.2087 2.66667 64 4.45798 64 6.66667V15.1414H63.9883L64 15.1717V36C63.9897 36.2324 63.9593 36.4635 63.9093 36.6907L51.696 24.4761C48.9507 21.794 44.574 21.7733 41.804 24.4273C39.0333 27.0829 38.867 31.4563 41.4293 34.313L46.636 40H6.66667C4.45798 40 2.66667 38.2087 2.66667 36ZM19.748 42.6667L10.2666 46.317L8.86409 42.6667H19.748ZM18.6493 56.9437C16.588 57.7383 14.273 56.7107 13.4787 54.6493L11.2293 48.8L27.1454 42.6667V42.6586H49.0801L50.8131 44.5479L18.6493 56.9437ZM77.3333 77.3333H56V66.6667H77.3333V77.3333ZM77.3333 64H55.4067L54.8284 63.076C51.5773 57.8807 51.448 51.3187 54.4907 46C54.6311 45.7546 54.6898 45.471 54.6584 45.1901C54.627 44.9093 54.5071 44.6456 54.316 44.4373L43.3897 32.5173C41.7603 30.734 41.852 27.977 43.5964 26.3067C45.3414 24.636 48.0997 24.6633 49.8103 26.3673L71.0573 47.6093L72.9427 45.724L68.0093 40.7907L69.3774 40.2574C72.81 38.933 74.5207 35.0783 73.2 31.6436L68.687 19.925L73.0063 24.2534C75.7666 27.0125 77.3223 30.7522 77.3333 34.655V64Z" fill="#05A954"/>
<path d="M15.2 18.6666C17.1147 18.6666 18.6666 17.1145 18.6666 15.1999V8.79992C18.6666 6.88521 17.1146 5.33325 15.2 5.33325H8.79998C6.88527 5.33325 5.33331 6.88529 5.33331 8.79992V15.1999C5.33331 17.1146 6.88536 18.6666 8.79998 18.6666H15.2ZM7.99998 15.1999V13.3333H10.6666V10.6666H7.99998V8.79992C7.99998 8.35823 8.35838 7.99992 8.79998 7.99992H15.2C15.6417 7.99992 16 8.35832 16 8.79992V10.6666H13.3333V13.3333H16V15.1999C16 15.6416 15.6416 15.9999 15.2 15.9999H8.79998C8.35829 15.9999 7.99998 15.6415 7.99998 15.1999ZM6.66665 22.6666H12V25.3333H6.66665V22.6666ZM6.66665 30.6666H12V33.3333H6.66665V30.6666ZM30.6666 30.6666H36V33.3333H30.6666V30.6666ZM14.6666 22.6666H20V25.3333H14.6666V22.6666ZM22.6666 22.6666H28V25.3333H22.6666V22.6666ZM30.6666 22.6666H36V25.3333H30.6666V22.6666ZM56 6.66659H58.6666V10.6666H56V6.66659ZM50.6666 6.66659H53.3333V10.6666H50.6666V6.66659ZM45.3333 6.66659H48V10.6666H45.3333V6.66659ZM40 6.66659H42.6666V10.6666H40V6.66659ZM58.6666 69.3333H61.3333V71.9999H58.6666V69.3333Z" fill="#05A954"/>
</svg>
