<svg width="80" height="80" viewBox="0 0 80 80" fill="none" xmlns="http://www.w3.org/2000/svg">
<path d="M62.6667 42.7347V21.1067C62.6652 20.5557 62.5499 20.011 62.328 19.5067C62.3147 19.4747 62.2947 19.448 62.28 19.4187C62.0854 18.9928 61.8178 18.6043 61.4893 18.2707L52.4 9.17733C52.0664 8.84885 51.6778 8.58126 51.252 8.38667C51.2227 8.372 51.196 8.352 51.164 8.33867C50.6585 8.11625 50.1123 8.00094 49.56 8H32V4C32 2.93913 31.5786 1.92172 30.8284 1.17157C30.0783 0.421427 29.0609 0 28 0L4 0C2.93913 0 1.92172 0.421427 1.17157 1.17157C0.421427 1.92172 0 2.93913 0 4L0 38.6667C0 39.7275 0.421427 40.7449 1.17157 41.4951C1.92172 42.2452 2.93913 42.6667 4 42.6667H14.6667V68C14.6667 69.0609 15.0881 70.0783 15.8382 70.8284C16.5884 71.5786 17.6058 72 18.6667 72H46.036C47.8367 74.5868 50.2634 76.6753 53.0897 78.0704C55.916 79.4654 59.0496 80.1217 62.1982 79.9778C65.3467 79.8339 68.4075 78.8946 71.0948 77.2476C73.7821 75.6006 76.0082 73.2995 77.5654 70.5593C79.1227 67.819 79.9602 64.7288 79.9998 61.5772C80.0395 58.4256 79.28 55.3154 77.7921 52.5368C76.3043 49.7582 74.1368 47.4019 71.4918 45.6878C68.8468 43.9737 65.8106 42.9577 62.6667 42.7347ZM58.1147 18.6667H53.3333C52.9797 18.6667 52.6406 18.5262 52.3905 18.2761C52.1405 18.0261 52 17.687 52 17.3333V12.552L58.1147 18.6667ZM2.66667 38.6667V4C2.66667 3.64638 2.80714 3.30724 3.05719 3.05719C3.30724 2.80714 3.64638 2.66667 4 2.66667H28C28.3536 2.66667 28.6928 2.80714 28.9428 3.05719C29.1929 3.30724 29.3333 3.64638 29.3333 4V38.6667C29.3333 39.0203 29.1929 39.3594 28.9428 39.6095C28.6928 39.8595 28.3536 40 28 40H4C3.64638 40 3.30724 39.8595 3.05719 39.6095C2.80714 39.3594 2.66667 39.0203 2.66667 38.6667ZM18.6667 69.3333C18.313 69.3333 17.9739 69.1929 17.7239 68.9428C17.4738 68.6928 17.3333 68.3536 17.3333 68V42.6667H28C29.0609 42.6667 30.0783 42.2452 30.8284 41.4951C31.5786 40.7449 32 39.7275 32 38.6667V10.6667H49.3333V17.3333C49.3333 18.3942 49.7548 19.4116 50.5049 20.1618C51.2551 20.9119 52.2725 21.3333 53.3333 21.3333H60V42.7347C56.97 42.9419 54.0368 43.8878 51.4567 45.4897C48.8765 47.0917 46.7277 49.3011 45.1981 51.9248C43.6685 54.5485 42.8046 57.5069 42.6817 60.5415C42.5589 63.576 43.1808 66.5945 44.4933 69.3333H18.6667ZM61.3333 77.3333C52.4973 77.3333 45.3333 70.1693 45.3333 61.3333C45.3333 52.4973 52.4973 45.3333 61.3333 45.3333C70.1693 45.3333 77.3333 52.4973 77.3333 61.3333C77.324 70.1653 70.1653 77.324 61.3333 77.3333Z" fill="#05A954"/>
<path d="M8.00004 21.3333H24C24.7073 21.3333 25.3856 21.0523 25.8857 20.5522C26.3858 20.0521 26.6667 19.3738 26.6667 18.6666V7.99992C26.6667 7.29267 26.3858 6.6144 25.8857 6.1143C25.3856 5.6142 24.7073 5.33325 24 5.33325H8.00004C7.2928 5.33325 6.61452 5.6142 6.11442 6.1143C5.61433 6.6144 5.33337 7.29267 5.33337 7.99992V18.6666C5.33337 19.3738 5.61433 20.0521 6.11442 20.5522C6.61452 21.0523 7.2928 21.3333 8.00004 21.3333ZM8.00004 7.99992H24V18.6666H8.00004V7.99992ZM65.3334 55.9999C65.3334 56.3535 65.4739 56.6927 65.7239 56.9427C65.9739 57.1928 66.3131 57.3333 66.6667 57.3333C67.0203 57.3333 67.3595 57.1928 67.6095 56.9427C67.8596 56.6927 68 56.3535 68 55.9999C67.9981 54.4636 67.4666 52.975 66.4951 51.7849C65.5236 50.5948 64.1715 49.7761 62.6667 49.4666V49.3333C62.6667 48.9796 62.5262 48.6405 62.2762 48.3904C62.0261 48.1404 61.687 47.9999 61.3334 47.9999C60.9798 47.9999 60.6406 48.1404 60.3906 48.3904C60.1405 48.6405 60 48.9796 60 49.3333V49.4666C58.493 49.7726 57.1381 50.5902 56.1649 51.7809C55.1917 52.9716 54.66 54.4621 54.66 55.9999C54.66 57.5377 55.1917 59.0283 56.1649 60.2189C57.1381 61.4096 58.493 62.2272 60 62.5333V70.4226C59.2226 70.1477 58.5491 69.6393 58.0718 68.967C57.5944 68.2946 57.3365 67.4912 57.3334 66.6666C57.3334 66.313 57.1929 65.9738 56.9429 65.7238C56.6928 65.4737 56.3537 65.3333 56 65.3333C55.6464 65.3333 55.3073 65.4737 55.0572 65.7238C54.8072 65.9738 54.6667 66.313 54.6667 66.6666C54.6686 68.2029 55.2002 69.6915 56.1717 70.8816C57.1432 72.0717 58.4953 72.8905 60 73.1999V73.3333C60 73.6869 60.1405 74.026 60.3906 74.2761C60.6406 74.5261 60.9798 74.6666 61.3334 74.6666C61.687 74.6666 62.0261 74.5261 62.2762 74.2761C62.5262 74.026 62.6667 73.6869 62.6667 73.3333V73.1999C64.1738 72.8939 65.5287 72.0763 66.5019 70.8856C67.4751 69.6949 68.0067 68.2044 68.0067 66.6666C68.0067 65.1288 67.4751 63.6383 66.5019 62.4476C65.5287 61.2569 64.1738 60.4393 62.6667 60.1333V52.2453C63.4439 52.52 64.1173 53.0282 64.5946 53.7003C65.0719 54.3724 65.33 55.1756 65.3334 55.9999ZM57.3334 55.9999C57.3368 55.1756 57.5948 54.3724 58.0722 53.7003C58.5495 53.0282 59.2228 52.52 60 52.2453V59.7546C59.2228 59.4798 58.5495 58.9716 58.0722 58.2995C57.5948 57.6274 57.3368 56.8243 57.3334 55.9999ZM65.3334 66.6666C65.33 67.4909 65.0719 68.2941 64.5946 68.9662C64.1173 69.6383 63.4439 70.1465 62.6667 70.4213V62.9119C63.4439 63.1867 64.1173 63.6949 64.5946 64.367C65.0719 65.0391 65.33 65.8422 65.3334 66.6666ZM9.33337 23.9999H6.66671C6.31309 23.9999 5.97395 24.1404 5.7239 24.3904C5.47385 24.6405 5.33337 24.9796 5.33337 25.3333C5.33337 25.6869 5.47385 26.026 5.7239 26.2761C5.97395 26.5261 6.31309 26.6666 6.66671 26.6666H9.33337C9.687 26.6666 10.0261 26.5261 10.2762 26.2761C10.5262 26.026 10.6667 25.6869 10.6667 25.3333C10.6667 24.9796 10.5262 24.6405 10.2762 24.3904C10.0261 24.1404 9.687 23.9999 9.33337 23.9999ZM9.33337 29.3333H6.66671C6.31309 29.3333 5.97395 29.4737 5.7239 29.7238C5.47385 29.9738 5.33337 30.313 5.33337 30.6666C5.33337 31.0202 5.47385 31.3594 5.7239 31.6094C5.97395 31.8594 6.31309 31.9999 6.66671 31.9999H9.33337C9.687 31.9999 10.0261 31.8594 10.2762 31.6094C10.5262 31.3594 10.6667 31.0202 10.6667 30.6666C10.6667 30.313 10.5262 29.9738 10.2762 29.7238C10.0261 29.4737 9.687 29.3333 9.33337 29.3333ZM9.33337 34.6666H6.66671C6.31309 34.6666 5.97395 34.8071 5.7239 35.0571C5.47385 35.3072 5.33337 35.6463 5.33337 35.9999C5.33337 36.3535 5.47385 36.6927 5.7239 36.9427C5.97395 37.1928 6.31309 37.3333 6.66671 37.3333H9.33337C9.687 37.3333 10.0261 37.1928 10.2762 36.9427C10.5262 36.6927 10.6667 36.3535 10.6667 35.9999C10.6667 35.6463 10.5262 35.3072 10.2762 35.0571C10.0261 34.8071 9.687 34.6666 9.33337 34.6666ZM17.3334 23.9999H14.6667C14.3131 23.9999 13.9739 24.1404 13.7239 24.3904C13.4739 24.6405 13.3334 24.9796 13.3334 25.3333C13.3334 25.6869 13.4739 26.026 13.7239 26.2761C13.9739 26.5261 14.3131 26.6666 14.6667 26.6666H17.3334C17.687 26.6666 18.0261 26.5261 18.2762 26.2761C18.5262 26.026 18.6667 25.6869 18.6667 25.3333C18.6667 24.9796 18.5262 24.6405 18.2762 24.3904C18.0261 24.1404 17.687 23.9999 17.3334 23.9999ZM17.3334 29.3333H14.6667C14.3131 29.3333 13.9739 29.4737 13.7239 29.7238C13.4739 29.9738 13.3334 30.313 13.3334 30.6666C13.3334 31.0202 13.4739 31.3594 13.7239 31.6094C13.9739 31.8594 14.3131 31.9999 14.6667 31.9999H17.3334C17.687 31.9999 18.0261 31.8594 18.2762 31.6094C18.5262 31.3594 18.6667 31.0202 18.6667 30.6666C18.6667 30.313 18.5262 29.9738 18.2762 29.7238C18.0261 29.4737 17.687 29.3333 17.3334 29.3333ZM18.6667 35.9999C18.6667 35.6463 18.5262 35.3072 18.2762 35.0571C18.0261 34.8071 17.687 34.6666 17.3334 34.6666H14.6667C14.3131 34.6666 13.9739 34.8071 13.7239 35.0571C13.4739 35.3072 13.3334 35.6463 13.3334 35.9999C13.3334 36.3535 13.4739 36.6927 13.7239 36.9427C13.9739 37.1928 14.3131 37.3333 14.6667 37.3333H17.3334C17.687 37.3333 18.0261 37.1928 18.2762 36.9427C18.5262 36.6927 18.6667 36.3535 18.6667 35.9999ZM25.3334 23.9999H22.6667C22.3131 23.9999 21.9739 24.1404 21.7239 24.3904C21.4738 24.6405 21.3334 24.9796 21.3334 25.3333C21.3334 25.6869 21.4738 26.026 21.7239 26.2761C21.9739 26.5261 22.3131 26.6666 22.6667 26.6666H25.3334C25.687 26.6666 26.0261 26.5261 26.2762 26.2761C26.5262 26.026 26.6667 25.6869 26.6667 25.3333C26.6667 24.9796 26.5262 24.6405 26.2762 24.3904C26.0261 24.1404 25.687 23.9999 25.3334 23.9999ZM25.3334 29.3333H22.6667C22.3131 29.3333 21.9739 29.4737 21.7239 29.7238C21.4738 29.9738 21.3334 30.313 21.3334 30.6666C21.3334 31.0202 21.4738 31.3594 21.7239 31.6094C21.9739 31.8594 22.3131 31.9999 22.6667 31.9999H25.3334C25.687 31.9999 26.0261 31.8594 26.2762 31.6094C26.5262 31.3594 26.6667 31.0202 26.6667 30.6666C26.6667 30.313 26.5262 29.9738 26.2762 29.7238C26.0261 29.4737 25.687 29.3333 25.3334 29.3333ZM25.3334 34.6666H22.6667C22.3131 34.6666 21.9739 34.8071 21.7239 35.0571C21.4738 35.3072 21.3334 35.6463 21.3334 35.9999C21.3334 36.3535 21.4738 36.6927 21.7239 36.9427C21.9739 37.1928 22.3131 37.3333 22.6667 37.3333H25.3334C25.687 37.3333 26.0261 37.1928 26.2762 36.9427C26.5262 36.6927 26.6667 36.3535 26.6667 35.9999C26.6667 35.6463 26.5262 35.3072 26.2762 35.0571C26.0261 34.8071 25.687 34.6666 25.3334 34.6666ZM37.3334 29.3333H54.6667C55.0203 29.3333 55.3595 29.1928 55.6095 28.9427C55.8596 28.6927 56 28.3535 56 27.9999C56 27.6463 55.8596 27.3072 55.6095 27.0571C55.3595 26.8071 55.0203 26.6666 54.6667 26.6666H37.3334C36.9798 26.6666 36.6406 26.8071 36.3906 27.0571C36.1405 27.3072 36 27.6463 36 27.9999C36 28.3535 36.1405 28.6927 36.3906 28.9427C36.6406 29.1928 36.9798 29.3333 37.3334 29.3333ZM37.3334 35.9999H54.6667C55.0203 35.9999 55.3595 35.8594 55.6095 35.6094C55.8596 35.3594 56 35.0202 56 34.6666C56 34.313 55.8596 33.9738 55.6095 33.7238C55.3595 33.4737 55.0203 33.3333 54.6667 33.3333H37.3334C36.9798 33.3333 36.6406 33.4737 36.3906 33.7238C36.1405 33.9738 36 34.313 36 34.6666C36 35.0202 36.1405 35.3594 36.3906 35.6094C36.6406 35.8594 36.9798 35.9999 37.3334 35.9999ZM37.3334 42.6666H54.6667C55.0203 42.6666 55.3595 42.5261 55.6095 42.2761C55.8596 42.026 56 41.6869 56 41.3333C56 40.9796 55.8596 40.6405 55.6095 40.3904C55.3595 40.1404 55.0203 39.9999 54.6667 39.9999H37.3334C36.9798 39.9999 36.6406 40.1404 36.3906 40.3904C36.1405 40.6405 36 40.9796 36 41.3333C36 41.6869 36.1405 42.026 36.3906 42.2761C36.6406 42.5261 36.9798 42.6666 37.3334 42.6666ZM41.3334 46.6666H22.6667C22.3131 46.6666 21.9739 46.8071 21.7239 47.0571C21.4738 47.3072 21.3334 47.6463 21.3334 47.9999C21.3334 48.3535 21.4738 48.6927 21.7239 48.9427C21.9739 49.1928 22.3131 49.3333 22.6667 49.3333H41.3334C41.687 49.3333 42.0261 49.1928 42.2762 48.9427C42.5262 48.6927 42.6667 48.3535 42.6667 47.9999C42.6667 47.6463 42.5262 47.3072 42.2762 47.0571C42.0261 46.8071 41.687 46.6666 41.3334 46.6666ZM38.6667 53.3333H22.6667C22.3131 53.3333 21.9739 53.4737 21.7239 53.7238C21.4738 53.9738 21.3334 54.313 21.3334 54.6666C21.3334 55.0202 21.4738 55.3594 21.7239 55.6094C21.9739 55.8595 22.3131 55.9999 22.6667 55.9999H38.6667C39.0203 55.9999 39.3595 55.8595 39.6095 55.6094C39.8596 55.3594 40 55.0202 40 54.6666C40 54.313 39.8596 53.9738 39.6095 53.7238C39.3595 53.4737 39.0203 53.3333 38.6667 53.3333ZM37.3334 59.9999H22.6667C22.3131 59.9999 21.9739 60.1404 21.7239 60.3904C21.4738 60.6405 21.3334 60.9796 21.3334 61.3333C21.3334 61.6869 21.4738 62.026 21.7239 62.2761C21.9739 62.5261 22.3131 62.6666 22.6667 62.6666H37.3334C37.687 62.6666 38.0261 62.5261 38.2762 62.2761C38.5262 62.026 38.6667 61.6869 38.6667 61.3333C38.6667 60.9796 38.5262 60.6405 38.2762 60.3904C38.0261 60.1404 37.687 59.9999 37.3334 59.9999Z" fill="#05A954"/>
</svg>
