<svg width="24" height="24" viewBox="0 0 24 24" fill="none" xmlns="http://www.w3.org/2000/svg">
<path d="M5.36482 0.188106L0.908932 2.32528H0.0484009V6.09618H5.10603L10.2757 4.63617L7.78779 0.8602C7.26195 0.0619186 6.22676 -0.225238 5.36482 0.188106Z" fill="#FFCBBE"/>
<path d="M4.75629 4.31713V4.46896H8.63365V3.19171H5.88171C5.26019 3.19171 4.75629 3.69557 4.75629 4.31713Z" fill="#EAAC9D"/>
<path d="M6.60059 9.35931V2.63374C6.60059 1.54408 7.48395 0.660767 8.57355 0.660767H18.42C19.5097 0.660767 20.393 1.54413 20.393 2.63374V9.35927C20.393 10.4489 19.5096 11.3322 18.42 11.3322H8.5736C7.48395 11.3323 6.60059 10.4489 6.60059 9.35931Z" fill="#8BC852"/>
<path d="M7.75946 8.53649V3.4566C8.66354 3.4566 9.39648 2.72366 9.39648 1.81958H17.5973C17.5973 2.72366 18.3302 3.4566 19.2343 3.4566V8.53649C18.3302 8.53649 17.5973 9.26942 17.5973 10.1735H9.39648C9.39648 9.26938 8.66354 8.53649 7.75946 8.53649Z" fill="#69AF81"/>
<path d="M13.4969 8.69318C14.9862 8.69318 16.1935 7.48586 16.1935 5.99655C16.1935 4.50725 14.9862 3.29993 13.4969 3.29993C12.0076 3.29993 10.8002 4.50725 10.8002 5.99655C10.8002 7.48586 12.0076 8.69318 13.4969 8.69318Z" fill="#8BC852"/>
<path d="M18.2128 6.35871H17.2944C17.2468 6.35871 17.1998 6.34934 17.1558 6.33114C17.1119 6.31294 17.072 6.28627 17.0383 6.25264C17.0047 6.21901 16.978 6.17909 16.9598 6.13515C16.9416 6.09121 16.9323 6.04411 16.9323 5.99656C16.9323 5.949 16.9416 5.9019 16.9598 5.85796C16.978 5.81403 17.0047 5.7741 17.0383 5.74047C17.072 5.70684 17.1119 5.68017 17.1558 5.66197C17.1998 5.64377 17.2468 5.6344 17.2944 5.6344H18.2128C18.4129 5.6344 18.575 5.79654 18.575 5.99656C18.575 6.19657 18.4129 6.35871 18.2128 6.35871Z" fill="#8BC852"/>
<path d="M10.7151 4.14972H0.0484009V6.72128H1.45671L2.08498 7.37331C3.30903 8.64311 5.30398 8.75556 6.66293 7.63211L7.41692 7.00844H10.715C11.1096 7.00844 11.4668 6.84841 11.7256 6.59003C11.9844 6.33124 12.1444 5.97367 12.1444 5.57908C12.1444 4.78989 11.5043 4.14972 10.7151 4.14972Z" fill="#FFCBBE"/>
<path d="M7.36118 6.14243C5.60857 7.5919 3.03514 7.4465 1.45671 5.80911H0.0484009V6.72129H1.45671L2.08498 7.37332C3.30903 8.64312 5.30398 8.75557 6.66293 7.63212L7.41692 7.00845H10.715C11.1096 7.00845 11.4668 6.84842 11.7256 6.59004C11.9844 6.33125 12.1444 5.97415 12.1444 5.57909C12.1444 5.41953 12.1183 5.26634 12.0703 5.12323C11.9996 5.33202 11.8816 5.52166 11.7256 5.67739C11.4668 5.93618 11.1097 6.09621 10.715 6.09621H7.41692L7.36118 6.14243Z" fill="#EAAC9D"/>
<path d="M7.01192 15.9517C7.03976 16.9021 7.10403 17.851 7.20458 18.7965C7.25788 19.2984 7.66381 19.6883 8.16646 19.7283C11.3429 19.9804 14.5344 19.9804 17.7109 19.7283C18.2139 19.6883 18.6198 19.2984 18.6731 18.7965C18.6781 18.7493 18.683 18.7025 18.6876 18.6552C18.9515 16.0823 18.9465 13.5089 18.6731 10.936C18.6198 10.4345 18.2139 10.0442 17.7109 10.0042C16.6928 9.92352 15.6729 9.86867 14.652 9.83969C13.5097 9.80734 12.3677 9.80734 11.2253 9.83969C10.2045 9.86868 9.18456 9.92353 8.1665 10.0042C7.66386 10.0442 7.25797 10.4345 7.20463 10.936C7.02716 12.608 6.9628 14.2796 7.01192 15.9517Z" fill="#F4DD45"/>
<path d="M7.0119 15.9517C7.03974 16.9021 7.104 17.8511 7.20456 18.7966C7.25786 19.2985 7.66379 19.6884 8.16643 19.7283C11.3429 19.9804 14.5344 19.9804 17.7108 19.7283C18.2139 19.6884 18.6198 19.2985 18.6731 18.7966C18.6781 18.7494 18.683 18.7025 18.6876 18.6553C18.5067 18.0765 17.6949 17.4619 14.8055 17.9223C9.92073 18.7006 7.0119 15.9517 7.0119 15.9517Z" fill="#ECBE6B"/>
<path d="M17.0978 19.7738C17.3022 19.7597 17.5068 19.7448 17.7112 19.7284C18.2139 19.6885 18.6198 19.2985 18.6731 18.7967C18.9515 16.1839 18.9515 13.5489 18.6731 10.9361C18.6198 10.4346 18.2139 10.0443 17.7112 10.0043C17.5068 9.98833 17.3023 9.97309 17.0978 9.95898C17.2921 10.1415 17.4144 10.3877 17.4424 10.6528C17.7409 13.4618 17.7409 16.2709 17.4424 19.0799C17.4145 19.3451 17.2922 19.5913 17.0978 19.7738Z" fill="#ECBE6B"/>
<path d="M11.2253 9.83969V13.8052L12.9389 12.6114L14.652 13.8052V9.83969C13.5097 9.80734 12.3677 9.80734 11.2253 9.83969Z" fill="#595959"/>
<path d="M5.70992 18.7081H5.71025L10.6222 22.6481C10.8222 22.8085 11.0522 22.9273 11.2987 22.9974C11.5453 23.0676 11.8034 23.0878 12.0578 23.0568L18.678 22.2511L20.442 22.9036C21.3896 21.929 21.0002 18.7935 21.0002 18.7935L20.5801 18.6785C20.6165 18.1172 20.3518 17.5598 19.8604 17.2409C19.8056 17.2051 19.7485 17.1727 19.6896 17.144L16.8508 15.7577L15.3909 15.0446C15.3129 15.0064 15.2316 14.9758 15.1478 14.953C14.5376 14.7858 13.8751 15.0541 13.5627 15.6296C13.2084 16.2828 13.4317 17.0994 14.0692 17.4813L16.4292 18.8957L12.4579 19.5874C11.9798 19.6705 11.488 19.5699 11.081 19.3056L7.1314 16.7417C6.60162 16.3975 5.89676 16.517 5.50953 17.0166C5.41212 17.1421 5.34026 17.2855 5.29803 17.4387C5.17386 17.8919 5.32067 18.3957 5.70992 18.7081Z" fill="#FFCBBE"/>
<path d="M12.0687 21.9985C14.7883 22.3518 16.6633 20.757 17.7976 19.2566C18.36 18.5126 18.1704 17.4484 17.3852 16.9451C14.6466 15.1897 13.9382 15.2542 13.5628 15.6296C13.8752 15.0541 14.5377 14.7858 15.1479 14.953C15.2316 14.9757 15.313 15.0064 15.3909 15.0446L16.8509 15.7577L19.1518 16.8813L19.1521 16.8818L19.6897 17.144C20.2898 17.437 20.6205 18.0551 20.5801 18.6785L21.9668 19.0436C21.9668 19.0436 21.3896 21.9291 20.442 22.9036L18.678 22.2511L12.0578 23.0568C11.8034 23.0878 11.5453 23.0676 11.2988 22.9975C11.0522 22.9273 10.8222 22.8085 10.6222 22.6481L5.71027 18.7081C7.40766 18.2476 10.2369 21.7183 12.0687 21.9985Z" fill="#EAAC9D"/>
<path d="M23.5984 21.7831C24.2556 19.9219 24.04 18.1487 23.1168 17.8227C22.1935 17.4967 20.9123 18.7412 20.255 20.6025C19.5977 22.4637 19.8133 24.2369 20.7366 24.5629C21.6598 24.889 22.9411 23.6444 23.5984 21.7831Z" fill="#3B66C1"/>
<path d="M19.9037 23.1645C20.6298 23.6181 21.4177 23.8964 22.2676 24C22.4361 23.5945 22.5988 23.1866 22.7557 22.7765C21.8704 22.6672 21.0483 22.3797 20.2894 21.9136C20.1549 22.3288 20.0264 22.7458 19.9037 23.1645Z" fill="#26457D"/>
<path d="M21.4101 22.8958C21.6101 22.8958 21.7722 22.7336 21.7722 22.5336C21.7722 22.3336 21.6101 22.1714 21.4101 22.1714C21.2101 22.1714 21.0479 22.3336 21.0479 22.5336C21.0479 22.7336 21.2101 22.8958 21.4101 22.8958Z" fill="#454545"/>
</svg>
