<svg width="24" height="24" viewBox="0 0 24 24" fill="none" xmlns="http://www.w3.org/2000/svg">
<path d="M12 0C11.8007 0 11.6025 0.00510937 11.4056 0.0151875L1.06479 7.96837C0.708731 9.07655 0.515747 10.2578 0.515747 11.4843C0.515747 17.8269 5.65747 22.9687 12.0001 22.9687C18.3427 22.9687 23.4844 17.8269 23.4844 11.4843C23.4844 5.14172 18.3426 0 12 0Z" fill="#FFDD40"/>
<path d="M22.4213 16.2046L15.5735 4.34381C15.8916 5.17762 16.0664 6.08161 16.0664 7.02581V21.5595C16.0668 22.0523 15.9173 22.5335 15.6376 22.9392L21.528 19.5383C22.6934 18.8655 23.0942 17.37 22.4213 16.2046Z" fill="#5C5C87"/>
<path d="M20.9494 19.759C20.6383 19.6604 20.5991 19.393 20.6098 19.2175C20.6152 19.1307 20.5613 19.0491 20.4789 19.0214C20.2337 18.9387 20.1774 18.7435 20.1711 18.6027C20.1669 18.5088 20.1005 18.4297 20.0082 18.4121C17.0896 17.8534 16.3363 15.2884 16.1892 14.6271C16.1821 14.5952 16.1671 14.5655 16.1457 14.5407C16.1242 14.5159 16.097 14.4968 16.0664 14.4851V21.5596C16.0669 22.0523 15.9173 22.5335 15.6376 22.9392L21.0418 19.8191C21.0169 19.7911 20.985 19.7704 20.9494 19.759Z" fill="#41416B"/>
<path d="M21.3421 16.8276L16.0664 7.68982V21.2526L20.905 18.4591C21.4753 18.1298 21.6714 17.398 21.3421 16.8276Z" fill="#41416B"/>
<path d="M20.1711 18.6027C20.1669 18.5088 20.1005 18.4297 20.0082 18.4121C17.0896 17.8534 16.3364 15.2884 16.1893 14.6271C16.1821 14.5952 16.1671 14.5655 16.1457 14.5407C16.1242 14.5159 16.097 14.4968 16.0664 14.4851V21.2527L20.241 18.8425C20.1914 18.7634 20.1744 18.6758 20.1711 18.6027Z" fill="#35355E"/>
<path d="M15.6655 21.9035C15.5824 21.9036 15.5015 21.8763 15.4355 21.8258C15.3695 21.7754 15.3219 21.7046 15.3001 21.6244C15.2783 21.5442 15.2835 21.459 15.315 21.3821C15.3464 21.3052 15.4024 21.2407 15.4741 21.1988L20.7139 18.1326C21.1055 17.9065 21.2395 17.4065 21.0145 17.0168L15.3379 7.22832C15.2888 7.14161 15.2759 7.03903 15.302 6.94287C15.3281 6.84672 15.3911 6.76474 15.4773 6.71475C15.5635 6.66476 15.666 6.6508 15.7624 6.67589C15.8588 6.70098 15.9414 6.76311 15.9923 6.84877L21.6693 16.6379C22.1032 17.3894 21.8451 18.3531 21.0942 18.7867L15.8562 21.8517C15.7983 21.8856 15.7325 21.9035 15.6655 21.9035Z" fill="#35355E"/>
<path d="M20.4789 19.0214C20.2337 18.9387 20.1774 18.7435 20.1711 18.6027C20.1692 18.5571 20.1521 18.5135 20.1226 18.4787L15.4741 21.1988C15.3884 21.2499 15.3263 21.3328 15.3014 21.4295C15.2765 21.5261 15.2908 21.6287 15.3412 21.7148C15.3916 21.801 15.474 21.8637 15.5705 21.8894C15.667 21.915 15.7697 21.9015 15.8562 21.8518L20.5729 19.0917C20.5497 19.059 20.5169 19.0344 20.4789 19.0214Z" fill="#28284C"/>
<path d="M11.4056 0.0151978C11.2327 0.0240103 11.0609 0.0370884 10.8901 0.0534946L10.8902 0.0536353L10.036 0.16801V0.167588C5.79821 0.897995 2.35552 3.95087 1.06482 7.96839V21.5595C1.06482 22.9052 2.15958 24 3.50527 24H13.7183C15.0639 24 16.1587 22.9052 16.1587 21.5596V7.02578C16.1587 3.85093 14.1879 1.12792 11.4056 0.0151978ZM8.61174 5.9252C7.81529 5.9252 7.16963 5.27954 7.16963 4.48314C7.16963 3.68668 7.81529 3.04103 8.61174 3.04103C9.40819 3.04103 10.0539 3.68668 10.0539 4.48314C10.0539 5.27954 9.40819 5.9252 8.61174 5.9252Z" fill="#FF7186"/>
<path d="M13.8737 23.9945C13.8574 23.9592 13.832 23.929 13.8 23.9069C13.5481 23.7352 13.5688 23.4909 13.6258 23.3228C13.6592 23.2242 13.6228 23.1128 13.5334 23.0593C13.3126 22.927 13.288 22.6927 13.3007 22.5358C13.3085 22.4383 13.2492 22.3492 13.1586 22.3123C11.8754 21.7905 11.753 20.6625 11.7692 20.1455C11.7735 20.0078 11.6543 19.9002 11.5172 19.9136C9.166 20.1443 9.2709 17.9231 9.36198 17.2194C9.37543 17.1152 9.31548 17.0175 9.21821 16.978C9.02607 16.8998 8.98028 16.6975 8.96945 16.5993C8.9655 16.5613 8.95179 16.5248 8.92965 16.4936L8.33687 15.6673C8.30115 15.6182 8.24742 15.5852 8.18743 15.5755C8.05178 15.5527 7.98723 15.4771 7.95714 15.4015C7.91668 15.3 7.80596 15.2448 7.69848 15.265L6.66845 15.4587C6.62664 15.4668 6.58337 15.4628 6.54376 15.4472C5.04029 14.841 5.68562 13.3118 5.90401 12.8817C5.92206 12.8459 5.93029 12.8059 5.92784 12.7659C5.9254 12.7258 5.91237 12.6872 5.89009 12.6538L5.70929 12.3819C5.67123 12.3247 5.60926 12.2886 5.54087 12.2814C3.50209 12.0673 2.89731 10.5354 2.73929 9.94863C2.70887 9.83556 2.59726 9.76652 2.48157 9.78461C2.20384 9.82802 2.06073 9.65889 1.99131 9.52014C1.94753 9.43263 1.85331 9.3805 1.7566 9.39564C1.30107 9.46713 1.13809 9.20041 1.08625 9.06902C1.08041 9.05465 1.07317 9.0409 1.06464 9.02795V21.5597C1.06478 22.9052 2.15954 24 3.50523 24H13.7182C13.7705 24 13.8222 23.9978 13.8737 23.9945Z" fill="#FF4155"/>
<path d="M7.85597 4.01883C7.97715 4.33435 8.27382 4.53821 8.61174 4.53821H8.61183C8.71215 4.5382 8.80835 4.49834 8.87928 4.42741C8.95021 4.35647 8.99005 4.26026 8.99004 4.15995C8.99004 4.05963 8.95018 3.96343 8.87925 3.8925C8.80831 3.82158 8.7121 3.78173 8.61179 3.78174H8.61169C8.57522 3.78174 8.56636 3.75872 8.56215 3.74766L7.4783 0.924988C7.24586 1.02455 7.01678 1.1318 6.79144 1.24655L7.85597 4.01883Z" fill="#C8CEFC"/>
<path d="M14.9125 7.02579C14.9125 3.55155 12.086 0.725037 8.61177 0.725037C8.35682 0.725037 8.10552 0.740693 7.8584 0.770271C5.82276 1.55768 4.06757 2.90805 2.78422 4.63099C2.47954 5.36969 2.31097 6.17838 2.31097 7.02583V21.5596C2.31097 22.2181 2.84676 22.7538 3.50526 22.7538H13.7182C14.3767 22.7538 14.9125 22.2181 14.9125 21.5596V7.02579ZM8.61172 5.92521C7.81527 5.92521 7.16961 5.27955 7.16961 4.48315C7.16961 3.68669 7.81527 3.04104 8.61172 3.04104C9.40818 3.04104 10.0538 3.68669 10.0538 4.48315C10.0538 5.27955 9.40818 5.92521 8.61172 5.92521Z" fill="#FF4155"/>
<path d="M13.3006 22.5358C13.3085 22.4383 13.2492 22.3492 13.1586 22.3123C11.8754 21.7905 11.753 20.6625 11.7692 20.1455C11.7735 20.0078 11.6543 19.9002 11.5172 19.9136C9.16599 20.1443 9.2709 17.9231 9.36198 17.2194C9.37543 17.1152 9.31548 17.0175 9.21821 16.978C9.02607 16.8998 8.98027 16.6974 8.96945 16.5993C8.9655 16.5613 8.95179 16.5248 8.92965 16.4936L8.33687 15.6673C8.30114 15.6182 8.24742 15.5852 8.18743 15.5755C8.05177 15.5527 7.98723 15.4771 7.95713 15.4015C7.91668 15.3 7.80596 15.2448 7.69848 15.265L6.66845 15.4587C6.62663 15.4668 6.58337 15.4628 6.54376 15.4472C5.04029 14.841 5.68562 13.3118 5.90401 12.8817C5.92206 12.8459 5.93028 12.8059 5.92784 12.7659C5.92539 12.7258 5.91236 12.6872 5.89009 12.6538L5.70929 12.3819C5.67123 12.3247 5.60926 12.2886 5.54087 12.2814C3.50209 12.0673 2.89731 10.5354 2.73929 9.94862C2.70887 9.83556 2.59726 9.76651 2.48157 9.78461C2.41768 9.79459 2.36124 9.79295 2.31085 9.78339V21.5597C2.31085 22.2182 2.84663 22.7539 3.50513 22.7539H13.3147C13.2969 22.6764 13.2955 22.5997 13.3006 22.5358Z" fill="#E80054"/>
<path d="M6.95382 20.0361C6.697 19.9284 6.57615 19.6328 6.68396 19.3759L9.5274 12.6006C9.63517 12.3438 9.93081 12.223 10.1876 12.3308C10.4444 12.4385 10.5653 12.7341 10.4574 12.991L7.61401 19.7663C7.50676 20.0218 7.21192 20.1444 6.95382 20.0361ZM6.60465 15.9042C5.63378 15.9042 4.84393 15.023 4.84393 13.9399C4.84393 12.8569 5.63378 11.9756 6.60465 11.9756C7.57553 11.9756 8.36537 12.8569 8.36537 13.9399C8.36537 15.0231 7.57548 15.9042 6.60465 15.9042ZM6.60465 12.9843C6.18995 12.9843 5.85259 13.413 5.85259 13.9399C5.85259 14.4669 6.19 14.8956 6.60465 14.8956C7.01935 14.8956 7.35671 14.4669 7.35671 13.9399C7.35671 13.413 7.01931 12.9843 6.60465 12.9843ZM10.4448 20.5367C9.47396 20.5367 8.68412 19.6555 8.68412 18.5724C8.68412 17.4893 9.47396 16.6081 10.4448 16.6081C11.4157 16.6081 12.2056 17.4893 12.2056 18.5724C12.2056 19.6555 11.4157 20.5367 10.4448 20.5367ZM10.4448 17.6167C10.0301 17.6167 9.69278 18.0454 9.69278 18.5724C9.69278 19.0993 10.0302 19.528 10.4448 19.528C10.8595 19.528 11.1969 19.0993 11.1969 18.5724C11.1969 18.0455 10.8595 17.6167 10.4448 17.6167Z" fill="#E3E7FC"/>
<path d="M9.25557 7.91675H7.88588C7.7866 7.91518 7.69191 7.87465 7.62225 7.80388C7.55259 7.73312 7.51355 7.63781 7.51355 7.53851C7.51355 7.43922 7.55259 7.3439 7.62225 7.27314C7.69191 7.20238 7.7866 7.16184 7.88588 7.16028H9.25557C9.35485 7.16184 9.44954 7.20238 9.51919 7.27314C9.58885 7.3439 9.62789 7.43922 9.62789 7.53851C9.62789 7.63781 9.58885 7.73312 9.51919 7.80388C9.44954 7.87465 9.35485 7.91518 9.25557 7.91675ZM10.3553 9.28287H6.78614C6.68686 9.28131 6.59217 9.24077 6.52252 9.17001C6.45286 9.09925 6.41382 9.00393 6.41382 8.90464C6.41382 8.80534 6.45286 8.71003 6.52252 8.63927C6.59217 8.5685 6.68686 8.52797 6.78614 8.5264H10.3553C10.4545 8.52797 10.5492 8.5685 10.6189 8.63927C10.6885 8.71003 10.7276 8.80534 10.7276 8.90464C10.7276 9.00393 10.6885 9.09925 10.6189 9.17001C10.5492 9.24077 10.4545 9.28131 10.3553 9.28287ZM10.3553 10.649H6.78614C6.68686 10.6474 6.59217 10.6069 6.52252 10.5361C6.45286 10.4654 6.41382 10.3701 6.41382 10.2708C6.41382 10.1715 6.45286 10.0762 6.52252 10.0054C6.59217 9.93463 6.68686 9.89409 6.78614 9.89253H10.3553C10.4545 9.89409 10.5492 9.93463 10.6189 10.0054C10.6885 10.0762 10.7276 10.1715 10.7276 10.2708C10.7276 10.3701 10.6885 10.4654 10.6189 10.5361C10.5492 10.6069 10.4545 10.6474 10.3553 10.649Z" fill="#FF7186"/>
<path d="M15.2907 21.5595V7.02574C15.2907 3.51218 12.5635 0.623647 9.11477 0.365601C7.94453 0.668576 6.8298 1.1554 5.81219 1.8079C6.64633 1.35855 7.59973 1.10323 8.61176 1.10323C11.8774 1.10323 14.5343 3.76005 14.5343 7.02574V21.5595C14.5343 22.0095 14.1682 22.3755 13.7182 22.3755H3.50519C3.05519 22.3755 2.68915 22.0094 2.68915 21.5595V7.02574C2.68915 5.44015 3.31558 3.99813 4.33385 2.93402C3.43368 3.74134 2.66606 4.68518 2.0591 5.73096C1.97495 6.15743 1.93261 6.59109 1.93268 7.02579V21.5596C1.93268 22.4267 2.6381 23.1321 3.50519 23.1321H13.7182C14.5853 23.132 15.2907 22.4266 15.2907 21.5595Z" fill="#E80054"/>
<path d="M13.5335 23.0593C13.3126 22.9269 13.2881 22.6927 13.3007 22.5358C13.3055 22.4758 13.2848 22.419 13.2471 22.3756H3.50518C3.05518 22.3756 2.68913 22.0095 2.68913 21.5596V9.85787C2.6634 9.82931 2.63093 9.80764 2.59469 9.79482C2.55845 9.782 2.51958 9.77844 2.48162 9.78446C2.20388 9.82787 2.06077 9.65874 1.99135 9.51999C1.977 9.4917 1.95701 9.46664 1.93262 9.44635V21.5596C1.93262 22.4266 2.63804 23.1321 3.50513 23.1321H13.6053C13.5877 23.1023 13.5631 23.0772 13.5335 23.0593Z" fill="#CC0053"/>
<path d="M10.036 0.167964L8.66146 3.74767C8.65719 3.75873 8.64838 3.78175 8.61182 3.78175C8.5115 3.78175 8.4153 3.82159 8.34436 3.89253C8.27343 3.96346 8.23358 4.05967 8.23358 4.15998C8.23358 4.26029 8.27343 4.3565 8.34436 4.42743C8.4153 4.49836 8.5115 4.53821 8.61182 4.53821C8.94978 4.53821 9.2465 4.33435 9.36763 4.01884L10.8902 0.0535889C10.6041 0.0810165 10.3192 0.119168 10.036 0.167964Z" fill="#E3E7FC"/>
</svg>
