<svg width="24" height="24" viewBox="0 0 24 24" fill="none" xmlns="http://www.w3.org/2000/svg">
<path fill-rule="evenodd" clip-rule="evenodd" d="M4.26042 13.2276L4.05445 9.98558L4.01189 9.32099C3.97481 8.74288 3.47226 8.29935 2.89415 8.33642C2.71153 8.3488 2.544 8.4051 2.39981 8.49707V14.4302C3.36778 15.311 4.26042 14.8813 4.26042 13.2276ZM19.9469 9.98558L19.7409 13.2276C20.4265 14.9457 21.6232 14.3264 21.7304 14.9457L21.6015 8.49707C21.4573 8.40505 21.2884 8.34875 21.1072 8.33642C20.5291 8.29935 20.0251 8.74288 19.9881 9.32099L19.9469 9.98558Z" fill="#FFBC85"/>
<path fill-rule="evenodd" clip-rule="evenodd" d="M15.6079 18.392L15.4225 20.8486L17.5855 21.835L19.8988 20.8486C21.7471 19.1445 23.1696 17.0312 23.3646 13.9773L23.7092 8.53964C23.7463 7.96153 23.3041 7.45898 22.7247 7.4219C22.1467 7.38483 21.6441 7.82836 21.607 8.40647L21.6015 8.49708L21.2514 14.0007C21.1442 13.3814 20.4591 12.9681 19.7409 13.2276C19.6008 13.277 19.4621 13.3525 19.3248 13.4569L18.2085 14.3893L16.8024 15.5633C15.7836 16.4133 15.704 17.1246 15.6079 18.392ZM7.19888 15.5633L5.79282 14.3893L4.67649 13.4569C4.53919 13.3526 4.39913 13.2771 4.26043 13.2276C3.5423 12.9681 2.85572 13.3814 2.75002 14.0007L2.39986 8.49712L2.39438 8.40651C2.3573 7.8284 1.85335 7.38487 1.27529 7.42195C0.697224 7.45903 0.253646 7.96153 0.290724 8.53964L0.636756 13.9773C0.830349 17.0312 2.25291 19.1445 4.10115 20.8486L6.20522 21.4406L8.57888 20.8486L8.39349 18.392C8.2974 17.1246 8.2164 16.4133 7.19888 15.5633Z" fill="#FFE5C1"/>
<path fill-rule="evenodd" clip-rule="evenodd" d="M5.22436 15.1267L6.63043 16.3007C7.37879 16.9268 7.37189 17.428 7.46803 18.6955L7.62047 20.8486H8.57893L8.39353 18.392C8.29739 17.1246 8.21639 16.4133 7.19893 15.5633L5.79286 14.3893L4.67654 13.4569C4.53924 13.3525 4.39918 13.277 4.26047 13.2276C3.62611 12.9982 3.01505 13.2948 2.80908 13.7947C3.33225 13.5983 3.8348 14.0061 4.33735 14.3865L5.22436 15.1267Z" fill="#FED1A3"/>
<path fill-rule="evenodd" clip-rule="evenodd" d="M8.57889 20.8486H2.99031C2.74178 20.8486 2.53857 21.0532 2.53857 21.3017V23.5482C2.53857 23.7968 2.74178 24 2.99031 24H9.30939C9.55792 24 9.76112 23.7968 9.76112 23.5482V21.3017C9.76112 21.0532 9.55792 20.8486 9.30939 20.8486H8.57889ZM14.692 20.8486C14.4435 20.8486 14.2403 21.0532 14.2403 21.3017V23.5482C14.2403 23.7968 14.4435 24 14.692 24H21.0111C21.2596 24 21.4628 23.7968 21.4628 23.5482V21.3017C21.4628 21.0532 21.2596 20.8486 21.0111 20.8486H15.4225H14.692Z" fill="#EB5468"/>
<path fill-rule="evenodd" clip-rule="evenodd" d="M15.3278 13.2399C17.1664 11.4013 17.1664 8.42151 15.3278 6.58425C13.4905 4.74698 10.5109 4.74698 8.67226 6.58425C6.83504 8.42151 6.83504 11.4013 8.67226 13.2399C8.79951 13.3674 8.93431 13.4871 9.07594 13.5983H14.9254C15.0641 13.4885 15.1987 13.3677 15.3278 13.2399Z" fill="#9FD4FE"/>
<path fill-rule="evenodd" clip-rule="evenodd" d="M13.2008 10.9331C12.7051 10.2808 11.7 10.2671 10.8006 10.9331C9.78586 11.3931 9.07599 12.4175 9.07599 13.5984C10.7842 14.9578 13.2173 14.9578 14.9255 13.5984C14.9254 12.4174 14.2155 11.3931 13.2008 10.9331Z" fill="#EB5468"/>
<path fill-rule="evenodd" clip-rule="evenodd" d="M7.70968 5.16994L7.73579 3.92583L8.44572 2.90283L7.27033 2.49366L6.51784 1.50225L5.76536 2.49366L4.58997 2.90283L5.29989 3.92583L5.32595 5.16994L6.51784 4.81017L7.70968 5.16994ZM10.7828 2.42227L10.8088 3.66633L12.0007 3.30792L13.1926 3.66633L13.2187 2.42227L13.9285 1.40062L12.7532 0.990047L12.0007 0L11.2469 0.990047L10.0728 1.40062L10.7828 2.42227ZM15.5557 2.90283L16.2642 3.92583L16.2917 5.16994L17.4835 4.81017L18.674 5.16994L18.7015 3.92583L19.4114 2.90283L18.236 2.49366L17.4835 1.50225L16.7297 2.49366L15.5557 2.90283Z" fill="#FFD772"/>
<path fill-rule="evenodd" clip-rule="evenodd" d="M2.74998 14.0007L2.39439 8.40647C2.35731 7.82836 1.85336 7.38483 1.27529 7.4219C0.791966 7.45209 0.402013 7.8105 0.309998 8.265C1.65151 7.85578 1.54581 8.53964 1.5925 9.27975L1.79434 13.4377C1.84239 14.4387 2.03875 15.0855 2.34358 15.3903C2.81317 15.8585 4.08329 17.2537 4.50625 17.656C4.92915 18.057 5.72556 17.921 5.21476 17.2056C4.79186 16.8033 3.67 15.61 3.2004 15.1417C2.87631 14.8177 2.76648 14.5252 2.74998 14.0007Z" fill="#FED1A3"/>
<path fill-rule="evenodd" clip-rule="evenodd" d="M8.0722 21.3017V23.5482C8.0722 23.7968 7.869 24 7.62047 24H9.30937C9.55791 24 9.76111 23.7968 9.76111 23.5482V21.3017C9.76111 21.0532 9.55791 20.8486 9.30937 20.8486H7.62047C7.86895 20.8486 8.0722 21.0532 8.0722 21.3017Z" fill="#E5384F"/>
<path fill-rule="evenodd" clip-rule="evenodd" d="M18.696 20.8486H19.8989C21.7471 19.1445 23.1696 17.0312 23.3646 13.9773L23.7093 8.53964C23.7422 8.02195 23.3894 7.56333 22.8992 7.44797C22.8621 8.20322 22.4323 13.7563 22.354 14.2602C22.2387 14.9893 22.1138 15.9258 21.7883 16.6962C21.121 18.2835 19.951 19.6979 18.696 20.8486Z" fill="#FED1A3"/>
<path fill-rule="evenodd" clip-rule="evenodd" d="M13.8366 6.49228C15.3855 8.03981 15.6285 10.3989 14.5684 12.2032C14.7964 12.618 14.9254 13.0944 14.9254 13.5984C15.0641 13.4885 15.1987 13.3677 15.3278 13.24C17.1664 11.4013 17.1664 8.42156 15.3278 6.5843C14.2924 5.54892 12.896 5.09719 11.5448 5.22764C12.3852 5.41711 13.1829 5.8373 13.8366 6.49228Z" fill="#85BEEF"/>
<path fill-rule="evenodd" clip-rule="evenodd" d="M7.73578 3.92583L8.44571 2.90283L7.27031 2.49361L6.51783 1.5022L6.24731 1.8592C6.57 2.82178 6.60431 3.87909 6.34753 4.8623L6.51778 4.81012L7.70963 5.16989L7.73578 3.92583ZM11.8867 0.149672C12.208 1.18364 12.1998 2.32064 11.862 3.34912L12.0007 3.30792L13.1925 3.66633L13.2187 2.42227L13.9286 1.40062L12.7532 0.990047L12.0007 0L11.8867 0.149672ZM17.2556 1.80159C17.5591 2.79712 17.5591 3.88467 17.2529 4.8802L17.4835 4.81017L18.674 5.16994L18.7015 3.92587L19.4114 2.90287L18.236 2.49366L17.4835 1.50225L17.2556 1.80159Z" fill="#FBBA58"/>
<path fill-rule="evenodd" clip-rule="evenodd" d="M12.6556 11.2406C13.3779 11.8901 13.8777 12.9626 13.9601 14.1916C14.3048 14.0337 14.6289 13.8345 14.9254 13.5984C14.9254 12.4174 14.2155 11.3931 13.2008 10.933C13.0371 11.0647 12.853 11.1686 12.6556 11.2406Z" fill="#E5384F"/>
<path fill-rule="evenodd" clip-rule="evenodd" d="M13.2008 10.9331C13.6361 10.5829 13.9148 10.0446 13.9148 9.44184C13.9148 8.38452 13.058 7.52765 12.0007 7.52765C10.9433 7.52765 10.0865 8.38448 10.0865 9.44184C10.0865 10.0446 10.3653 10.5829 10.8005 10.9331C11.1287 11.1981 11.5461 11.356 12.0006 11.356C12.4552 11.356 12.8726 11.1981 13.2008 10.9331Z" fill="#FFE5C1"/>
<path fill-rule="evenodd" clip-rule="evenodd" d="M12.8589 9.24273C12.8589 9.84554 12.5801 10.3838 12.1449 10.734C11.862 10.9619 11.5132 11.1116 11.1315 11.1487C11.401 11.2851 11.6988 11.3561 12.0007 11.356C12.4552 11.356 12.8727 11.1981 13.2008 10.933C13.6361 10.5829 13.9148 10.0446 13.9148 9.44181C13.9148 8.38449 13.058 7.52762 12.0007 7.52762C11.9383 7.52801 11.876 7.53122 11.814 7.53723C12.4332 7.85307 12.8589 8.49845 12.8589 9.24273Z" fill="#FED1A3"/>
<path fill-rule="evenodd" clip-rule="evenodd" d="M19.5679 23.5482C19.5679 23.7968 19.3647 24 19.1162 24H21.0111C21.2596 24 21.4629 23.7968 21.4629 23.5482V21.3017C21.4629 21.0532 21.2596 20.8486 21.0111 20.8486H19.1162C19.3648 20.8486 19.568 21.0532 19.568 21.3017V23.5482H19.5679Z" fill="#E5384F"/>
<path fill-rule="evenodd" clip-rule="evenodd" d="M19.8234 14.8479L18.0671 16.6962C17.6648 17.1192 18.052 17.8785 18.7867 17.2057C19.2096 16.8033 20.3314 15.61 20.7997 15.1418C21.191 14.7519 21.3105 14.344 21.2514 14.0007C21.2448 13.9636 21.2361 13.9269 21.2253 13.8909C21.0647 13.3402 20.4302 12.9928 19.7643 13.2194C20.7955 13.7384 20.2449 14.4264 19.8234 14.8479Z" fill="#FED1A3"/>
</svg>
