<svg width="24" height="24" viewBox="0 0 24 24" fill="none" xmlns="http://www.w3.org/2000/svg">
<g clip-path="url(#clip0_511_243)">
<path d="M19.3317 0H4.66824C2.22802 0 0.249939 1.97817 0.249939 4.4183V14.0357C0.249939 16.4759 2.22811 18.454 4.66824 18.454H6.77264C6.82072 18.454 6.86682 18.4731 6.90082 18.5071C6.93481 18.5411 6.95391 18.5872 6.95391 18.6353V23.3794C6.95391 23.9403 7.64002 24.2122 8.02425 23.8036L13.0018 18.5111C13.0188 18.4931 13.0392 18.4787 13.062 18.4689C13.0847 18.4591 13.1092 18.454 13.1339 18.454H19.3317C21.7719 18.454 23.75 16.4759 23.75 14.0357V4.4183C23.75 1.97817 21.7718 0 19.3317 0Z" fill="#EC5569"/>
<path d="M8.81274 16.8051C8.81274 16.6997 8.73417 16.6142 8.63724 16.6142H6.59996C4.23764 16.6142 2.32261 14.5311 2.32261 11.9616V1.83388C2.32261 1.39907 2.37764 0.978275 2.48016 0.579041C1.14792 1.34001 0.249939 2.77424 0.249939 4.41829V14.0357C0.249939 16.4759 2.22811 18.454 4.66824 18.454H6.77264C6.82072 18.454 6.86682 18.4731 6.90082 18.5071C6.93481 18.5411 6.95391 18.5872 6.95391 18.6353V23.3794C6.95391 23.9403 7.64002 24.2122 8.02425 23.8036L8.81269 22.9652V16.8051H8.81274Z" fill="#E63950"/>
<path d="M16.9644 5.73399C15.8427 4.61223 14.0239 4.61223 12.9021 5.73399L12.2684 6.36765C12.1959 6.4402 12.0975 6.48095 11.9949 6.48095C11.8923 6.48095 11.7938 6.4402 11.7213 6.36765L11.0977 5.74412C9.97598 4.62235 8.15723 4.62235 7.03542 5.74412C5.91365 6.86588 5.91365 8.68463 7.03542 9.80645L11.7217 14.4927C11.7942 14.5652 11.8926 14.606 11.9952 14.606C12.0978 14.606 12.1963 14.5652 12.2688 14.4927L16.9644 9.79632C18.0862 8.67451 18.0862 6.85581 16.9644 5.73399Z" fill="#EC5569"/>
<path d="M16.9644 5.73399C15.8427 4.61223 14.0239 4.61223 12.9021 5.73399L12.2684 6.36765C12.1959 6.4402 12.0975 6.48095 11.9949 6.48095C11.8923 6.48095 11.7938 6.4402 11.7213 6.36765L11.0977 5.74412C9.97598 4.62235 8.15723 4.62235 7.03542 5.74412C5.91365 6.86588 5.91365 8.68463 7.03542 9.80645L11.7217 14.4927C11.7942 14.5652 11.8926 14.606 11.9952 14.606C12.0978 14.606 12.1963 14.5652 12.2688 14.4927L16.9644 9.79632C18.0862 8.67451 18.0862 6.85581 16.9644 5.73399Z" fill="#FFF5F5"/>
<path d="M8.53806 9.80644C7.41629 8.68467 7.41629 6.86592 8.53806 5.74411C8.89226 5.38911 9.33365 5.13357 9.81788 5.00316C8.8576 4.74385 7.78923 4.99031 7.03548 5.74411C5.91371 6.86588 5.91371 8.68463 7.03548 9.80644L11.7217 14.4927C11.7943 14.5652 11.8927 14.606 11.9953 14.606C12.0979 14.606 12.1963 14.5652 12.2689 14.4927L12.7465 14.0149L8.53806 9.80644Z" fill="#DCE6EB"/>
</g>
<defs>
<clipPath id="clip0_511_243">
<rect width="24" height="24" fill="white"/>
</clipPath>
</defs>
</svg>
