<svg width="22" height="24" viewBox="0 0 22 24" fill="none" xmlns="http://www.w3.org/2000/svg">
<path d="M11 15.8227C14.758 15.8227 17.8045 12.7762 17.8045 9.01821C17.8045 5.26021 14.758 2.21375 11 2.21375C7.24199 2.21375 4.19553 5.26021 4.19553 9.01821C4.19553 12.7762 7.24199 15.8227 11 15.8227Z" fill="#E6E7E8"/>
<path d="M15.4736 3.89337C16.5187 5.08962 17.1532 6.65375 17.1532 8.36693C17.1532 12.125 14.1067 15.1714 10.3487 15.1714C8.63553 15.1714 7.0714 14.5369 5.87515 13.4918C7.1225 14.9195 8.95521 15.8227 11 15.8227C14.7581 15.8227 17.8045 12.7762 17.8045 9.01822C17.8045 6.97343 16.9013 5.14072 15.4736 3.89337Z" fill="#D1D3D4"/>
<path d="M11 14.5806C14.072 14.5806 16.5624 12.0902 16.5624 9.01819C16.5624 5.94617 14.072 3.45581 11 3.45581C7.92798 3.45581 5.43762 5.94617 5.43762 9.01819C5.43762 12.0902 7.92798 14.5806 11 14.5806Z" fill="#FFA91A"/>
<path d="M6.65656 11.6794C6.58906 11.6794 6.52719 11.6438 6.49437 11.5857C6.49344 11.5857 6.49344 11.5857 6.49344 11.5846C6.46812 11.5415 6.46156 11.4909 6.47469 11.4421C6.48875 11.3943 6.51969 11.354 6.56281 11.3287C6.65 11.279 6.76906 11.3118 6.81875 11.399L6.81969 11.3999C6.84406 11.4431 6.84969 11.4937 6.83656 11.5415C6.82344 11.5894 6.7925 11.6296 6.74937 11.6549C6.72031 11.671 6.68844 11.6794 6.65656 11.6794ZM6.33406 11.0024C6.25719 11.0024 6.18687 10.9546 6.15875 10.8825C5.92912 10.288 5.81182 9.65609 5.81281 9.01878C5.81281 6.15838 8.13969 3.8316 11 3.83057C11.0497 3.83057 11.0974 3.85032 11.1326 3.88548C11.1677 3.92065 11.1875 3.96834 11.1875 4.01807C11.1875 4.06779 11.1677 4.11549 11.1326 4.15065C11.0974 4.18581 11.0497 4.20557 11 4.20557C9.71656 4.20557 8.50906 4.70722 7.59875 5.6166C6.68937 6.52691 6.18781 7.73535 6.18781 9.01878C6.18781 9.61494 6.29562 10.1963 6.50937 10.7474C6.54594 10.844 6.49812 10.9528 6.40156 10.9903C6.38 10.9987 6.3575 11.0024 6.33406 11.0024Z" fill="#FFC91D"/>
<path d="M14.4354 4.6452C15.1797 5.59123 15.6248 6.78355 15.6248 8.08067C15.6248 11.1527 13.1344 13.643 10.0624 13.643C8.76538 13.643 7.57297 13.1978 6.62694 12.4536C7.64544 13.7482 9.22494 14.5805 10.9999 14.5805C14.0719 14.5805 16.5623 12.0902 16.5623 9.01817C16.5624 7.2432 15.73 5.6637 14.4354 4.6452Z" fill="#F79219"/>
<path d="M14.691 4.8584C15.5631 5.84052 16.0936 7.13277 16.0936 8.54943C16.0936 11.6214 13.6032 14.1118 10.5312 14.1118C9.11449 14.1118 7.82233 13.5813 6.84021 12.7092C7.85918 13.8567 9.34465 14.5806 11 14.5806C14.072 14.5806 16.5624 12.0902 16.5624 9.01818C16.5624 7.36293 15.8385 5.87737 14.691 4.8584Z" fill="#EF7816"/>
<path d="M13.5676 9.90471C13.7771 9.90471 13.9366 10.0906 13.9089 10.2983C13.7166 11.7331 12.4875 12.8396 11.0001 12.8396C9.51264 12.8396 8.28358 11.7331 8.0913 10.2983C8.06346 10.0906 8.22292 9.90471 8.43255 9.90471H13.5676ZM9.50064 8.13715C9.42605 8.13715 9.35451 8.10752 9.30177 8.05477C9.24902 8.00203 9.21939 7.93049 9.21939 7.8559C9.21939 7.43946 8.88058 7.10065 8.46414 7.10065C8.04771 7.10065 7.70889 7.43937 7.70889 7.8559C7.70889 7.93049 7.67926 8.00203 7.62652 8.05477C7.57377 8.10752 7.50223 8.13715 7.42764 8.13715C7.35305 8.13715 7.28151 8.10752 7.22877 8.05477C7.17602 8.00203 7.14639 7.93049 7.14639 7.8559C7.14639 7.12933 7.73749 6.53815 8.46414 6.53815C9.1908 6.53815 9.78189 7.12933 9.78189 7.8559C9.78189 7.93049 9.75226 8.00203 9.69952 8.05477C9.64677 8.10752 9.57524 8.13715 9.50064 8.13715ZM14.5722 8.13715C14.4976 8.13715 14.4261 8.10752 14.3734 8.05477C14.3206 8.00203 14.291 7.93049 14.291 7.8559C14.291 7.43946 13.9523 7.10065 13.5357 7.10065C13.1192 7.10065 12.7805 7.43937 12.7805 7.8559C12.7805 7.93049 12.7509 8.00203 12.6981 8.05477C12.6454 8.10752 12.5738 8.13715 12.4992 8.13715C12.4246 8.13715 12.3531 8.10752 12.3004 8.05477C12.2476 8.00203 12.218 7.93049 12.218 7.8559C12.218 7.12933 12.8092 6.53815 13.5357 6.53815C14.2623 6.53815 14.8535 7.12933 14.8535 7.8559C14.8535 7.93049 14.8239 8.00203 14.7711 8.05477C14.7184 8.10752 14.6468 8.13715 14.5722 8.13715Z" fill="#EF7816"/>
<path d="M11 2.83304C10.8757 2.83304 10.7565 2.78365 10.6685 2.69574C10.5806 2.60784 10.5312 2.48861 10.5312 2.36429V1.13776C10.5312 1.01344 10.5806 0.894208 10.6685 0.8063C10.7565 0.718392 10.8757 0.669006 11 0.669006C11.1243 0.669006 11.2435 0.718392 11.3315 0.8063C11.4194 0.894208 11.4688 1.01344 11.4688 1.13776V2.36429C11.4688 2.48861 11.4194 2.60784 11.3315 2.69574C11.2435 2.78365 11.1243 2.83304 11 2.83304ZM18.8489 9.45544H17.6224C17.4981 9.45544 17.3789 9.40606 17.291 9.31815C17.203 9.23024 17.1537 9.11101 17.1537 8.98669C17.1537 8.86237 17.203 8.74315 17.291 8.65524C17.3789 8.56733 17.4981 8.51794 17.6224 8.51794H18.8489C18.9733 8.51794 19.0925 8.56733 19.1804 8.65524C19.2683 8.74315 19.3177 8.86237 19.3177 8.98669C19.3177 9.11101 19.2683 9.23024 19.1804 9.31815C19.0925 9.40606 18.9733 9.45544 18.8489 9.45544ZM4.37759 9.45544H3.15106C3.02674 9.45544 2.90751 9.40606 2.81961 9.31815C2.7317 9.23024 2.68231 9.11101 2.68231 8.98669C2.68231 8.86237 2.7317 8.74315 2.81961 8.65524C2.90751 8.56733 3.02674 8.51794 3.15106 8.51794H4.37759C4.50191 8.51794 4.62114 8.56733 4.70905 8.65524C4.79696 8.74315 4.84634 8.86237 4.84634 8.98669C4.84634 9.11101 4.79696 9.23024 4.70905 9.31815C4.62114 9.40606 4.50191 9.45544 4.37759 9.45544ZM15.6827 4.77273C15.59 4.77281 15.4993 4.74538 15.4222 4.69389C15.345 4.64241 15.2849 4.56919 15.2494 4.4835C15.2139 4.39782 15.2046 4.30353 15.2227 4.21258C15.2409 4.12162 15.2856 4.03809 15.3512 3.97257L16.2185 3.10519C16.2618 3.06076 16.3135 3.02536 16.3706 3.00107C16.4277 2.97677 16.4891 2.96406 16.5512 2.96366C16.6132 2.96326 16.6747 2.97519 16.7321 2.99875C16.7895 3.02231 16.8417 3.05704 16.8856 3.10092C16.9295 3.1448 16.9642 3.19695 16.9878 3.25436C17.0113 3.31177 17.0233 3.37328 17.0229 3.43534C17.0225 3.49739 17.0098 3.55875 16.9855 3.61586C16.9612 3.67297 16.9258 3.72468 16.8814 3.76801L16.0141 4.63538C15.9707 4.679 15.919 4.7136 15.8621 4.73717C15.8053 4.76074 15.7443 4.77282 15.6827 4.77273ZM6.31728 4.77273C6.2557 4.77281 6.19471 4.76071 6.13782 4.73714C6.08093 4.71357 6.02926 4.67899 5.98578 4.63538L5.1185 3.76801C5.03244 3.67972 4.98462 3.56109 4.98541 3.4378C4.9862 3.31451 5.03553 3.1965 5.12272 3.10932C5.20991 3.02215 5.32793 2.97283 5.45122 2.97206C5.5745 2.97129 5.69313 3.01912 5.78141 3.10519L6.64869 3.97257C6.71431 4.03809 6.75902 4.12161 6.77715 4.21256C6.79528 4.3035 6.78602 4.39778 6.75053 4.48346C6.71505 4.56914 6.65494 4.64236 6.57781 4.69385C6.50069 4.74535 6.41002 4.7728 6.31728 4.77273Z" fill="#FFA91A"/>
<path d="M4.84634 8.98669C4.84634 8.86237 4.79696 8.74315 4.70905 8.65524C4.62114 8.56733 4.50191 8.51794 4.37759 8.51794C4.37759 8.64226 4.32821 8.76149 4.2403 8.8494C4.15239 8.93731 4.03316 8.98669 3.90884 8.98669H2.68231C2.68231 9.11101 2.7317 9.23024 2.81961 9.31815C2.90751 9.40606 3.02674 9.45544 3.15106 9.45544H4.37759C4.50191 9.45544 4.62114 9.40606 4.70905 9.31815C4.79696 9.23024 4.84634 9.11101 4.84634 8.98669ZM18.8489 8.51794C18.8489 8.64226 18.7996 8.76149 18.7116 8.8494C18.6237 8.93731 18.5045 8.98669 18.3802 8.98669H17.1537C17.1537 9.11101 17.203 9.23024 17.291 9.31815C17.3789 9.40606 17.4981 9.45544 17.6224 9.45544H18.8489C18.9733 9.45544 19.0925 9.40606 19.1804 9.31815C19.2683 9.23024 19.3177 9.11101 19.3177 8.98669C19.3177 8.86237 19.2683 8.74315 19.1804 8.65524C19.0925 8.56733 18.9733 8.51794 18.8489 8.51794ZM16.4128 3.29926L15.5455 4.16663C15.502 4.21025 15.4503 4.24484 15.3934 4.26841C15.3365 4.29198 15.2756 4.30407 15.214 4.30398C15.214 4.42388 15.2597 4.54388 15.3512 4.63538C15.4428 4.72698 15.5627 4.77273 15.6827 4.77273C15.8027 4.77273 15.9227 4.72698 16.0142 4.63538L16.8815 3.76801C16.9471 3.70248 16.9918 3.61895 17.01 3.528C17.0281 3.43704 17.0188 3.34275 16.9833 3.25707C16.9478 3.17139 16.8877 3.09817 16.8106 3.04668C16.7334 2.9952 16.6427 2.96776 16.55 2.96785C16.5501 3.02942 16.5381 3.0904 16.5145 3.14728C16.491 3.20416 16.4564 3.25581 16.4128 3.29926ZM5.78141 3.10519L5.78047 3.10426L6.18003 3.50382C6.24566 3.56935 6.29038 3.65287 6.3085 3.74383C6.32663 3.83478 6.31736 3.92907 6.28186 4.01475C6.24636 4.10044 6.18624 4.17366 6.1091 4.22514C6.03196 4.27663 5.94127 4.30406 5.84853 4.30398C5.72467 4.30412 5.60581 4.25509 5.51806 4.16766L5.98578 4.63538C6.02926 4.67899 6.08093 4.71357 6.13782 4.73714C6.19471 4.76071 6.2557 4.77281 6.31728 4.77273C6.41002 4.77281 6.50071 4.74538 6.57785 4.69389C6.65499 4.64241 6.71511 4.56919 6.75061 4.4835C6.78611 4.39782 6.79538 4.30353 6.77725 4.21258C6.75913 4.12162 6.71441 4.03809 6.64878 3.97257L5.78141 3.10519ZM11 0.669006V1.89554C11 1.95709 10.9879 2.01805 10.9643 2.07492C10.9408 2.13179 10.9062 2.18347 10.8627 2.22699C10.8192 2.27052 10.7675 2.30505 10.7106 2.32861C10.6538 2.35216 10.5928 2.36429 10.5312 2.36429C10.5312 2.48861 10.5806 2.60784 10.6685 2.69574C10.7565 2.78365 10.8757 2.83304 11 2.83304C11.1243 2.83304 11.2435 2.78365 11.3315 2.69574C11.4194 2.60784 11.4688 2.48861 11.4688 2.36429V1.13776C11.4688 1.01344 11.4194 0.894208 11.3315 0.8063C11.2435 0.718392 11.1243 0.669006 11 0.669006Z" fill="#F79219"/>
<path d="M0.468401 11.9788C0.556339 12.74 0.881276 15.3395 1.37496 16.8499C1.95781 18.6346 3.69978 19.1748 4.74031 19.9883C5.37434 20.4568 5.5909 21.3541 5.55856 21.9857L5.56399 21.9936L5.67246 22.1373L7.96962 19.8401C8.24206 18.4564 7.29134 17.7264 6.47384 16.734C5.91828 16.0153 5.48796 15.2057 5.22687 14.3346C5.19753 14.139 5.01162 14.0828 4.85796 14.1893C4.31515 14.5659 4.08818 15.346 4.42878 15.8722L4.60503 16.1524C4.66559 16.251 4.54512 16.3549 4.45221 16.2892C3.38196 15.7684 2.75421 14.778 2.31621 13.6642C2.02643 12.9281 1.77481 11.5384 0.694901 11.6929C0.558026 11.7124 0.452933 11.8452 0.468401 11.9788Z" fill="#FCC4AE"/>
<path d="M6.47384 16.734C5.91827 16.0153 5.48796 15.2057 5.22687 14.3347C5.19781 14.1411 5.01556 14.0846 4.86293 14.1866C5.12777 14.9361 5.51834 15.6356 6.00509 16.2653C6.82259 17.2578 7.77331 17.9877 7.50087 19.3714L5.51431 21.358C5.55481 21.5787 5.56831 21.7945 5.55846 21.9858L5.5639 21.9938L5.67237 22.1374L7.96952 19.8402C8.24206 18.4564 7.29134 17.7265 6.47384 16.734Z" fill="#F2AD97"/>
<path d="M5.14624 21.4397L5.8114 22.3214C5.83272 22.3496 5.85939 22.3734 5.88989 22.3913C5.92039 22.4092 5.95413 22.421 5.98917 22.4259C6.02421 22.4308 6.05988 22.4287 6.09412 22.4198C6.12836 22.4109 6.16051 22.3953 6.18874 22.374L9.13296 20.1521C9.1612 20.1308 9.18498 20.1042 9.20292 20.0737C9.22086 20.0432 9.23261 20.0095 9.23752 19.9745C9.24242 19.9394 9.24037 19.9038 9.23148 19.8696C9.2226 19.8353 9.20706 19.8032 9.18574 19.775L8.52058 18.8932C8.47745 18.8363 8.41351 18.7988 8.34278 18.789C8.27205 18.7791 8.20029 18.7977 8.14324 18.8406L5.19883 21.0627C5.14187 21.1057 5.10433 21.1696 5.09447 21.2403C5.08461 21.311 5.10323 21.3827 5.14624 21.4397Z" fill="#F1F2F2"/>
<path d="M9.18584 19.7749L8.52069 18.8931C8.49759 18.8629 8.46832 18.8378 8.43481 18.8197C8.4013 18.8016 8.36433 18.7909 8.32634 18.7881L8.71709 19.306C8.73842 19.3342 8.75397 19.3664 8.76286 19.4006C8.77175 19.4349 8.77381 19.4705 8.76891 19.5055C8.764 19.5406 8.75224 19.5743 8.73429 19.6048C8.71635 19.6353 8.69256 19.6619 8.66431 19.6832L5.72009 21.9051C5.66761 21.9444 5.60253 21.9631 5.53719 21.9576L5.8115 22.3212C5.83282 22.3494 5.85949 22.3732 5.88999 22.3911C5.9205 22.4091 5.95423 22.4208 5.98927 22.4257C6.02432 22.4306 6.05998 22.4285 6.09422 22.4196C6.12846 22.4107 6.16061 22.3951 6.18884 22.3738L9.13306 20.1519C9.1613 20.1306 9.18507 20.104 9.20301 20.0735C9.22095 20.0431 9.23271 20.0094 9.23761 19.9743C9.24251 19.9393 9.24046 19.9037 9.23158 19.8694C9.2227 19.8352 9.20715 19.8031 9.18584 19.7749Z" fill="#E6E7E8"/>
<path d="M6.70258 23.553L5.84486 22.6953C5.8109 22.6613 5.78397 22.621 5.76559 22.5767C5.74721 22.5323 5.73775 22.4848 5.73775 22.4367C5.73775 22.3887 5.74721 22.3412 5.76559 22.2968C5.78397 22.2524 5.8109 22.2121 5.84486 22.1782L8.86483 19.1582C8.89878 19.1242 8.93909 19.0973 8.98346 19.0789C9.02782 19.0605 9.07537 19.0511 9.12339 19.0511C9.17142 19.0511 9.21897 19.0605 9.26333 19.0789C9.30769 19.0973 9.348 19.1242 9.38196 19.1582L10.2397 20.0159C10.3082 20.0845 10.3467 20.1775 10.3467 20.2744C10.3467 20.3714 10.3082 20.4644 10.2397 20.533L7.21971 23.5529C7.18576 23.5869 7.14546 23.6138 7.10109 23.6322C7.05673 23.6506 7.00918 23.6601 6.96116 23.6601C6.91314 23.6601 6.86559 23.6506 6.82122 23.6323C6.77686 23.6139 6.73654 23.587 6.70258 23.553Z" fill="#478CF7"/>
<path d="M10.2397 20.016L9.77093 19.5472C9.80489 19.5812 9.83183 19.6215 9.85021 19.6659C9.86859 19.7102 9.87805 19.7578 9.87805 19.8058C9.87805 19.8538 9.86859 19.9014 9.85021 19.9457C9.83183 19.9901 9.80489 20.0304 9.77093 20.0644L6.75096 23.0843C6.6824 23.1529 6.58941 23.1914 6.49245 23.1914C6.39549 23.1914 6.3025 23.1529 6.23393 23.0843L6.70268 23.5531C6.77125 23.6216 6.86424 23.6602 6.9612 23.6602C7.05816 23.6602 7.15115 23.6216 7.21971 23.5531L10.2397 20.5331C10.2736 20.4992 10.3006 20.4589 10.319 20.4145C10.3373 20.3701 10.3468 20.3226 10.3468 20.2746C10.3468 20.2265 10.3373 20.179 10.319 20.1346C10.3006 20.0903 10.2736 20.0499 10.2397 20.016Z" fill="#377DE2"/>
<path d="M7.3517 22.5121C7.56148 22.4623 7.69122 22.2519 7.64147 22.0422C7.59173 21.8324 7.38134 21.7027 7.17156 21.7524C6.96178 21.8021 6.83204 22.0125 6.88179 22.2223C6.93153 22.4321 7.14192 22.5618 7.3517 22.5121Z" fill="white"/>
<path d="M7.42325 21.7872C7.44688 21.8375 7.46103 21.8931 7.46103 21.9523C7.46103 22.168 7.28628 22.3427 7.07066 22.3427C7.01351 22.3425 6.95713 22.3296 6.90556 22.3049C6.94292 22.3855 7.00672 22.451 7.08637 22.4904C7.16603 22.5297 7.25676 22.5407 7.3435 22.5214C7.43024 22.5021 7.50779 22.4538 7.56327 22.3844C7.61875 22.315 7.64884 22.2287 7.64853 22.1398C7.64842 22.0657 7.62716 21.9932 7.58725 21.9307C7.54735 21.8683 7.49045 21.8185 7.42325 21.7872Z" fill="#E6E7E8"/>
<path d="M21.5316 11.9788C21.4437 12.74 21.1187 15.3395 20.625 16.8499C20.0422 18.6346 18.3002 19.1748 17.2597 19.9883C16.6257 20.4568 16.4091 21.3541 16.4414 21.9857L16.436 21.9936L16.3275 22.1373L14.0304 19.8401C13.7579 18.4564 14.7086 17.7264 15.5262 16.734C16.0817 16.0153 16.512 15.2057 16.7731 14.3346C16.8025 14.139 16.9884 14.0828 17.142 14.1893C17.6848 14.5659 17.9118 15.346 17.5712 15.8722L17.395 16.1524C17.3344 16.251 17.4549 16.3549 17.5478 16.2892C18.618 15.7684 19.2458 14.778 19.6838 13.6642C19.9736 12.9281 20.2252 11.5384 21.3051 11.6929C21.442 11.7124 21.5471 11.8452 21.5316 11.9788Z" fill="#FCC4AE"/>
<path d="M21.3051 11.6928C21.218 11.68 21.1296 11.678 21.042 11.6868C20.9307 12.6141 20.6171 14.9717 20.1563 16.3812C19.5734 18.1659 17.8315 18.7061 16.7909 19.5196C16.1569 19.9881 15.9403 20.8854 15.9727 21.517L15.9672 21.5249L15.8588 21.6686L14.0304 19.8401L16.3275 22.1373L16.436 21.9937L16.4414 21.9857C16.409 21.3541 16.6256 20.4568 17.2597 19.9884C18.3002 19.1748 20.0422 18.6346 20.625 16.85C21.1187 15.3396 21.4436 12.7401 21.5316 11.9788C21.5471 11.8452 21.442 11.7125 21.3051 11.6928Z" fill="#F2AD97"/>
<path d="M16.8537 21.4397L16.1886 22.3214C16.1673 22.3496 16.1406 22.3734 16.1101 22.3913C16.0796 22.4092 16.0459 22.421 16.0108 22.4259C15.9758 22.4308 15.9401 22.4287 15.9059 22.4198C15.8716 22.4109 15.8395 22.3953 15.8112 22.374L12.867 20.1521C12.8388 20.1308 12.815 20.1042 12.7971 20.0737C12.7791 20.0432 12.7674 20.0095 12.7625 19.9745C12.7576 19.9394 12.7596 19.9038 12.7685 19.8696C12.7774 19.8353 12.7929 19.8032 12.8142 19.775L13.4794 18.8932C13.5225 18.8363 13.5865 18.7988 13.6572 18.789C13.7279 18.7791 13.7997 18.7977 13.8567 18.8406L16.8012 21.0627C16.8581 21.1057 16.8957 21.1696 16.9055 21.2403C16.9154 21.311 16.8968 21.3827 16.8537 21.4397Z" fill="#F1F2F2"/>
<path d="M16.8012 21.0626L16.4374 20.7881C16.4429 20.8534 16.4243 20.9184 16.385 20.9708L15.7198 21.8525C15.6985 21.8808 15.6719 21.9045 15.6413 21.9225C15.6108 21.9404 15.5771 21.9521 15.5421 21.957C15.507 21.9619 15.4714 21.9598 15.4371 21.9509C15.4029 21.942 15.3707 21.9265 15.3425 21.9051L12.7617 19.9576C12.7644 19.9956 12.7752 20.0327 12.7933 20.0662C12.8115 20.0997 12.8366 20.129 12.867 20.152L15.8112 22.3739C15.8395 22.3952 15.8716 22.4108 15.9059 22.4197C15.9401 22.4286 15.9758 22.4307 16.0108 22.4258C16.0459 22.4209 16.0796 22.4092 16.1101 22.3912C16.1406 22.3733 16.1673 22.3495 16.1886 22.3213L16.8537 21.4396C16.8968 21.3826 16.9154 21.3109 16.9055 21.2402C16.8957 21.1695 16.8581 21.1056 16.8012 21.0626Z" fill="#E6E7E8"/>
<path d="M15.2974 23.553L16.1551 22.6953C16.1891 22.6613 16.216 22.621 16.2344 22.5767C16.2528 22.5323 16.2622 22.4848 16.2622 22.4367C16.2622 22.3887 16.2528 22.3412 16.2344 22.2968C16.216 22.2524 16.1891 22.2121 16.1551 22.1782L13.1352 19.1582C13.1012 19.1242 13.0609 19.0973 13.0165 19.0789C12.9722 19.0605 12.9246 19.0511 12.8766 19.0511C12.8286 19.0511 12.781 19.0605 12.7367 19.0789C12.6923 19.0973 12.652 19.1242 12.618 19.1582L11.7603 20.0159C11.6918 20.0845 11.6532 20.1775 11.6532 20.2744C11.6532 20.3714 11.6918 20.4644 11.7603 20.533L14.7803 23.5529C14.8142 23.5869 14.8545 23.6138 14.8989 23.6322C14.9433 23.6506 14.9908 23.6601 15.0388 23.6601C15.0868 23.6601 15.1344 23.6506 15.1788 23.6323C15.2231 23.6139 15.2634 23.587 15.2974 23.553Z" fill="#478CF7"/>
<path d="M16.155 22.1783L15.6863 21.7095C15.7202 21.7435 15.7472 21.7838 15.7656 21.8282C15.7839 21.8725 15.7934 21.9201 15.7934 21.9681C15.7934 22.0161 15.7839 22.0637 15.7656 22.108C15.7472 22.1524 15.7202 22.1927 15.6863 22.2267L14.8286 23.0844C14.76 23.1529 14.667 23.1914 14.57 23.1914C14.4731 23.1914 14.3801 23.1529 14.3115 23.0844L14.7803 23.5531C14.8488 23.6217 14.9418 23.6602 15.0388 23.6602C15.1357 23.6602 15.2287 23.6217 15.2973 23.5531L16.155 22.6954C16.189 22.6615 16.2159 22.6212 16.2343 22.5768C16.2527 22.5324 16.2622 22.4849 16.2622 22.4368C16.2622 22.3888 16.2527 22.3413 16.2343 22.2969C16.2159 22.2525 16.189 22.2122 16.155 22.1783Z" fill="#377DE2"/>
<path d="M15.1202 22.239C15.1698 22.0292 15.0399 21.8189 14.8301 21.7693C14.6202 21.7197 14.4099 21.8496 14.3603 22.0594C14.3107 22.2692 14.4406 22.4795 14.6504 22.5291C14.8603 22.5787 15.0706 22.4489 15.1202 22.239Z" fill="white"/>
<path d="M14.9069 21.7872C14.9306 21.8375 14.9447 21.8931 14.9447 21.9523C14.9447 22.168 14.77 22.3427 14.5543 22.3427C14.4972 22.3425 14.4408 22.3296 14.3893 22.3049C14.4266 22.3855 14.4904 22.451 14.5701 22.4904C14.6497 22.5297 14.7404 22.5407 14.8272 22.5214C14.9139 22.5021 14.9915 22.4538 15.047 22.3844C15.1024 22.315 15.1325 22.2287 15.1322 22.1398C15.1321 22.0657 15.1108 21.9932 15.0709 21.9307C15.031 21.8683 14.9741 21.8185 14.9069 21.7872Z" fill="#E6E7E8"/>
</svg>
