<svg width="135" height="41" viewBox="0 0 135 41" fill="none" xmlns="http://www.w3.org/2000/svg">
<rect x="0.5" y="1" width="134" height="39" rx="4.5" fill="black"/>
<rect x="0.5" y="1" width="134" height="39" rx="4.5" stroke="#A6A6A6"/>
<path d="M68.136 22.2509C65.784 22.2509 63.867 24.0399 63.867 26.5039C63.867 28.9529 65.784 30.7569 68.136 30.7569C70.489 30.7569 72.406 28.9529 72.406 26.5039C72.405 24.0399 70.488 22.2509 68.136 22.2509ZM68.136 29.0829C66.847 29.0829 65.736 28.0199 65.736 26.5049C65.736 24.9739 66.848 23.9269 68.136 23.9269C69.425 23.9269 70.536 24.9739 70.536 26.5049C70.536 28.0189 69.425 29.0829 68.136 29.0829ZM58.822 22.2509C56.47 22.2509 54.553 24.0399 54.553 26.5039C54.553 28.9529 56.47 30.7569 58.822 30.7569C61.175 30.7569 63.092 28.9529 63.092 26.5039C63.092 24.0399 61.175 22.2509 58.822 22.2509ZM58.822 29.0829C57.533 29.0829 56.422 28.0199 56.422 26.5049C56.422 24.9739 57.534 23.9269 58.822 23.9269C60.111 23.9269 61.222 24.9739 61.222 26.5049C61.223 28.0189 60.111 29.0829 58.822 29.0829ZM47.744 23.5569V25.3609H52.062C51.933 26.3759 51.595 27.1169 51.079 27.6319C50.451 28.2599 49.468 28.9529 47.744 28.9529C45.086 28.9529 43.008 26.8099 43.008 24.1519C43.008 21.4939 45.086 19.3509 47.744 19.3509C49.178 19.3509 50.225 19.9149 50.998 20.6399L52.271 19.3669C51.191 18.3359 49.758 17.5469 47.744 17.5469C44.103 17.5469 41.042 20.5109 41.042 24.1519C41.042 27.7929 44.103 30.7569 47.744 30.7569C49.709 30.7569 51.192 30.1119 52.351 28.9039C53.543 27.7119 53.914 26.0359 53.914 24.6829C53.914 24.2649 53.882 23.8779 53.817 23.5559L47.744 23.5569ZM93.052 24.9579C92.698 24.0079 91.618 22.2509 89.411 22.2509C87.22 22.2509 85.399 23.9749 85.399 26.5039C85.399 28.8879 87.204 30.7569 89.62 30.7569C91.569 30.7569 92.697 29.5649 93.165 28.8719L91.715 27.9049C91.232 28.6139 90.571 29.0809 89.62 29.0809C88.67 29.0809 87.993 28.6459 87.558 27.7919L93.245 25.4399L93.052 24.9579ZM87.252 26.3759C87.204 24.7319 88.525 23.8949 89.476 23.8949C90.217 23.8949 90.845 24.2659 91.055 24.7969L87.252 26.3759ZM82.629 30.4999H84.497V17.9989H82.629V30.4999ZM79.567 23.2019H79.503C79.084 22.7019 78.278 22.2509 77.264 22.2509C75.137 22.2509 73.188 24.1199 73.188 26.5209C73.188 28.9049 75.137 30.7579 77.264 30.7579C78.279 30.7579 79.084 30.3069 79.503 29.7919H79.567V30.4039C79.567 32.0309 78.697 32.9009 77.296 32.9009C76.152 32.9009 75.443 32.0799 75.153 31.3869L73.526 32.0639C73.993 33.1909 75.233 34.5769 77.296 34.5769C79.487 34.5769 81.34 33.2879 81.34 30.1459V22.5099H79.568L79.567 23.2019ZM77.425 29.0829C76.136 29.0829 75.057 28.0029 75.057 26.5209C75.057 25.0219 76.136 23.9269 77.425 23.9269C78.697 23.9269 79.696 25.0219 79.696 26.5209C79.696 28.0029 78.697 29.0829 77.425 29.0829ZM101.806 17.9989H97.335V30.4999H99.2V25.7639H101.805C103.873 25.7639 105.907 24.2669 105.907 21.8819C105.907 19.4969 103.874 17.9989 101.806 17.9989ZM101.854 24.0239H99.2V19.7389H101.854C103.249 19.7389 104.041 20.8939 104.041 21.8819C104.041 22.8499 103.249 24.0239 101.854 24.0239ZM113.386 22.2289C112.035 22.2289 110.636 22.8239 110.057 24.1429L111.713 24.8339C112.067 24.1429 112.727 23.9169 113.418 23.9169C114.383 23.9169 115.364 24.4959 115.38 25.5249V25.6539C115.042 25.4609 114.318 25.1719 113.434 25.1719C111.649 25.1719 109.831 26.1529 109.831 27.9859C109.831 29.6589 111.295 30.7359 112.935 30.7359C114.189 30.7359 114.881 30.1729 115.315 29.5129H115.379V30.4779H117.181V25.6849C117.182 23.4669 115.524 22.2289 113.386 22.2289ZM113.16 29.0799C112.55 29.0799 111.697 28.7739 111.697 28.0179C111.697 27.0529 112.759 26.6829 113.676 26.6829C114.495 26.6829 114.882 26.8599 115.38 27.1009C115.235 28.2599 114.238 29.0799 113.16 29.0799ZM123.743 22.5019L121.604 27.9219H121.54L119.32 22.5019H117.31L120.639 30.0769L118.741 34.2909H120.687L125.818 22.5019H123.743ZM106.937 30.4999H108.802V17.9989H106.937V30.4999Z" fill="white"/>
<path d="M47.4176 10.7432C47.4176 11.5812 47.1696 12.2482 46.6726 12.7462C46.1086 13.3382 45.3726 13.6342 44.4686 13.6342C43.6026 13.6342 42.8656 13.3342 42.2606 12.7342C41.6546 12.1332 41.3516 11.3892 41.3516 10.5012C41.3516 9.61219 41.6546 8.86819 42.2606 8.26819C42.8656 7.66719 43.6026 7.36719 44.4686 7.36719C44.8986 7.36719 45.3096 7.45119 45.6996 7.61819C46.0906 7.78619 46.4036 8.00919 46.6376 8.28819L46.1106 8.81619C45.7136 8.34119 45.1666 8.10419 44.4676 8.10419C43.8356 8.10419 43.2896 8.32619 42.8286 8.77019C42.3676 9.21419 42.1376 9.79119 42.1376 10.5002C42.1376 11.2092 42.3676 11.7862 42.8286 12.2302C43.2896 12.6742 43.8356 12.8962 44.4676 12.8962C45.1376 12.8962 45.6966 12.6732 46.1436 12.2262C46.4336 11.9352 46.6016 11.5302 46.6466 11.0112H44.4676V10.2902H47.3746C47.4046 10.4472 47.4176 10.5982 47.4176 10.7432Z" fill="white"/>
<path d="M52.0277 8.23724H49.2957V10.1392H51.7597V10.8602H49.2957V12.7622H52.0277V13.5002H48.5247V7.50024H52.0277V8.23724Z" fill="white"/>
<path d="M55.2785 13.5002H54.5075V8.23724H52.8315V7.50024H56.9545V8.23724H55.2785V13.5002Z" fill="white"/>
<path d="M59.9375 13.5002V7.50024H60.7085V13.5002H59.9375Z" fill="white"/>
<path d="M64.1277 13.5002H63.3567V8.23724H61.6807V7.50024H65.8037V8.23724H64.1277V13.5002Z" fill="white"/>
<path d="M73.6084 12.7252C73.0184 13.3312 72.2854 13.6342 71.4084 13.6342C70.5314 13.6342 69.7984 13.3312 69.2094 12.7252C68.6194 12.1192 68.3254 11.3772 68.3254 10.5002C68.3254 9.62323 68.6194 8.88123 69.2094 8.27523C69.7984 7.66923 70.5314 7.36523 71.4084 7.36523C72.2804 7.36523 73.0124 7.67023 73.6044 8.27923C74.1964 8.88823 74.4924 9.62823 74.4924 10.5002C74.4924 11.3772 74.1974 12.1192 73.6084 12.7252ZM69.7784 12.2222C70.2224 12.6722 70.7654 12.8962 71.4084 12.8962C72.0514 12.8962 72.5954 12.6712 73.0384 12.2222C73.4824 11.7722 73.7054 11.1982 73.7054 10.5002C73.7054 9.80223 73.4824 9.22823 73.0384 8.77823C72.5954 8.32823 72.0514 8.10423 71.4084 8.10423C70.7654 8.10423 70.2224 8.32923 69.7784 8.77823C69.3354 9.22823 69.1124 9.80223 69.1124 10.5002C69.1124 11.1982 69.3354 11.7722 69.7784 12.2222Z" fill="white"/>
<path d="M75.5745 13.5002V7.50024H76.5125L79.4285 12.1672H79.4615L79.4285 11.0112V7.50024H80.1995V13.5002H79.3945L76.3435 8.60625H76.3105L76.3435 9.76224V13.5002H75.5745Z" fill="white"/>
<path d="M47.4176 10.7432C47.4176 11.5812 47.1696 12.2482 46.6726 12.7462C46.1086 13.3382 45.3726 13.6342 44.4686 13.6342C43.6026 13.6342 42.8656 13.3342 42.2606 12.7342C41.6546 12.1332 41.3516 11.3892 41.3516 10.5012C41.3516 9.61219 41.6546 8.86819 42.2606 8.26819C42.8656 7.66719 43.6026 7.36719 44.4686 7.36719C44.8986 7.36719 45.3096 7.45119 45.6996 7.61819C46.0906 7.78619 46.4036 8.00919 46.6376 8.28819L46.1106 8.81619C45.7136 8.34119 45.1666 8.10419 44.4676 8.10419C43.8356 8.10419 43.2896 8.32619 42.8286 8.77019C42.3676 9.21419 42.1376 9.79119 42.1376 10.5002C42.1376 11.2092 42.3676 11.7862 42.8286 12.2302C43.2896 12.6742 43.8356 12.8962 44.4676 12.8962C45.1376 12.8962 45.6966 12.6732 46.1436 12.2262C46.4336 11.9352 46.6016 11.5302 46.6466 11.0112H44.4676V10.2902H47.3746C47.4046 10.4472 47.4176 10.5982 47.4176 10.7432Z" stroke="white" stroke-width="0.2" stroke-miterlimit="10"/>
<path d="M52.0277 8.23724H49.2957V10.1392H51.7597V10.8602H49.2957V12.7622H52.0277V13.5002H48.5247V7.50024H52.0277V8.23724Z" stroke="white" stroke-width="0.2" stroke-miterlimit="10"/>
<path d="M55.2785 13.5002H54.5075V8.23724H52.8315V7.50024H56.9545V8.23724H55.2785V13.5002Z" stroke="white" stroke-width="0.2" stroke-miterlimit="10"/>
<path d="M59.9375 13.5002V7.50024H60.7085V13.5002H59.9375Z" stroke="white" stroke-width="0.2" stroke-miterlimit="10"/>
<path d="M64.1277 13.5002H63.3567V8.23724H61.6807V7.50024H65.8037V8.23724H64.1277V13.5002Z" stroke="white" stroke-width="0.2" stroke-miterlimit="10"/>
<path d="M73.6084 12.7252C73.0184 13.3312 72.2854 13.6342 71.4084 13.6342C70.5314 13.6342 69.7984 13.3312 69.2094 12.7252C68.6194 12.1192 68.3254 11.3772 68.3254 10.5002C68.3254 9.62323 68.6194 8.88123 69.2094 8.27523C69.7984 7.66923 70.5314 7.36523 71.4084 7.36523C72.2804 7.36523 73.0124 7.67023 73.6044 8.27923C74.1964 8.88823 74.4924 9.62823 74.4924 10.5002C74.4924 11.3772 74.1974 12.1192 73.6084 12.7252ZM69.7784 12.2222C70.2224 12.6722 70.7654 12.8962 71.4084 12.8962C72.0514 12.8962 72.5954 12.6712 73.0384 12.2222C73.4824 11.7722 73.7054 11.1982 73.7054 10.5002C73.7054 9.80223 73.4824 9.22823 73.0384 8.77823C72.5954 8.32823 72.0514 8.10423 71.4084 8.10423C70.7654 8.10423 70.2224 8.32923 69.7784 8.77823C69.3354 9.22823 69.1124 9.80223 69.1124 10.5002C69.1124 11.1982 69.3354 11.7722 69.7784 12.2222Z" stroke="white" stroke-width="0.2" stroke-miterlimit="10"/>
<path d="M75.5745 13.5002V7.50024H76.5125L79.4285 12.1672H79.4615L79.4285 11.0112V7.50024H80.1995V13.5002H79.3945L76.3435 8.60625H76.3105L76.3435 9.76224V13.5002H75.5745Z" stroke="white" stroke-width="0.2" stroke-miterlimit="10"/>
<g filter="url(#filter0_ii_0_618)">
<path d="M10.4357 8.03772C10.1447 8.34572 9.97266 8.82372 9.97266 9.44272V31.5587C9.97266 32.1787 10.1447 32.6557 10.4357 32.9637L10.5097 33.0357L22.8987 20.6467V20.5007V20.3547L10.5097 7.96472L10.4357 8.03772Z" fill="url(#paint0_linear_0_618)"/>
<path d="M27.0277 24.7777L22.8986 20.6467V20.5007V20.3547L27.0287 16.2247L27.1217 16.2777L32.0147 19.0577C33.4117 19.8517 33.4117 21.1507 32.0147 21.9457L27.1217 24.7257L27.0277 24.7777Z" fill="url(#paint1_linear_0_618)"/>
<g filter="url(#filter1_i_0_618)">
<path d="M27.1215 24.725L22.8975 20.501L10.4355 32.964C10.8955 33.452 11.6565 33.512 12.5135 33.026L27.1215 24.725Z" fill="url(#paint2_linear_0_618)"/>
</g>
<path d="M27.1217 16.2767L12.5137 7.9767C11.6567 7.4897 10.8957 7.5507 10.4357 8.0387L22.8987 20.5017L27.1217 16.2767Z" fill="url(#paint3_linear_0_618)"/>
</g>
<defs>
<filter id="filter0_ii_0_618" x="9.97266" y="7.64062" width="23.0898" height="25.7211" filterUnits="userSpaceOnUse" color-interpolation-filters="sRGB">
<feFlood flood-opacity="0" result="BackgroundImageFix"/>
<feBlend mode="normal" in="SourceGraphic" in2="BackgroundImageFix" result="shape"/>
<feColorMatrix in="SourceAlpha" type="matrix" values="0 0 0 0 0 0 0 0 0 0 0 0 0 0 0 0 0 0 127 0" result="hardAlpha"/>
<feOffset dy="-0.15"/>
<feComposite in2="hardAlpha" operator="arithmetic" k2="-1" k3="1"/>
<feColorMatrix type="matrix" values="0 0 0 0 0 0 0 0 0 0 0 0 0 0 0 0 0 0 0.12 0"/>
<feBlend mode="normal" in2="shape" result="effect1_innerShadow_0_618"/>
<feColorMatrix in="SourceAlpha" type="matrix" values="0 0 0 0 0 0 0 0 0 0 0 0 0 0 0 0 0 0 127 0" result="hardAlpha"/>
<feOffset dy="0.15"/>
<feComposite in2="hardAlpha" operator="arithmetic" k2="-1" k3="1"/>
<feColorMatrix type="matrix" values="0 0 0 0 1 0 0 0 0 1 0 0 0 0 1 0 0 0 0.25 0"/>
<feBlend mode="normal" in2="effect1_innerShadow_0_618" result="effect2_innerShadow_0_618"/>
</filter>
<filter id="filter1_i_0_618" x="10.4355" y="20.501" width="16.686" height="12.8607" filterUnits="userSpaceOnUse" color-interpolation-filters="sRGB">
<feFlood flood-opacity="0" result="BackgroundImageFix"/>
<feBlend mode="normal" in="SourceGraphic" in2="BackgroundImageFix" result="shape"/>
<feColorMatrix in="SourceAlpha" type="matrix" values="0 0 0 0 0 0 0 0 0 0 0 0 0 0 0 0 0 0 127 0" result="hardAlpha"/>
<feOffset dy="-0.15"/>
<feComposite in2="hardAlpha" operator="arithmetic" k2="-1" k3="1"/>
<feColorMatrix type="matrix" values="0 0 0 0 0 0 0 0 0 0 0 0 0 0 0 0 0 0 0.08 0"/>
<feBlend mode="normal" in2="shape" result="effect1_innerShadow_0_618"/>
</filter>
<linearGradient id="paint0_linear_0_618" x1="21.8005" y1="9.20872" x2="5.01846" y2="25.9907" gradientUnits="userSpaceOnUse">
<stop stop-color="#00A0FF"/>
<stop offset="0.0066" stop-color="#00A1FF"/>
<stop offset="0.2601" stop-color="#00BEFF"/>
<stop offset="0.5122" stop-color="#00D2FF"/>
<stop offset="0.7604" stop-color="#00DFFF"/>
<stop offset="1" stop-color="#00E3FF"/>
</linearGradient>
<linearGradient id="paint1_linear_0_618" x1="33.8332" y1="20.5007" x2="9.63725" y2="20.5007" gradientUnits="userSpaceOnUse">
<stop stop-color="#FFE000"/>
<stop offset="0.4087" stop-color="#FFBD00"/>
<stop offset="0.7754" stop-color="#FFA500"/>
<stop offset="1" stop-color="#FF9C00"/>
</linearGradient>
<linearGradient id="paint2_linear_0_618" x1="24.8276" y1="22.7949" x2="2.06915" y2="45.5534" gradientUnits="userSpaceOnUse">
<stop stop-color="#FF3A44"/>
<stop offset="1" stop-color="#C31162"/>
</linearGradient>
<linearGradient id="paint3_linear_0_618" x1="7.29707" y1="0.676501" x2="17.4594" y2="10.8388" gradientUnits="userSpaceOnUse">
<stop stop-color="#32A071"/>
<stop offset="0.0685" stop-color="#2DA771"/>
<stop offset="0.4762" stop-color="#15CF74"/>
<stop offset="0.8009" stop-color="#06E775"/>
<stop offset="1" stop-color="#00F076"/>
</linearGradient>
</defs>
</svg>
