<svg width="208" height="40" viewBox="0 0 208 40" fill="none" xmlns="http://www.w3.org/2000/svg">
<path d="M0 20C0 8.9543 8.9543 0 20 0C31.0457 0 40 8.9543 40 20C40 31.0457 31.0457 40 20 40C8.9543 40 0 31.0457 0 20Z" fill="#F1F1F1"/>
<path d="M24.8127 18.0625H23.0627H22.4377V17.4375V15.5V14.875H23.0627H24.3752C24.719 14.875 25.0002 14.625 25.0002 14.25V10.9375C25.0002 10.5938 24.7502 10.3125 24.3752 10.3125H22.094C19.6252 10.3125 17.9065 12.0625 17.9065 14.6562V17.375V18H17.2815H15.1565C14.719 18 14.3127 18.3438 14.3127 18.8438V21.0938C14.3127 21.5312 14.6565 21.9375 15.1565 21.9375H17.219H17.844V22.5625V28.8438C17.844 29.2812 18.1877 29.6875 18.6877 29.6875H21.6252C21.8127 29.6875 21.969 29.5938 22.094 29.4688C22.219 29.3438 22.3127 29.125 22.3127 28.9375V22.5938V21.9688H22.969H24.3752C24.7815 21.9688 25.094 21.7188 25.1565 21.3438V21.3125V21.2812L25.594 19.125C25.6252 18.9062 25.594 18.6562 25.4065 18.4062C25.344 18.25 25.0627 18.0938 24.8127 18.0625Z" fill="#09342F"/>
<path d="M56.5 20C56.5 9.23045 65.2304 0.5 76 0.5C86.7696 0.5 95.5 9.23045 95.5 20C95.5 30.7696 86.7696 39.5 76 39.5C65.2304 39.5 56.5 30.7696 56.5 20Z" fill="#09342F" stroke="#DFE4EA"/>
<path d="M84.2942 15.3752C84.4056 15.2453 84.2603 15.0756 84.0955 15.1364C83.7277 15.2721 83.3915 15.3616 82.8943 15.4168C83.5058 15.0763 83.7903 14.5897 84.0216 13.9936C84.0773 13.8498 83.9091 13.7193 83.7642 13.788C83.1756 14.0671 82.5405 14.2741 81.8727 14.3965C81.2126 13.7423 80.2717 13.3335 79.2308 13.3335C77.2322 13.3335 75.6114 14.8408 75.6114 16.6995C75.6114 16.9633 75.6438 17.2204 75.7048 17.4665C72.8317 17.3326 70.2698 16.1036 68.49 14.219C68.368 14.0898 68.1466 14.107 68.0707 14.2645C67.868 14.6848 67.7551 15.1511 67.7551 15.642C67.7551 16.8095 68.3938 17.8397 69.3649 18.4433C68.9295 18.4302 68.5131 18.3454 68.1294 18.2014C67.9426 18.1314 67.7285 18.2545 67.7536 18.4429C67.9462 19.8895 69.1174 21.0829 70.6292 21.3649C70.3256 21.4422 70.0058 21.4832 69.6751 21.4832C69.5949 21.4832 69.5153 21.4807 69.4366 21.4758C69.2361 21.4634 69.0732 21.6427 69.1591 21.8143C69.7262 22.9462 70.9507 23.7363 72.3757 23.7609C71.1371 24.6639 69.5766 25.2019 67.8808 25.2019C67.6717 25.2019 67.582 25.4707 67.7675 25.5619C69.2002 26.2662 70.8317 26.6668 72.5653 26.6668C79.2228 26.6668 82.8628 21.5379 82.8628 17.0898C82.8628 16.9442 82.8591 16.7986 82.8525 16.6544C83.3928 16.2913 83.8786 15.8597 84.2942 15.3752Z" fill="#F1F1F1"/>
<path d="M151.5 20C151.5 30.7696 142.77 39.5 132 39.5C121.23 39.5 112.5 30.7696 112.5 20C112.5 9.23045 121.23 0.5 132 0.5C142.77 0.5 151.5 9.23045 151.5 20Z" fill="#09342F" stroke="#DFE4EA"/>
<g clip-path="url(#clip0_0_709)">
<path d="M141.491 15.4537C141.271 14.6039 140.61 13.943 139.76 13.7226C138.249 13.3135 132.143 13.3135 132.143 13.3135C132.143 13.3135 126.037 13.3135 124.527 13.7226C123.677 13.943 123.016 14.6039 122.796 15.4537C122.386 16.9959 122.386 20.1433 122.386 20.1433C122.386 20.1433 122.386 23.3222 122.796 24.8329C123.016 25.6827 123.677 26.3437 124.527 26.564C126.037 26.9732 132.143 26.9732 132.143 26.9732C132.143 26.9732 138.249 26.9732 139.76 26.564C140.61 26.3437 141.271 25.6827 141.491 24.8329C141.9 23.3222 141.9 20.1433 141.9 20.1433C141.9 20.1433 141.9 16.9959 141.491 15.4537ZM130.192 23.0704V17.2162L135.259 20.1433L130.192 23.0704Z" fill="#F1F1F1"/>
</g>
<path d="M207.5 20C207.5 30.7696 198.77 39.5 188 39.5C177.23 39.5 168.5 30.7696 168.5 20C168.5 9.23045 177.23 0.5 188 0.5C198.77 0.5 207.5 9.23045 207.5 20Z" fill="#09342F" stroke="#DFE4EA"/>
<path d="M184.183 14.2683C184.183 14.7135 184.006 15.1404 183.691 15.455C183.376 15.7697 182.949 15.9463 182.503 15.9461C182.058 15.9459 181.631 15.7688 181.317 15.4538C181.002 15.1389 180.825 14.7118 180.826 14.2666C180.826 13.8214 181.003 13.3946 181.318 13.0799C181.633 12.7653 182.06 12.5886 182.505 12.5889C182.95 12.5891 183.377 12.7662 183.692 13.0811C184.006 13.3961 184.183 13.8231 184.183 14.2683ZM184.233 17.1891H180.876V27.6972H184.233V17.1891ZM189.538 17.1891H186.197V27.6972H189.504V22.183C189.504 19.1111 193.508 18.8257 193.508 22.183V27.6972H196.823V21.0415C196.823 15.863 190.897 16.056 189.504 18.5991L189.538 17.1891Z" fill="#F1F1F1"/>
<defs>
<clipPath id="clip0_0_709">
<rect width="20.1433" height="20.1433" fill="white" transform="translate(122.072 10.0718)"/>
</clipPath>
</defs>
</svg>
