<svg width="20" height="20" viewBox="0 0 20 20" fill="none" xmlns="http://www.w3.org/2000/svg">
<g clip-path="url(#clip0_154_94)">
<path d="M3.03165 7.5C2.91031 7.50035 2.79035 7.47419 2.68017 7.42336C2.56999 7.37253 2.47223 7.29825 2.39374 7.20571C2.31525 7.11317 2.25792 7.00461 2.22575 6.88761C2.19357 6.77061 2.18734 6.64799 2.20749 6.52833C2.50882 4.84806 3.34302 3.3094 4.58665 2.14C5.37572 1.39454 6.31093 0.820992 7.33311 0.455642C8.35528 0.0902918 9.44217 -0.058903 10.525 0.0174991C14.7092 0.287499 17.9775 3.93 17.9158 8.28167C17.8825 10.63 15.925 12.5008 13.5758 12.5008H11.1325C10.8233 12.8005 10.4097 12.9681 9.97915 12.9683C9.53713 12.9683 9.1132 12.7927 8.80064 12.4802C8.48808 12.1676 8.31249 11.7437 8.31249 11.3017C8.31249 10.8596 8.48808 10.4357 8.80064 10.1232C9.1132 9.81059 9.53713 9.635 9.97915 9.635C10.7358 9.635 11.3675 10.1425 11.5708 10.8342H13.5758C15.0225 10.8342 16.2333 9.68167 16.2492 8.23583C16.2875 4.78083 13.7117 1.895 10.4175 1.68167C8.66832 1.57333 6.99999 2.16333 5.72582 3.3575C4.73268 4.27983 4.07059 5.50328 3.84165 6.83917C3.77499 7.2275 3.42499 7.50167 3.03165 7.50167V7.5ZM9.99999 14.1667C6.92082 14.1667 4.25665 16.0767 3.37082 18.9183C3.33149 19.0431 3.32215 19.1754 3.34358 19.3045C3.36501 19.4336 3.41659 19.5558 3.49413 19.6612C3.57168 19.7666 3.67299 19.8522 3.78985 19.9111C3.90671 19.9699 4.03581 20.0004 4.16665 20H15.8333C15.9639 19.9997 16.0926 19.9688 16.2091 19.9097C16.3256 19.8506 16.4266 19.765 16.504 19.6598C16.5814 19.5546 16.633 19.4328 16.6548 19.304C16.6765 19.1752 16.6677 19.0431 16.6292 18.9183C15.7433 16.0767 13.0792 14.1667 9.99999 14.1667ZM12.445 9.16667H14.4067C14.5192 8.76917 14.5833 8.35083 14.5833 7.91667C14.5839 7.16538 14.3998 6.42546 14.0473 5.76204C13.6947 5.09862 13.1845 4.53204 12.5615 4.11218C11.9384 3.69231 11.2218 3.43203 10.4745 3.35424C9.72728 3.27645 8.97237 3.38355 8.27624 3.6661C7.58011 3.94865 6.96411 4.39799 6.48247 4.97458C6.00082 5.55116 5.66829 6.2373 5.51415 6.9726C5.36002 7.7079 5.38899 8.46983 5.59854 9.1913C5.80808 9.91277 6.19177 10.5717 6.71582 11.11C6.81665 9.38833 8.23165 8.01917 9.97915 8.01917C10.4489 8.02029 10.9128 8.1235 11.3387 8.32163C11.7646 8.51977 12.1424 8.8081 12.4458 9.16667H12.445Z" fill="#F1F1F1"/>
</g>
<defs>
<clipPath id="clip0_154_94">
<rect width="20" height="20" fill="white"/>
</clipPath>
</defs>
</svg>
