<svg width="156" height="32" viewBox="0 0 156 32" fill="none" xmlns="http://www.w3.org/2000/svg">
<path d="M0 2C0 0.895431 0.895431 0 2 0H148C152.418 0 156 3.58172 156 8V30C156 31.1046 155.105 32 154 32H8C3.58172 32 0 28.4183 0 24V2Z" fill="url(#paint0_radial_0_318)"/>
<g clip-path="url(#clip0_0_318)">
<path d="M31.1667 17.6667V14.2933C31.6383 14.1975 32 13.8 32 13.3008C32 12.9225 31.7933 12.575 31.4617 12.3942L27.715 10.3508C27.4957 10.2311 27.2499 10.1683 27 10.1683C26.7501 10.1683 26.5043 10.2311 26.285 10.3508L22.5383 12.3942C22.3753 12.4831 22.2393 12.6143 22.1446 12.774C22.0499 12.9337 21.9999 13.116 22 13.3017C22 13.8017 22.3617 14.1983 22.8333 14.2942V17.6675C22.6123 17.6675 22.4004 17.7553 22.2441 17.9116C22.0878 18.0679 22 18.2798 22 18.5008C22 18.7218 22.0878 18.9338 22.2441 19.0901C22.4004 19.2464 22.6123 19.3342 22.8333 19.3342H31.1667C31.3877 19.3342 31.5996 19.2464 31.7559 19.0901C31.9122 18.9338 32 18.7218 32 18.5008C32 18.2798 31.9122 18.0679 31.7559 17.9116C31.5996 17.7553 31.3877 17.6675 31.1667 17.6675V17.6667ZM29.5 17.6667H27.8333V14.3333H29.5V17.6667ZM24.5 14.3333H26.1667V17.6667H24.5V14.3333ZM20.3333 19.3333H12V9.33333C12 8.44928 12.3512 7.60143 12.9763 6.97631C13.6014 6.35119 14.4493 6 15.3333 6H22C23.64 6 25.3333 7.33 25.3333 8.97C25.3333 10.61 21.98 10.7992 21.98 10.7992C21.4816 11.071 21.0656 11.472 20.7759 11.9602C20.4861 12.4484 20.3332 13.0056 20.3333 13.5733V19.3333ZM12 22.6667C12 23.5507 12.3512 24.3986 12.9763 25.0237C13.6014 25.6488 14.4493 26 15.3333 26H22C22.8841 26 23.7319 25.6488 24.357 25.0237C24.9821 24.3986 25.3333 23.5507 25.3333 22.6667V21H12V22.6667ZM17.8333 22.6667H19.5C19.721 22.6667 19.933 22.7545 20.0893 22.9107C20.2455 23.067 20.3333 23.279 20.3333 23.5C20.3333 23.721 20.2455 23.933 20.0893 24.0893C19.933 24.2455 19.721 24.3333 19.5 24.3333H17.8333C17.6123 24.3333 17.4004 24.2455 17.2441 24.0893C17.0878 23.933 17 23.721 17 23.5C17 23.279 17.0878 23.067 17.2441 22.9107C17.4004 22.7545 17.6123 22.6667 17.8333 22.6667Z" fill="#F1F1F1"/>
</g>
<path d="M45.022 21V14.084H46.632V21H45.022ZM45.82 13.202C45.5307 13.202 45.2787 13.1087 45.064 12.922C44.8587 12.726 44.756 12.4693 44.756 12.152C44.756 11.8347 44.8587 11.5827 45.064 11.396C45.2787 11.2 45.5307 11.102 45.82 11.102C46.128 11.102 46.38 11.2 46.576 11.396C46.7813 11.5827 46.884 11.8347 46.884 12.152C46.884 12.4693 46.7813 12.726 46.576 12.922C46.38 13.1087 46.128 13.202 45.82 13.202ZM47.8744 21V19.516H49.1904V12.684H47.8744V11.2H52.8864C53.4744 11.2 53.9877 11.3027 54.4264 11.508C54.8744 11.704 55.2197 11.9887 55.4624 12.362C55.7144 12.726 55.8404 13.1647 55.8404 13.678V13.804C55.8404 14.252 55.7564 14.6207 55.5884 14.91C55.4204 15.1993 55.2197 15.4233 54.9864 15.582C54.7531 15.7407 54.5291 15.8527 54.3144 15.918V16.156C54.5291 16.212 54.7577 16.3193 55.0004 16.478C55.2524 16.6273 55.4624 16.8513 55.6304 17.15C55.8077 17.4393 55.8964 17.8173 55.8964 18.284V18.424C55.8964 18.956 55.7657 19.418 55.5044 19.81C55.2524 20.1927 54.9024 20.4867 54.4544 20.692C54.0157 20.8973 53.5071 21 52.9284 21H47.8744ZM50.8704 19.474H52.7324C53.1804 19.474 53.5351 19.3667 53.7964 19.152C54.0671 18.928 54.2024 18.6153 54.2024 18.214V18.088C54.2024 17.6867 54.0717 17.3787 53.8104 17.164C53.5491 16.94 53.1897 16.828 52.7324 16.828H50.8704V19.474ZM50.8704 15.302H52.7184C53.1477 15.302 53.4931 15.1947 53.7544 14.98C54.0251 14.7653 54.1604 14.4667 54.1604 14.084V13.944C54.1604 13.5613 54.0251 13.2627 53.7544 13.048C53.4931 12.8333 53.1477 12.726 52.7184 12.726H50.8704V15.302ZM56.2916 21L58.9796 11.2H61.9056L64.5936 21H62.8576L62.2696 18.76H58.6156L58.0276 21H56.2916ZM59.0076 17.22H61.8776L60.5616 12.25H60.3236L59.0076 17.22ZM65.4169 21V11.2H68.6369L70.9469 19.866H71.1709V11.2H72.8369V21H69.6309L67.3209 12.334H67.0829V21H65.4169ZM74.3485 21V11.2H76.0425V15.19H76.2805L79.6965 11.2H81.8665L77.5965 16.03L82.0065 21H79.7805L76.2805 16.926H76.0425V21H74.3485ZM82.6375 21V11.2H84.3315V21H82.6375ZM85.8405 21V11.2H89.0605L91.3705 19.866H91.5945V11.2H93.2605V21H90.0545L87.7445 12.334H87.5065V21H85.8405ZM98.1741 21.196C97.4834 21.196 96.8628 21.0467 96.3121 20.748C95.7708 20.44 95.3368 19.9967 95.0101 19.418C94.6928 18.83 94.5341 18.1113 94.5341 17.262V14.938C94.5341 13.6687 94.8888 12.698 95.5981 12.026C96.3074 11.3447 97.2594 11.004 98.4541 11.004C99.6488 11.004 100.568 11.326 101.212 11.97C101.856 12.6047 102.178 13.4633 102.178 14.546V14.602H100.526V14.49C100.526 14.1167 100.451 13.7807 100.302 13.482C100.153 13.1833 99.9241 12.95 99.6161 12.782C99.3081 12.6047 98.9208 12.516 98.4541 12.516C97.7634 12.516 97.2174 12.7307 96.8161 13.16C96.4241 13.58 96.2281 14.1633 96.2281 14.91V17.29C96.2281 18.0273 96.4241 18.6153 96.8161 19.054C97.2174 19.4927 97.7728 19.712 98.4821 19.712C99.1914 19.712 99.7094 19.5207 100.036 19.138C100.363 18.7553 100.526 18.2653 100.526 17.668V17.5H98.0481V16.072H102.178V21H100.638V20.034H100.4C100.325 20.202 100.209 20.3793 100.05 20.566C99.8914 20.7433 99.6628 20.8927 99.3641 21.014C99.0748 21.1353 98.6781 21.196 98.1741 21.196ZM106.756 21V11.2H108.45V19.474H113.042V21H106.756ZM117.362 21.196C116.148 21.196 115.178 20.86 114.45 20.188C113.731 19.5067 113.372 18.5313 113.372 17.262V14.938C113.372 13.6687 113.731 12.698 114.45 12.026C115.178 11.3447 116.148 11.004 117.362 11.004C118.584 11.004 119.555 11.3447 120.274 12.026C120.992 12.698 121.352 13.6687 121.352 14.938V17.262C121.352 18.5313 120.992 19.5067 120.274 20.188C119.555 20.86 118.584 21.196 117.362 21.196ZM117.362 19.684C118.09 19.684 118.654 19.474 119.056 19.054C119.466 18.6247 119.672 18.046 119.672 17.318V14.882C119.672 14.154 119.466 13.58 119.056 13.16C118.654 12.7307 118.09 12.516 117.362 12.516C116.643 12.516 116.078 12.7307 115.668 13.16C115.266 13.58 115.066 14.154 115.066 14.882V17.318C115.066 18.046 115.266 18.6247 115.668 19.054C116.078 19.474 116.643 19.684 117.362 19.684ZM126.025 21.196C125.335 21.196 124.714 21.0467 124.163 20.748C123.622 20.44 123.188 19.9967 122.861 19.418C122.544 18.83 122.385 18.1113 122.385 17.262V14.938C122.385 13.6687 122.74 12.698 123.449 12.026C124.159 11.3447 125.111 11.004 126.305 11.004C127.5 11.004 128.419 11.326 129.063 11.97C129.707 12.6047 130.029 13.4633 130.029 14.546V14.602H128.377V14.49C128.377 14.1167 128.303 13.7807 128.153 13.482C128.004 13.1833 127.775 12.95 127.467 12.782C127.159 12.6047 126.772 12.516 126.305 12.516C125.615 12.516 125.069 12.7307 124.667 13.16C124.275 13.58 124.079 14.1633 124.079 14.91V17.29C124.079 18.0273 124.275 18.6153 124.667 19.054C125.069 19.4927 125.624 19.712 126.333 19.712C127.043 19.712 127.561 19.5207 127.887 19.138C128.214 18.7553 128.377 18.2653 128.377 17.668V17.5H125.899V16.072H130.029V21H128.489V20.034H128.251C128.177 20.202 128.06 20.3793 127.901 20.566C127.743 20.7433 127.514 20.8927 127.215 21.014C126.926 21.1353 126.529 21.196 126.025 21.196ZM131.459 21V11.2H133.153V21H131.459ZM134.662 21V11.2H137.882L140.192 19.866H140.416V11.2H142.082V21H138.876L136.566 12.334H136.328V21H134.662Z" fill="#F1F1F1"/>
<defs>
<radialGradient id="paint0_radial_0_318" cx="0" cy="0" r="1" gradientUnits="userSpaceOnUse" gradientTransform="translate(96.1509 15) rotate(1.68947) scale(152.632 45.1405)">
<stop stop-color="#CC1923"/>
<stop offset="1" stop-color="#801016"/>
</radialGradient>
<clipPath id="clip0_0_318">
<rect width="20" height="20" fill="white" transform="translate(12 6)"/>
</clipPath>
</defs>
</svg>
