<svg width="255" height="28" viewBox="0 0 255 28" fill="none" xmlns="http://www.w3.org/2000/svg">
<path d="M0 14C0 6.26801 6.26801 0 14 0H241C248.732 0 255 6.26801 255 14C255 21.732 248.732 28 241 28H14C6.26801 28 0 21.732 0 14Z" fill="#F9FAFB"/>
<rect x="6" y="4" width="44" height="20" rx="10" fill="#C3F53C"/>
<path d="M14.966 19V9.2H18.186L20.496 17.866H20.72V9.2H22.386V19H19.18L16.87 10.334H16.632V19H14.966ZM26.9776 19.196C26.2869 19.196 25.6756 19.0513 25.1436 18.762C24.6209 18.4633 24.2102 18.048 23.9116 17.516C23.6222 16.9747 23.4776 16.3447 23.4776 15.626V15.458C23.4776 14.73 23.6222 14.1 23.9116 13.568C24.2009 13.036 24.6069 12.6253 25.1296 12.336C25.6522 12.0373 26.2542 11.888 26.9356 11.888C27.6076 11.888 28.1956 12.0373 28.6996 12.336C29.2036 12.6253 29.5956 13.036 29.8756 13.568C30.1556 14.1 30.2956 14.7207 30.2956 15.43V16.004H25.1016C25.1202 16.5453 25.3116 16.9793 25.6756 17.306C26.0396 17.6327 26.4876 17.796 27.0196 17.796C27.5422 17.796 27.9296 17.684 28.1816 17.46C28.4336 17.2267 28.6249 16.9653 28.7556 16.676L30.0856 17.362C29.9549 17.614 29.7636 17.8847 29.5116 18.174C29.2689 18.454 28.9422 18.6967 28.5316 18.902C28.1209 19.098 27.6029 19.196 26.9776 19.196ZM25.1156 14.786H28.6576C28.6202 14.3287 28.4429 13.9647 28.1256 13.694C27.8176 13.4233 27.4162 13.288 26.9216 13.288C26.4082 13.288 25.9976 13.4233 25.6896 13.694C25.3816 13.9647 25.1902 14.3287 25.1156 14.786ZM31.9916 19L30.9136 12.084H32.5096L33.2516 17.922H33.4896L34.5396 12.084H37.1156L38.1656 17.922H38.4036L39.1456 12.084H40.7416L39.6636 19H36.9896L35.9536 13.162H35.7156L34.6656 19H31.9916Z" fill="#3F2C19"/>
<path d="M63.5156 15.0391H60.4766V13.8125H63.5156C64.1042 13.8125 64.5807 13.7188 64.9453 13.5312C65.3099 13.3438 65.5755 13.0833 65.7422 12.75C65.9141 12.4167 66 12.0365 66 11.6094C66 11.2188 65.9141 10.8516 65.7422 10.5078C65.5755 10.1641 65.3099 9.88802 64.9453 9.67969C64.5807 9.46615 64.1042 9.35938 63.5156 9.35938H60.8281V19.5H59.3203V8.125H63.5156C64.375 8.125 65.1016 8.27344 65.6953 8.57031C66.2891 8.86719 66.7396 9.27865 67.0469 9.80469C67.3542 10.3255 67.5078 10.9219 67.5078 11.5938C67.5078 12.3229 67.3542 12.9453 67.0469 13.4609C66.7396 13.9766 66.2891 14.3698 65.6953 14.6406C65.1016 14.9062 64.375 15.0391 63.5156 15.0391ZM73.4459 18.0547V13.7031C73.4459 13.3698 73.3782 13.0807 73.2428 12.8359C73.1126 12.5859 72.9147 12.3932 72.6491 12.2578C72.3834 12.1224 72.0553 12.0547 71.6647 12.0547C71.3001 12.0547 70.9798 12.1172 70.7037 12.2422C70.4329 12.3672 70.2194 12.5312 70.0631 12.7344C69.9121 12.9375 69.8366 13.1562 69.8366 13.3906H68.3912C68.3912 13.0885 68.4694 12.7891 68.6256 12.4922C68.7819 12.1953 69.0058 11.9271 69.2975 11.6875C69.5944 11.4427 69.9485 11.25 70.36 11.1094C70.7767 10.9635 71.2402 10.8906 71.7506 10.8906C72.3652 10.8906 72.9069 10.9948 73.3756 11.2031C73.8496 11.4115 74.2194 11.7266 74.485 12.1484C74.7558 12.5651 74.8912 13.0885 74.8912 13.7188V17.6562C74.8912 17.9375 74.9147 18.237 74.9616 18.5547C75.0136 18.8724 75.0892 19.1458 75.1881 19.375V19.5H73.6803C73.6074 19.3333 73.5501 19.112 73.5084 18.8359C73.4668 18.5547 73.4459 18.2943 73.4459 18.0547ZM73.6959 14.375L73.7116 15.3906H72.2506C71.8392 15.3906 71.472 15.4245 71.1491 15.4922C70.8261 15.5547 70.5553 15.651 70.3366 15.7812C70.1178 15.9115 69.9511 16.0755 69.8366 16.2734C69.722 16.4661 69.6647 16.6927 69.6647 16.9531C69.6647 17.2188 69.7246 17.4609 69.8444 17.6797C69.9642 17.8984 70.1439 18.0729 70.3834 18.2031C70.6282 18.3281 70.9277 18.3906 71.2819 18.3906C71.7246 18.3906 72.1152 18.2969 72.4537 18.1094C72.7923 17.9219 73.0605 17.6927 73.2584 17.4219C73.4616 17.151 73.5709 16.888 73.5866 16.6328L74.2037 17.3281C74.1673 17.5469 74.0683 17.7891 73.9069 18.0547C73.7454 18.3203 73.5293 18.5755 73.2584 18.8203C72.9928 19.0599 72.6751 19.2604 72.3053 19.4219C71.9407 19.5781 71.5293 19.6562 71.0709 19.6562C70.498 19.6562 69.9954 19.5443 69.5631 19.3203C69.136 19.0964 68.8027 18.7969 68.5631 18.4219C68.3287 18.0417 68.2116 17.6172 68.2116 17.1484C68.2116 16.6953 68.3001 16.2969 68.4772 15.9531C68.6543 15.6042 68.9095 15.3151 69.2428 15.0859C69.5761 14.8516 69.9772 14.6745 70.4459 14.5547C70.9147 14.4349 71.4381 14.375 72.0162 14.375H73.6959ZM78.7747 18.625L81.1262 11.0469H82.6731L79.2825 20.8047C79.2044 21.013 79.1002 21.237 78.97 21.4766C78.845 21.7214 78.6835 21.9531 78.4856 22.1719C78.2877 22.3906 78.0481 22.5677 77.7669 22.7031C77.4908 22.8438 77.1601 22.9141 76.7747 22.9141C76.6601 22.9141 76.5143 22.8984 76.3372 22.8672C76.1601 22.8359 76.0351 22.8099 75.9622 22.7891L75.9544 21.6172C75.996 21.6224 76.0611 21.6276 76.1497 21.6328C76.2434 21.6432 76.3085 21.6484 76.345 21.6484C76.6731 21.6484 76.9518 21.6042 77.1809 21.5156C77.4101 21.4323 77.6028 21.2891 77.7591 21.0859C77.9205 20.888 78.0585 20.6146 78.1731 20.2656L78.7747 18.625ZM77.0481 11.0469L79.2434 17.6094L79.6184 19.1328L78.5794 19.6641L75.47 11.0469H77.0481ZM84.7753 12.7266V19.5H83.3222V11.0469H84.6972L84.7753 12.7266ZM84.4784 14.9531L83.8066 14.9297C83.8118 14.3516 83.8873 13.8177 84.0331 13.3281C84.179 12.8333 84.3951 12.4036 84.6816 12.0391C84.968 11.6745 85.3248 11.3932 85.7519 11.1953C86.179 10.9922 86.6737 10.8906 87.2362 10.8906C87.6321 10.8906 87.9967 10.9479 88.33 11.0625C88.6633 11.1719 88.9524 11.3464 89.1972 11.5859C89.442 11.8255 89.6321 12.1328 89.7675 12.5078C89.9029 12.8828 89.9706 13.3359 89.9706 13.8672V19.5H88.5253V13.9375C88.5253 13.4948 88.4498 13.1406 88.2987 12.875C88.1529 12.6094 87.9446 12.4167 87.6737 12.2969C87.4029 12.1719 87.0852 12.1094 86.7206 12.1094C86.2935 12.1094 85.9368 12.1849 85.6503 12.3359C85.3639 12.487 85.1347 12.6953 84.9628 12.9609C84.7909 13.2266 84.6659 13.5312 84.5878 13.875C84.5149 14.2135 84.4784 14.5729 84.4784 14.9531ZM89.955 14.1562L88.9862 14.4531C88.9915 13.9896 89.067 13.5443 89.2128 13.1172C89.3639 12.6901 89.58 12.3099 89.8612 11.9766C90.1477 11.6432 90.4993 11.3802 90.9159 11.1875C91.3326 10.9896 91.8092 10.8906 92.3456 10.8906C92.7987 10.8906 93.1998 10.9505 93.5487 11.0703C93.9029 11.1901 94.1998 11.375 94.4394 11.625C94.6842 11.8698 94.8691 12.1849 94.9941 12.5703C95.1191 12.9557 95.1816 13.4141 95.1816 13.9453V19.5H93.7284V13.9297C93.7284 13.4557 93.6529 13.0885 93.5019 12.8281C93.356 12.5625 93.1477 12.3776 92.8769 12.2734C92.6112 12.1641 92.2935 12.1094 91.9237 12.1094C91.606 12.1094 91.3248 12.1641 91.08 12.2734C90.8352 12.3828 90.6295 12.5339 90.4628 12.7266C90.2961 12.9141 90.1685 13.1302 90.08 13.375C89.9967 13.6198 89.955 13.8802 89.955 14.1562ZM100.237 19.6562C99.6483 19.6562 99.1145 19.5573 98.6353 19.3594C98.1614 19.1562 97.7525 18.8724 97.4087 18.5078C97.0702 18.1432 96.8098 17.7109 96.6275 17.2109C96.4452 16.7109 96.3541 16.1641 96.3541 15.5703V15.2422C96.3541 14.5547 96.4556 13.9427 96.6587 13.4062C96.8619 12.8646 97.1379 12.4062 97.4869 12.0312C97.8358 11.6562 98.2317 11.3724 98.6744 11.1797C99.1171 10.987 99.5754 10.8906 100.049 10.8906C100.654 10.8906 101.174 10.9948 101.612 11.2031C102.055 11.4115 102.417 11.7031 102.698 12.0781C102.979 12.4479 103.187 12.8854 103.323 13.3906C103.458 13.8906 103.526 14.4375 103.526 15.0312V15.6797H97.2134V14.5H102.081V14.3906C102.06 14.0156 101.982 13.651 101.846 13.2969C101.716 12.9427 101.508 12.651 101.221 12.4219C100.935 12.1927 100.544 12.0781 100.049 12.0781C99.7212 12.0781 99.4192 12.1484 99.1431 12.2891C98.8671 12.4245 98.6301 12.6276 98.4322 12.8984C98.2343 13.1693 98.0806 13.5 97.9712 13.8906C97.8619 14.2812 97.8072 14.7318 97.8072 15.2422V15.5703C97.8072 15.9714 97.8619 16.349 97.9712 16.7031C98.0858 17.0521 98.2499 17.3594 98.4634 17.625C98.6822 17.8906 98.9452 18.099 99.2525 18.25C99.565 18.401 99.9192 18.4766 100.315 18.4766C100.825 18.4766 101.258 18.3724 101.612 18.1641C101.966 17.9557 102.276 17.6771 102.542 17.3281L103.417 18.0234C103.234 18.2995 103.002 18.5625 102.721 18.8125C102.44 19.0625 102.094 19.2656 101.682 19.4219C101.276 19.5781 100.794 19.6562 100.237 19.6562ZM106.019 12.8516V19.5H104.573V11.0469H105.941L106.019 12.8516ZM105.675 14.9531L105.073 14.9297C105.079 14.3516 105.165 13.8177 105.331 13.3281C105.498 12.8333 105.732 12.4036 106.034 12.0391C106.336 11.6745 106.696 11.3932 107.112 11.1953C107.534 10.9922 108.001 10.8906 108.511 10.8906C108.928 10.8906 109.303 10.9479 109.636 11.0625C109.969 11.1719 110.253 11.349 110.487 11.5938C110.727 11.8385 110.909 12.1562 111.034 12.5469C111.159 12.9323 111.222 13.4036 111.222 13.9609V19.5H109.769V13.9453C109.769 13.5026 109.704 13.1484 109.573 12.8828C109.443 12.612 109.253 12.4167 109.003 12.2969C108.753 12.1719 108.446 12.1094 108.081 12.1094C107.722 12.1094 107.394 12.1849 107.097 12.3359C106.805 12.487 106.553 12.6953 106.339 12.9609C106.131 13.2266 105.967 13.5312 105.847 13.875C105.732 14.2135 105.675 14.5729 105.675 14.9531ZM116.316 11.0469V12.1562H111.746V11.0469H116.316ZM113.293 8.99219H114.738V17.4062C114.738 17.6927 114.782 17.9089 114.871 18.0547C114.959 18.2005 115.074 18.2969 115.215 18.3438C115.355 18.3906 115.506 18.4141 115.668 18.4141C115.788 18.4141 115.913 18.4036 116.043 18.3828C116.178 18.3568 116.28 18.3359 116.347 18.3203L116.355 19.5C116.241 19.5365 116.09 19.5703 115.902 19.6016C115.72 19.638 115.499 19.6562 115.238 19.6562C114.884 19.6562 114.558 19.5859 114.262 19.4453C113.965 19.3047 113.728 19.0703 113.551 18.7422C113.379 18.4089 113.293 17.9609 113.293 17.3984V8.99219ZM125.622 17.2578C125.622 17.0495 125.575 16.8568 125.482 16.6797C125.393 16.4974 125.208 16.3333 124.927 16.1875C124.651 16.0365 124.234 15.9062 123.677 15.7969C123.208 15.6979 122.784 15.5807 122.403 15.4453C122.028 15.3099 121.708 15.1458 121.443 14.9531C121.182 14.7604 120.982 14.5339 120.841 14.2734C120.7 14.013 120.63 13.7083 120.63 13.3594C120.63 13.026 120.703 12.7109 120.849 12.4141C121 12.1172 121.211 11.8542 121.482 11.625C121.758 11.3958 122.088 11.2161 122.474 11.0859C122.859 10.9557 123.289 10.8906 123.763 10.8906C124.44 10.8906 125.018 11.0104 125.497 11.25C125.976 11.4896 126.344 11.8099 126.599 12.2109C126.854 12.6068 126.982 13.0469 126.982 13.5312H125.536C125.536 13.2969 125.466 13.0703 125.325 12.8516C125.19 12.6276 124.989 12.4427 124.724 12.2969C124.463 12.151 124.143 12.0781 123.763 12.0781C123.362 12.0781 123.036 12.1406 122.786 12.2656C122.541 12.3854 122.362 12.5391 122.247 12.7266C122.138 12.9141 122.083 13.112 122.083 13.3203C122.083 13.4766 122.109 13.6172 122.161 13.7422C122.219 13.862 122.318 13.974 122.458 14.0781C122.599 14.1771 122.797 14.2708 123.052 14.3594C123.307 14.4479 123.633 14.5365 124.028 14.625C124.721 14.7812 125.291 14.9688 125.739 15.1875C126.187 15.4062 126.521 15.6745 126.739 15.9922C126.958 16.3099 127.068 16.6953 127.068 17.1484C127.068 17.5182 126.989 17.8568 126.833 18.1641C126.682 18.4714 126.461 18.737 126.169 18.9609C125.883 19.1797 125.539 19.3516 125.138 19.4766C124.742 19.5964 124.297 19.6562 123.802 19.6562C123.057 19.6562 122.427 19.5234 121.911 19.2578C121.396 18.9922 121.005 18.6484 120.739 18.2266C120.474 17.8047 120.341 17.3594 120.341 16.8906H121.794C121.815 17.2865 121.929 17.6016 122.138 17.8359C122.346 18.0651 122.601 18.2292 122.903 18.3281C123.206 18.4219 123.505 18.4688 123.802 18.4688C124.198 18.4688 124.528 18.4167 124.794 18.3125C125.065 18.2083 125.271 18.0651 125.411 17.8828C125.552 17.7005 125.622 17.4922 125.622 17.2578ZM130.701 18.625L133.052 11.0469H134.599L131.209 20.8047C131.131 21.013 131.026 21.237 130.896 21.4766C130.771 21.7214 130.61 21.9531 130.412 22.1719C130.214 22.3906 129.974 22.5677 129.693 22.7031C129.417 22.8438 129.086 22.9141 128.701 22.9141C128.586 22.9141 128.441 22.8984 128.263 22.8672C128.086 22.8359 127.961 22.8099 127.888 22.7891L127.881 21.6172C127.922 21.6224 127.987 21.6276 128.076 21.6328C128.17 21.6432 128.235 21.6484 128.271 21.6484C128.599 21.6484 128.878 21.6042 129.107 21.5156C129.336 21.4323 129.529 21.2891 129.685 21.0859C129.847 20.888 129.985 20.6146 130.099 20.2656L130.701 18.625ZM128.974 11.0469L131.17 17.6094L131.545 19.1328L130.506 19.6641L127.396 11.0469H128.974ZM140.186 17.2578C140.186 17.0495 140.139 16.8568 140.045 16.6797C139.957 16.4974 139.772 16.3333 139.491 16.1875C139.215 16.0365 138.798 15.9062 138.241 15.7969C137.772 15.6979 137.347 15.5807 136.967 15.4453C136.592 15.3099 136.272 15.1458 136.006 14.9531C135.746 14.7604 135.545 14.5339 135.405 14.2734C135.264 14.013 135.194 13.7083 135.194 13.3594C135.194 13.026 135.267 12.7109 135.412 12.4141C135.564 12.1172 135.774 11.8542 136.045 11.625C136.321 11.3958 136.652 11.2161 137.037 11.0859C137.423 10.9557 137.853 10.8906 138.327 10.8906C139.004 10.8906 139.582 11.0104 140.061 11.25C140.54 11.4896 140.907 11.8099 141.162 12.2109C141.418 12.6068 141.545 13.0469 141.545 13.5312H140.1C140.1 13.2969 140.03 13.0703 139.889 12.8516C139.754 12.6276 139.553 12.4427 139.287 12.2969C139.027 12.151 138.707 12.0781 138.327 12.0781C137.926 12.0781 137.6 12.1406 137.35 12.2656C137.105 12.3854 136.926 12.5391 136.811 12.7266C136.702 12.9141 136.647 13.112 136.647 13.3203C136.647 13.4766 136.673 13.6172 136.725 13.7422C136.782 13.862 136.881 13.974 137.022 14.0781C137.162 14.1771 137.36 14.2708 137.616 14.3594C137.871 14.4479 138.196 14.5365 138.592 14.625C139.285 14.7812 139.855 14.9688 140.303 15.1875C140.751 15.4062 141.084 15.6745 141.303 15.9922C141.522 16.3099 141.631 16.6953 141.631 17.1484C141.631 17.5182 141.553 17.8568 141.397 18.1641C141.246 18.4714 141.024 18.737 140.733 18.9609C140.446 19.1797 140.103 19.3516 139.702 19.4766C139.306 19.5964 138.86 19.6562 138.366 19.6562C137.621 19.6562 136.991 19.5234 136.475 19.2578C135.959 18.9922 135.569 18.6484 135.303 18.2266C135.037 17.8047 134.905 17.3594 134.905 16.8906H136.358C136.379 17.2865 136.493 17.6016 136.702 17.8359C136.91 18.0651 137.165 18.2292 137.467 18.3281C137.769 18.4219 138.069 18.4688 138.366 18.4688C138.761 18.4688 139.092 18.4167 139.358 18.3125C139.629 18.2083 139.834 18.0651 139.975 17.8828C140.116 17.7005 140.186 17.4922 140.186 17.2578ZM146.429 11.0469V12.1562H141.858V11.0469H146.429ZM143.405 8.99219H144.851V17.4062C144.851 17.6927 144.895 17.9089 144.983 18.0547C145.072 18.2005 145.187 18.2969 145.327 18.3438C145.468 18.3906 145.619 18.4141 145.78 18.4141C145.9 18.4141 146.025 18.4036 146.155 18.3828C146.291 18.3568 146.392 18.3359 146.46 18.3203L146.468 19.5C146.353 19.5365 146.202 19.5703 146.015 19.6016C145.832 19.638 145.611 19.6562 145.351 19.6562C144.996 19.6562 144.671 19.5859 144.374 19.4453C144.077 19.3047 143.84 19.0703 143.663 18.7422C143.491 18.4089 143.405 17.9609 143.405 17.3984V8.99219ZM150.992 19.6562C150.403 19.6562 149.869 19.5573 149.39 19.3594C148.916 19.1562 148.507 18.8724 148.164 18.5078C147.825 18.1432 147.565 17.7109 147.382 17.2109C147.2 16.7109 147.109 16.1641 147.109 15.5703V15.2422C147.109 14.5547 147.211 13.9427 147.414 13.4062C147.617 12.8646 147.893 12.4062 148.242 12.0312C148.591 11.6562 148.987 11.3724 149.429 11.1797C149.872 10.987 150.33 10.8906 150.804 10.8906C151.409 10.8906 151.929 10.9948 152.367 11.2031C152.81 11.4115 153.172 11.7031 153.453 12.0781C153.734 12.4479 153.942 12.8854 154.078 13.3906C154.213 13.8906 154.281 14.4375 154.281 15.0312V15.6797H147.968V14.5H152.836V14.3906C152.815 14.0156 152.737 13.651 152.601 13.2969C152.471 12.9427 152.263 12.651 151.976 12.4219C151.69 12.1927 151.299 12.0781 150.804 12.0781C150.476 12.0781 150.174 12.1484 149.898 12.2891C149.622 12.4245 149.385 12.6276 149.187 12.8984C148.989 13.1693 148.836 13.5 148.726 13.8906C148.617 14.2812 148.562 14.7318 148.562 15.2422V15.5703C148.562 15.9714 148.617 16.349 148.726 16.7031C148.841 17.0521 149.005 17.3594 149.218 17.625C149.437 17.8906 149.7 18.099 150.007 18.25C150.32 18.401 150.674 18.4766 151.07 18.4766C151.58 18.4766 152.013 18.3724 152.367 18.1641C152.721 17.9557 153.031 17.6771 153.297 17.3281L154.172 18.0234C153.989 18.2995 153.757 18.5625 153.476 18.8125C153.195 19.0625 152.849 19.2656 152.437 19.4219C152.031 19.5781 151.549 19.6562 150.992 19.6562ZM156.766 12.7266V19.5H155.313V11.0469H156.688L156.766 12.7266ZM156.469 14.9531L155.797 14.9297C155.802 14.3516 155.878 13.8177 156.024 13.3281C156.17 12.8333 156.386 12.4036 156.672 12.0391C156.959 11.6745 157.315 11.3932 157.743 11.1953C158.17 10.9922 158.664 10.8906 159.227 10.8906C159.623 10.8906 159.987 10.9479 160.321 11.0625C160.654 11.1719 160.943 11.3464 161.188 11.5859C161.433 11.8255 161.623 12.1328 161.758 12.5078C161.894 12.8828 161.961 13.3359 161.961 13.8672V19.5H160.516V13.9375C160.516 13.4948 160.44 13.1406 160.289 12.875C160.144 12.6094 159.935 12.4167 159.664 12.2969C159.394 12.1719 159.076 12.1094 158.711 12.1094C158.284 12.1094 157.927 12.1849 157.641 12.3359C157.354 12.487 157.125 12.6953 156.953 12.9609C156.782 13.2266 156.657 13.5312 156.578 13.875C156.506 14.2135 156.469 14.5729 156.469 14.9531ZM161.946 14.1562L160.977 14.4531C160.982 13.9896 161.058 13.5443 161.203 13.1172C161.354 12.6901 161.571 12.3099 161.852 11.9766C162.138 11.6432 162.49 11.3802 162.907 11.1875C163.323 10.9896 163.8 10.8906 164.336 10.8906C164.789 10.8906 165.19 10.9505 165.539 11.0703C165.894 11.1901 166.19 11.375 166.43 11.625C166.675 11.8698 166.86 12.1849 166.985 12.5703C167.11 12.9557 167.172 13.4141 167.172 13.9453V19.5H165.719V13.9297C165.719 13.4557 165.644 13.0885 165.493 12.8281C165.347 12.5625 165.138 12.3776 164.868 12.2734C164.602 12.1641 164.284 12.1094 163.914 12.1094C163.597 12.1094 163.315 12.1641 163.071 12.2734C162.826 12.3828 162.62 12.5339 162.453 12.7266C162.287 12.9141 162.159 13.1302 162.071 13.375C161.987 13.6198 161.946 13.8802 161.946 14.1562ZM177.22 17.5469V11.0469H178.673V19.5H177.291L177.22 17.5469ZM177.494 15.7656L178.095 15.75C178.095 16.3125 178.035 16.8333 177.916 17.3125C177.801 17.7865 177.614 18.1979 177.353 18.5469C177.093 18.8958 176.752 19.1693 176.33 19.3672C175.908 19.5599 175.395 19.6562 174.791 19.6562C174.379 19.6562 174.002 19.5964 173.658 19.4766C173.319 19.3568 173.028 19.1719 172.783 18.9219C172.538 18.6719 172.348 18.3464 172.213 17.9453C172.082 17.5443 172.017 17.0625 172.017 16.5V11.0469H173.463V16.5156C173.463 16.8958 173.504 17.2109 173.588 17.4609C173.676 17.7057 173.793 17.901 173.939 18.0469C174.09 18.1875 174.257 18.2865 174.439 18.3438C174.627 18.401 174.819 18.4297 175.017 18.4297C175.632 18.4297 176.119 18.3125 176.478 18.0781C176.838 17.8385 177.095 17.5182 177.252 17.1172C177.413 16.7109 177.494 16.2604 177.494 15.7656ZM181.682 12.6719V22.75H180.229V11.0469H181.557L181.682 12.6719ZM187.377 15.2031V15.3672C187.377 15.9818 187.304 16.5521 187.158 17.0781C187.013 17.599 186.799 18.0521 186.518 18.4375C186.242 18.8229 185.901 19.1224 185.494 19.3359C185.088 19.5495 184.622 19.6562 184.096 19.6562C183.559 19.6562 183.086 19.5677 182.674 19.3906C182.263 19.2135 181.914 18.9557 181.627 18.6172C181.341 18.2786 181.112 17.8724 180.94 17.3984C180.773 16.9245 180.658 16.3906 180.596 15.7969V14.9219C180.658 14.2969 180.776 13.737 180.948 13.2422C181.119 12.7474 181.346 12.3255 181.627 11.9766C181.914 11.6224 182.26 11.3542 182.666 11.1719C183.073 10.9844 183.541 10.8906 184.073 10.8906C184.604 10.8906 185.075 10.9948 185.487 11.2031C185.898 11.4062 186.244 11.6979 186.526 12.0781C186.807 12.4583 187.018 12.9141 187.158 13.4453C187.304 13.9714 187.377 14.5573 187.377 15.2031ZM185.924 15.3672V15.2031C185.924 14.7812 185.88 14.3854 185.791 14.0156C185.703 13.6406 185.565 13.3125 185.377 13.0312C185.195 12.7448 184.961 12.5208 184.674 12.3594C184.388 12.1927 184.046 12.1094 183.651 12.1094C183.286 12.1094 182.968 12.1719 182.698 12.2969C182.432 12.4219 182.205 12.5911 182.018 12.8047C181.83 13.013 181.677 13.2526 181.557 13.5234C181.442 13.7891 181.356 14.0651 181.299 14.3516V16.375C181.403 16.7396 181.549 17.0833 181.737 17.4062C181.924 17.724 182.174 17.9818 182.487 18.1797C182.799 18.3724 183.192 18.4688 183.666 18.4688C184.057 18.4688 184.393 18.388 184.674 18.2266C184.961 18.0599 185.195 17.8333 185.377 17.5469C185.565 17.2604 185.703 16.9323 185.791 16.5625C185.88 16.1875 185.924 15.7891 185.924 15.3672ZM194.057 11.0469H195.37V19.3203C195.37 20.0651 195.219 20.7005 194.917 21.2266C194.615 21.7526 194.193 22.151 193.651 22.4219C193.115 22.6979 192.495 22.8359 191.792 22.8359C191.5 22.8359 191.156 22.7891 190.761 22.6953C190.37 22.6068 189.985 22.4531 189.604 22.2344C189.229 22.0208 188.914 21.7318 188.659 21.3672L189.417 20.5078C189.771 20.9349 190.141 21.2318 190.526 21.3984C190.917 21.5651 191.302 21.6484 191.682 21.6484C192.141 21.6484 192.537 21.5625 192.87 21.3906C193.203 21.2188 193.461 20.9635 193.643 20.625C193.831 20.2917 193.925 19.8802 193.925 19.3906V12.9062L194.057 11.0469ZM188.237 15.3672V15.2031C188.237 14.5573 188.313 13.9714 188.464 13.4453C188.62 12.9141 188.841 12.4583 189.128 12.0781C189.419 11.6979 189.771 11.4062 190.182 11.2031C190.594 10.9948 191.057 10.8906 191.573 10.8906C192.104 10.8906 192.568 10.9844 192.964 11.1719C193.365 11.3542 193.703 11.6224 193.979 11.9766C194.261 12.3255 194.482 12.7474 194.643 13.2422C194.805 13.737 194.917 14.2969 194.979 14.9219V15.6406C194.922 16.2604 194.81 16.8177 194.643 17.3125C194.482 17.8073 194.261 18.2292 193.979 18.5781C193.703 18.9271 193.365 19.1953 192.964 19.3828C192.563 19.5651 192.094 19.6562 191.557 19.6562C191.052 19.6562 190.594 19.5495 190.182 19.3359C189.776 19.1224 189.427 18.8229 189.136 18.4375C188.844 18.0521 188.62 17.599 188.464 17.0781C188.313 16.5521 188.237 15.9818 188.237 15.3672ZM189.682 15.2031V15.3672C189.682 15.7891 189.724 16.1849 189.807 16.5547C189.896 16.9245 190.029 17.25 190.206 17.5312C190.388 17.8125 190.62 18.0339 190.901 18.1953C191.182 18.3516 191.518 18.4297 191.909 18.4297C192.388 18.4297 192.784 18.3281 193.097 18.125C193.409 17.9219 193.656 17.6536 193.839 17.3203C194.026 16.987 194.172 16.625 194.276 16.2344V14.3516C194.219 14.0651 194.13 13.7891 194.011 13.5234C193.896 13.2526 193.745 13.013 193.557 12.8047C193.375 12.5911 193.149 12.4219 192.878 12.2969C192.607 12.1719 192.289 12.1094 191.925 12.1094C191.529 12.1094 191.188 12.1927 190.901 12.3594C190.62 12.5208 190.388 12.7448 190.206 13.0312C190.029 13.3125 189.896 13.6406 189.807 14.0156C189.724 14.3854 189.682 14.7812 189.682 15.2031ZM198.371 12.375V19.5H196.925V11.0469H198.332L198.371 12.375ZM201.011 11L201.003 12.3438C200.884 12.3177 200.769 12.3021 200.66 12.2969C200.556 12.2865 200.436 12.2812 200.3 12.2812C199.967 12.2812 199.673 12.3333 199.417 12.4375C199.162 12.5417 198.946 12.6875 198.769 12.875C198.592 13.0625 198.451 13.2865 198.347 13.5469C198.248 13.8021 198.183 14.0833 198.152 14.3906L197.746 14.625C197.746 14.1146 197.795 13.6354 197.894 13.1875C197.998 12.7396 198.157 12.3438 198.371 12C198.584 11.651 198.855 11.3802 199.183 11.1875C199.516 10.9896 199.912 10.8906 200.371 10.8906C200.475 10.8906 200.595 10.9036 200.73 10.9297C200.865 10.9505 200.959 10.974 201.011 11ZM206.379 18.0547V13.7031C206.379 13.3698 206.311 13.0807 206.176 12.8359C206.046 12.5859 205.848 12.3932 205.582 12.2578C205.317 12.1224 204.988 12.0547 204.598 12.0547C204.233 12.0547 203.913 12.1172 203.637 12.2422C203.366 12.3672 203.152 12.5312 202.996 12.7344C202.845 12.9375 202.77 13.1562 202.77 13.3906H201.324C201.324 13.0885 201.402 12.7891 201.559 12.4922C201.715 12.1953 201.939 11.9271 202.231 11.6875C202.527 11.4427 202.882 11.25 203.293 11.1094C203.71 10.9635 204.173 10.8906 204.684 10.8906C205.298 10.8906 205.84 10.9948 206.309 11.2031C206.783 11.4115 207.152 11.7266 207.418 12.1484C207.689 12.5651 207.824 13.0885 207.824 13.7188V17.6562C207.824 17.9375 207.848 18.237 207.895 18.5547C207.947 18.8724 208.022 19.1458 208.121 19.375V19.5H206.613C206.541 19.3333 206.483 19.112 206.442 18.8359C206.4 18.5547 206.379 18.2943 206.379 18.0547ZM206.629 14.375L206.645 15.3906H205.184C204.772 15.3906 204.405 15.4245 204.082 15.4922C203.759 15.5547 203.488 15.651 203.27 15.7812C203.051 15.9115 202.884 16.0755 202.77 16.2734C202.655 16.4661 202.598 16.6927 202.598 16.9531C202.598 17.2188 202.658 17.4609 202.777 17.6797C202.897 17.8984 203.077 18.0729 203.317 18.2031C203.561 18.3281 203.861 18.3906 204.215 18.3906C204.658 18.3906 205.048 18.2969 205.387 18.1094C205.725 17.9219 205.994 17.6927 206.192 17.4219C206.395 17.151 206.504 16.888 206.52 16.6328L207.137 17.3281C207.1 17.5469 207.001 17.7891 206.84 18.0547C206.679 18.3203 206.462 18.5755 206.192 18.8203C205.926 19.0599 205.608 19.2604 205.238 19.4219C204.874 19.5781 204.462 19.6562 204.004 19.6562C203.431 19.6562 202.929 19.5443 202.496 19.3203C202.069 19.0964 201.736 18.7969 201.496 18.4219C201.262 18.0417 201.145 17.6172 201.145 17.1484C201.145 16.6953 201.233 16.2969 201.41 15.9531C201.587 15.6042 201.843 15.3151 202.176 15.0859C202.509 14.8516 202.91 14.6745 203.379 14.5547C203.848 14.4349 204.371 14.375 204.949 14.375H206.629ZM214.786 17.8594V7.5H216.239V19.5H214.911L214.786 17.8594ZM209.098 15.3672V15.2031C209.098 14.5573 209.177 13.9714 209.333 13.4453C209.494 12.9141 209.721 12.4583 210.012 12.0781C210.309 11.6979 210.661 11.4062 211.067 11.2031C211.479 10.9948 211.937 10.8906 212.442 10.8906C212.973 10.8906 213.437 10.9844 213.833 11.1719C214.234 11.3542 214.572 11.6224 214.848 11.9766C215.13 12.3255 215.351 12.7474 215.512 13.2422C215.674 13.737 215.786 14.2969 215.848 14.9219V15.6406C215.791 16.2604 215.679 16.8177 215.512 17.3125C215.351 17.8073 215.13 18.2292 214.848 18.5781C214.572 18.9271 214.234 19.1953 213.833 19.3828C213.432 19.5651 212.963 19.6562 212.427 19.6562C211.932 19.6562 211.479 19.5495 211.067 19.3359C210.661 19.1224 210.309 18.8229 210.012 18.4375C209.721 18.0521 209.494 17.599 209.333 17.0781C209.177 16.5521 209.098 15.9818 209.098 15.3672ZM210.552 15.2031V15.3672C210.552 15.7891 210.593 16.1849 210.677 16.5547C210.765 16.9245 210.901 17.25 211.083 17.5312C211.265 17.8125 211.497 18.0339 211.778 18.1953C212.059 18.3516 212.395 18.4297 212.786 18.4297C213.265 18.4297 213.658 18.3281 213.966 18.125C214.278 17.9219 214.528 17.6536 214.716 17.3203C214.903 16.987 215.049 16.625 215.153 16.2344V14.3516C215.091 14.0651 214.999 13.7891 214.88 13.5234C214.765 13.2526 214.614 13.013 214.427 12.8047C214.244 12.5911 214.018 12.4219 213.747 12.2969C213.481 12.1719 213.166 12.1094 212.802 12.1094C212.406 12.1094 212.065 12.1927 211.778 12.3594C211.497 12.5208 211.265 12.7448 211.083 13.0312C210.901 13.3125 210.765 13.6406 210.677 14.0156C210.593 14.3854 210.552 14.7812 210.552 15.2031ZM221.357 19.6562C220.768 19.6562 220.234 19.5573 219.755 19.3594C219.281 19.1562 218.872 18.8724 218.529 18.5078C218.19 18.1432 217.93 17.7109 217.747 17.2109C217.565 16.7109 217.474 16.1641 217.474 15.5703V15.2422C217.474 14.5547 217.576 13.9427 217.779 13.4062C217.982 12.8646 218.258 12.4062 218.607 12.0312C218.956 11.6562 219.352 11.3724 219.794 11.1797C220.237 10.987 220.695 10.8906 221.169 10.8906C221.774 10.8906 222.294 10.9948 222.732 11.2031C223.175 11.4115 223.537 11.7031 223.818 12.0781C224.099 12.4479 224.307 12.8854 224.443 13.3906C224.578 13.8906 224.646 14.4375 224.646 15.0312V15.6797H218.333V14.5H223.201V14.3906C223.18 14.0156 223.102 13.651 222.966 13.2969C222.836 12.9427 222.628 12.651 222.341 12.4219C222.055 12.1927 221.664 12.0781 221.169 12.0781C220.841 12.0781 220.539 12.1484 220.263 12.2891C219.987 12.4245 219.75 12.6276 219.552 12.8984C219.354 13.1693 219.201 13.5 219.091 13.8906C218.982 14.2812 218.927 14.7318 218.927 15.2422V15.5703C218.927 15.9714 218.982 16.349 219.091 16.7031C219.206 17.0521 219.37 17.3594 219.583 17.625C219.802 17.8906 220.065 18.099 220.372 18.25C220.685 18.401 221.039 18.4766 221.435 18.4766C221.945 18.4766 222.378 18.3724 222.732 18.1641C223.086 17.9557 223.396 17.6771 223.662 17.3281L224.537 18.0234C224.354 18.2995 224.122 18.5625 223.841 18.8125C223.56 19.0625 223.214 19.2656 222.802 19.4219C222.396 19.5781 221.914 19.6562 221.357 19.6562ZM231.022 17.8594V7.5H232.475V19.5H231.147L231.022 17.8594ZM225.334 15.3672V15.2031C225.334 14.5573 225.412 13.9714 225.568 13.4453C225.73 12.9141 225.956 12.4583 226.248 12.0781C226.545 11.6979 226.897 11.4062 227.303 11.2031C227.714 10.9948 228.173 10.8906 228.678 10.8906C229.209 10.8906 229.673 10.9844 230.068 11.1719C230.469 11.3542 230.808 11.6224 231.084 11.9766C231.365 12.3255 231.587 12.7474 231.748 13.2422C231.91 13.737 232.022 14.2969 232.084 14.9219V15.6406C232.027 16.2604 231.915 16.8177 231.748 17.3125C231.587 17.8073 231.365 18.2292 231.084 18.5781C230.808 18.9271 230.469 19.1953 230.068 19.3828C229.667 19.5651 229.199 19.6562 228.662 19.6562C228.167 19.6562 227.714 19.5495 227.303 19.3359C226.897 19.1224 226.545 18.8229 226.248 18.4375C225.956 18.0521 225.73 17.599 225.568 17.0781C225.412 16.5521 225.334 15.9818 225.334 15.3672ZM226.787 15.2031V15.3672C226.787 15.7891 226.829 16.1849 226.912 16.5547C227.001 16.9245 227.136 17.25 227.318 17.5312C227.501 17.8125 227.732 18.0339 228.014 18.1953C228.295 18.3516 228.631 18.4297 229.022 18.4297C229.501 18.4297 229.894 18.3281 230.201 18.125C230.514 17.9219 230.764 17.6536 230.951 17.3203C231.139 16.987 231.285 16.625 231.389 16.2344V14.3516C231.326 14.0651 231.235 13.7891 231.115 13.5234C231.001 13.2526 230.85 13.013 230.662 12.8047C230.48 12.5911 230.253 12.4219 229.982 12.2969C229.717 12.1719 229.402 12.1094 229.037 12.1094C228.641 12.1094 228.3 12.1927 228.014 12.3594C227.732 12.5208 227.501 12.7448 227.318 13.0312C227.136 13.3125 227.001 13.6406 226.912 14.0156C226.829 14.3854 226.787 14.7812 226.787 15.2031ZM232.983 20.62H248.983V4.62H232.983V20.62Z" fill="#304761"/>
</svg>
